<?xml version='1.0' encoding='utf-8'?>
<svg xmlns:xlink="http://www.w3.org/1999/xlink" class="pygal-chart" id="chart-6d55697b-fda7-449d-b208-19e23533b4c8" viewBox="0 0 1024 600" xmlns="http://www.w3.org/2000/svg"><!--Generated with pygal 1.5.0 (etree) ©Kozea 2011-2014 on 2014-09-09--><!--http://pygal.org--><!--http://github.com/Kozea/pygal--><defs><style type="text/css">#chart-6d55697b-fda7-449d-b208-19e23533b4c8 .title{font-family:"monospace";font-size:16px}#chart-6d55697b-fda7-449d-b208-19e23533b4c8 .legends .legend text{font-family:"monospace";font-size:14px}#chart-6d55697b-fda7-449d-b208-19e23533b4c8 .axis text{font-family:"monospace";font-size:10px}#chart-6d55697b-fda7-449d-b208-19e23533b4c8 .axis text.major{font-family:"monospace";font-size:10px}#chart-6d55697b-fda7-449d-b208-19e23533b4c8 .series text{font-family:"monospace";font-size:8px}#chart-6d55697b-fda7-449d-b208-19e23533b4c8 .tooltip text{font-family:"monospace";font-size:16px}#chart-6d55697b-fda7-449d-b208-19e23533b4c8 text.no_data{font-size:64px}
#chart-6d55697b-fda7-449d-b208-19e23533b4c8{background-color:black}#chart-6d55697b-fda7-449d-b208-19e23533b4c8 path,#chart-6d55697b-fda7-449d-b208-19e23533b4c8 line,#chart-6d55697b-fda7-449d-b208-19e23533b4c8 rect,#chart-6d55697b-fda7-449d-b208-19e23533b4c8 circle{-webkit-transition:250ms;-moz-transition:250ms;transition:250ms}#chart-6d55697b-fda7-449d-b208-19e23533b4c8 .graph &gt; .background{fill:black}#chart-6d55697b-fda7-449d-b208-19e23533b4c8 .plot &gt; .background{fill:#111}#chart-6d55697b-fda7-449d-b208-19e23533b4c8 .graph{fill:#999}#chart-6d55697b-fda7-449d-b208-19e23533b4c8 text.no_data{fill:#eee}#chart-6d55697b-fda7-449d-b208-19e23533b4c8 .title{fill:#eee}#chart-6d55697b-fda7-449d-b208-19e23533b4c8 .legends .legend text{fill:#999}#chart-6d55697b-fda7-449d-b208-19e23533b4c8 .legends .legend:hover text{fill:#eee}#chart-6d55697b-fda7-449d-b208-19e23533b4c8 .axis .line{stroke:#eee}#chart-6d55697b-fda7-449d-b208-19e23533b4c8 .axis .guide.line{stroke:#555}#chart-6d55697b-fda7-449d-b208-19e23533b4c8 .axis .major.line{stroke:#999}#chart-6d55697b-fda7-449d-b208-19e23533b4c8 .axis text.major{stroke:#eee;fill:#eee}#chart-6d55697b-fda7-449d-b208-19e23533b4c8 .axis.y .guides:hover .guide.line,#chart-6d55697b-fda7-449d-b208-19e23533b4c8 .line-graph .axis.x .guides:hover .guide.line,#chart-6d55697b-fda7-449d-b208-19e23533b4c8 .stackedline-graph .axis.x .guides:hover .guide.line,#chart-6d55697b-fda7-449d-b208-19e23533b4c8 .xy-graph .axis.x .guides:hover .guide.line{stroke:#eee}#chart-6d55697b-fda7-449d-b208-19e23533b4c8 .axis .guides:hover text{fill:#eee}#chart-6d55697b-fda7-449d-b208-19e23533b4c8 .reactive{fill-opacity:.8}#chart-6d55697b-fda7-449d-b208-19e23533b4c8 .reactive.active,#chart-6d55697b-fda7-449d-b208-19e23533b4c8 .active .reactive{fill-opacity:.4}#chart-6d55697b-fda7-449d-b208-19e23533b4c8 .series text{fill:#eee}#chart-6d55697b-fda7-449d-b208-19e23533b4c8 .tooltip rect{fill:#111;stroke:#eee}#chart-6d55697b-fda7-449d-b208-19e23533b4c8 .tooltip text{fill:#eee}#chart-6d55697b-fda7-449d-b208-19e23533b4c8 .map-element{fill:#999;stroke:#555 !important;opacity:.9;stroke-width:3;-webkit-transition:250ms;-moz-transition:250ms;-o-transition:250ms;transition:250ms}#chart-6d55697b-fda7-449d-b208-19e23533b4c8 .map-element:hover{opacity:1;stroke-width:10}#chart-6d55697b-fda7-449d-b208-19e23533b4c8 .color-0,#chart-6d55697b-fda7-449d-b208-19e23533b4c8 .color-0 a:visited{stroke:#ff5995;fill:#ff5995}#chart-6d55697b-fda7-449d-b208-19e23533b4c8 .color-1,#chart-6d55697b-fda7-449d-b208-19e23533b4c8 .color-1 a:visited{stroke:#b6e354;fill:#b6e354}#chart-6d55697b-fda7-449d-b208-19e23533b4c8 .color-2,#chart-6d55697b-fda7-449d-b208-19e23533b4c8 .color-2 a:visited{stroke:#feed6c;fill:#feed6c}#chart-6d55697b-fda7-449d-b208-19e23533b4c8 .color-3,#chart-6d55697b-fda7-449d-b208-19e23533b4c8 .color-3 a:visited{stroke:#8cedff;fill:#8cedff}#chart-6d55697b-fda7-449d-b208-19e23533b4c8 .color-4,#chart-6d55697b-fda7-449d-b208-19e23533b4c8 .color-4 a:visited{stroke:#9e6ffe;fill:#9e6ffe}#chart-6d55697b-fda7-449d-b208-19e23533b4c8 .color-5,#chart-6d55697b-fda7-449d-b208-19e23533b4c8 .color-5 a:visited{stroke:#899ca1;fill:#899ca1}#chart-6d55697b-fda7-449d-b208-19e23533b4c8 .color-6,#chart-6d55697b-fda7-449d-b208-19e23533b4c8 .color-6 a:visited{stroke:#f8f8f2;fill:#f8f8f2}#chart-6d55697b-fda7-449d-b208-19e23533b4c8 .color-7,#chart-6d55697b-fda7-449d-b208-19e23533b4c8 .color-7 a:visited{stroke:#bf4646;fill:#bf4646}#chart-6d55697b-fda7-449d-b208-19e23533b4c8 .color-8,#chart-6d55697b-fda7-449d-b208-19e23533b4c8 .color-8 a:visited{stroke:#516083;fill:#516083}#chart-6d55697b-fda7-449d-b208-19e23533b4c8 .color-9,#chart-6d55697b-fda7-449d-b208-19e23533b4c8 .color-9 a:visited{stroke:#f92672;fill:#f92672}#chart-6d55697b-fda7-449d-b208-19e23533b4c8 .color-10,#chart-6d55697b-fda7-449d-b208-19e23533b4c8 .color-10 a:visited{stroke:#82b414;fill:#82b414}#chart-6d55697b-fda7-449d-b208-19e23533b4c8 .color-11,#chart-6d55697b-fda7-449d-b208-19e23533b4c8 .color-11 a:visited{stroke:#fd971f;fill:#fd971f}#chart-6d55697b-fda7-449d-b208-19e23533b4c8 .color-12,#chart-6d55697b-fda7-449d-b208-19e23533b4c8 .color-12 a:visited{stroke:#56c2d6;fill:#56c2d6}#chart-6d55697b-fda7-449d-b208-19e23533b4c8 .color-13,#chart-6d55697b-fda7-449d-b208-19e23533b4c8 .color-13 a:visited{stroke:#808384;fill:#808384}#chart-6d55697b-fda7-449d-b208-19e23533b4c8 .color-14,#chart-6d55697b-fda7-449d-b208-19e23533b4c8 .color-14 a:visited{stroke:#8c54fe;fill:#8c54fe}#chart-6d55697b-fda7-449d-b208-19e23533b4c8 .color-15,#chart-6d55697b-fda7-449d-b208-19e23533b4c8 .color-15 a:visited{stroke:#465457;fill:#465457}
#chart-6d55697b-fda7-449d-b208-19e23533b4c8 text.no_data{text-anchor:middle}#chart-6d55697b-fda7-449d-b208-19e23533b4c8 .guide.line{fill-opacity:0}#chart-6d55697b-fda7-449d-b208-19e23533b4c8 .centered{text-anchor:middle}#chart-6d55697b-fda7-449d-b208-19e23533b4c8 .title{text-anchor:middle}#chart-6d55697b-fda7-449d-b208-19e23533b4c8 .legends .legend text{fill-opacity:1}#chart-6d55697b-fda7-449d-b208-19e23533b4c8 .axis.x text{text-anchor:middle}#chart-6d55697b-fda7-449d-b208-19e23533b4c8 .axis.x:not(.web) text[transform]{text-anchor:start}#chart-6d55697b-fda7-449d-b208-19e23533b4c8 .axis.y text{text-anchor:end}#chart-6d55697b-fda7-449d-b208-19e23533b4c8 .axis.y2 text{text-anchor:start}#chart-6d55697b-fda7-449d-b208-19e23533b4c8 .axis.y .logarithmic text:not(.major),#chart-6d55697b-fda7-449d-b208-19e23533b4c8 .axis.y2 .logarithmic text:not(.major){font-size:50%}#chart-6d55697b-fda7-449d-b208-19e23533b4c8 .axis .guide.line{stroke-dasharray:4,4}#chart-6d55697b-fda7-449d-b208-19e23533b4c8 .axis .major.guide.line{stroke-dasharray:6,6}#chart-6d55697b-fda7-449d-b208-19e23533b4c8 .axis text.major{stroke-width:0.5px}#chart-6d55697b-fda7-449d-b208-19e23533b4c8 .horizontal .axis.y .guide.line,#chart-6d55697b-fda7-449d-b208-19e23533b4c8 .horizontal .axis.y2 .guide.line,#chart-6d55697b-fda7-449d-b208-19e23533b4c8 .vertical .axis.x .guide.line{opacity:0}#chart-6d55697b-fda7-449d-b208-19e23533b4c8 .horizontal .axis.always_show .guide.line,#chart-6d55697b-fda7-449d-b208-19e23533b4c8 .vertical .axis.always_show .guide.line{opacity:1 !important}#chart-6d55697b-fda7-449d-b208-19e23533b4c8 .axis.y .guides:hover .guide.line,#chart-6d55697b-fda7-449d-b208-19e23533b4c8 .axis.y2 .guides:hover .guide.line,#chart-6d55697b-fda7-449d-b208-19e23533b4c8 .axis.x .guides:hover .guide.line{opacity:1}#chart-6d55697b-fda7-449d-b208-19e23533b4c8 .axis .guides:hover text{opacity:1}#chart-6d55697b-fda7-449d-b208-19e23533b4c8 .nofill{fill:none}#chart-6d55697b-fda7-449d-b208-19e23533b4c8 .subtle-fill{fill-opacity:.2}#chart-6d55697b-fda7-449d-b208-19e23533b4c8 .dot{stroke-width:1px;fill-opacity:1}#chart-6d55697b-fda7-449d-b208-19e23533b4c8 .dot.active{stroke-width:5px}#chart-6d55697b-fda7-449d-b208-19e23533b4c8 .series text{stroke:none}#chart-6d55697b-fda7-449d-b208-19e23533b4c8 .series text.active{opacity:1}#chart-6d55697b-fda7-449d-b208-19e23533b4c8 .tooltip rect{fill-opacity:0.8}#chart-6d55697b-fda7-449d-b208-19e23533b4c8 .tooltip text{fill-opacity:1}#chart-6d55697b-fda7-449d-b208-19e23533b4c8 .tooltip text tspan.label{fill-opacity:.8}</style><script type="text/javascript">window.config = {"inner_radius": 0, "print_values": true, "tooltip_font_size": 16, "y_title": null, "y_labels_major": null, "height": 600, "legend_at_bottom": false, "show_legend": true, "show_dots": true, "explicit_size": false, "legend_font_size": 14, "x_labels_major_count": null, "major_label_font_size": 10, "fill": true, "half_pie": false, "style": {"opacity": ".8", "foreground": "#999", "plot_background": "#111", "foreground_light": "#eee", "transition": "250ms", "foreground_dark": "#555", "opacity_hover": ".4", "colors": ["#ff5995", "#b6e354", "#feed6c", "#8cedff", "#9e6ffe", "#899ca1", "#f8f8f2", "#bf4646", "#516083", "#f92672", "#82b414", "#fd971f", "#56c2d6", "#808384", "#8c54fe", "#465457"], "background": "black", "font_family": "monospace"}, "x_title": null, "zero": 0, "show_minor_x_labels": true, "interpolation_parameters": {}, "x_labels_major": null, "rounded_bars": null, "label_font_size": 10, "show_y_labels": true, "dots_size": 2.5, "show_y_guides": true, "show_minor_y_labels": true, "x_labels": ["0", "1", "2", "3", "4", "5", "6", "7", "8", "9"], "value_font_size": 8, "x_label_rotation": 0, "disable_xml_declaration": false, "strict": false, "css": ["style.css", "graph.css"], "title_font_size": 16, "show_only_major_dots": false, "human_readable": false, "show_x_guides": false, "spacing": 10, "y_label_rotation": 0, "pretty_print": false, "tooltip_border_radius": 0, "interpolate": null, "js": ["http://kozea.github.com/pygal.js/javascripts/svg.jquery.js", "http://kozea.github.com/pygal.js/javascripts/pygal-tooltips.js"], "y_labels": null, "y_labels_major_every": null, "interpolation_precision": 250, "value_formatter": null, "no_data_font_size": 64, "logarithmic": false, "print_zeroes": false, "no_data_text": "No data", "truncate_legend": null, "x_labels_major_every": null, "title": "Cpu Load", "legend_box_size": 12, "no_prefix": false, "stroke": true, "include_x_axis": false, "range": null, "truncate_label": null, "order_min": null, "mode": null, "y_labels_major_count": null, "x_label_format": "%Y-%m-%d %H:%M:%S.%f", "margin": 20, "width": 1024}</script><script type="text/javascript" xlink:href="http://kozea.github.com/pygal.js/javascripts/svg.jquery.js" /><script type="text/javascript" xlink:href="http://kozea.github.com/pygal.js/javascripts/pygal-tooltips.js" /></defs><title>Cpu Load</title><g class="graph pie-graph vertical"><rect class="background" height="600" width="1024" x="0" y="0" /><g class="plot" transform="translate(126, 46)"><rect class="background" height="534" width="878.0" x="0" y="0" /><g class="series serie-0 color-0"><g class="slices"><g class="slice"><desc class="value">0.00%</desc><desc class="x centered">439.0</desc><desc class="y centered">13.35</desc></g><g class="slice"><desc class="value">0.00%</desc><desc class="x centered">439.0</desc><desc class="y centered">13.35</desc></g><g class="slice"><desc class="value">0.00%</desc><desc class="x centered">439.0</desc><desc class="y centered">13.35</desc></g><g class="slice"><desc class="value">0.00%</desc><desc class="x centered">439.0</desc><desc class="y centered">13.35</desc></g><g class="slice"><desc class="value">0.00%</desc><desc class="x centered">439.0</desc><desc class="y centered">13.35</desc></g><g class="slice"><desc class="value">0.00%</desc><desc class="x centered">439.0</desc><desc class="y centered">13.35</desc></g><g class="slice"><desc class="value">0.00%</desc><desc class="x centered">439.0</desc><desc class="y centered">13.35</desc></g><g class="slice"><desc class="value">0.00%</desc><desc class="x centered">439.0</desc><desc class="y centered">13.35</desc></g><g class="slice"><desc class="value">0.00%</desc><desc class="x centered">439.0</desc><desc class="y centered">13.35</desc></g><g class="slice"><desc class="value">0.00%</desc><desc class="x centered">439.0</desc><desc class="y centered">13.35</desc></g><g class="big_slice"><desc class="value">0.00%</desc><desc class="x centered">439.0</desc><desc class="y centered">146.85</desc></g></g></g><g class="series serie-1 color-1"><g class="slices"><g class="slice"><path class="slice reactive tooltip-trigger" d="M439.000000 0.000000 A267.000000 267.000000 0 0 1 439.335858 0.000211 L439.302272 26.700190 A240.300000 240.300000 0 0 0 439.000000 26.700000 z" /><desc class="value">0.02%</desc><desc class="x centered">439.159532517</desc><desc class="y centered">13.3500501688</desc></g><g class="slice"><path class="slice reactive tooltip-trigger" d="M439.335858 0.000211 A267.000000 267.000000 0 0 1 439.671715 0.000845 L439.604544 26.700760 A240.300000 240.300000 0 0 0 439.302272 26.700190 z" /><desc class="value">0.02%</desc><desc class="x centered">439.4785973</desc><desc class="y centered">13.350451519</desc></g><g class="slice"><path class="slice reactive tooltip-trigger" d="M439.671715 0.000845 A267.000000 267.000000 0 0 1 440.007571 0.001901 L439.906814 26.701711 A240.300000 240.300000 0 0 0 439.604544 26.700760 z" /><desc class="value">0.02%</desc><desc class="x centered">439.797661324</desc><desc class="y centered">13.3512542187</desc></g><g class="slice"><path class="slice reactive tooltip-trigger" d="M440.007571 0.001901 A267.000000 267.000000 0 0 1 440.343426 0.003380 L440.209084 26.703042 A240.300000 240.300000 0 0 0 439.906814 26.701711 z" /><desc class="value">0.02%</desc><desc class="x centered">440.116724087</desc><desc class="y centered">13.3524582668</desc></g><g class="slice"><path class="slice reactive tooltip-trigger" d="M440.343426 0.003380 A267.000000 267.000000 0 0 1 440.679279 0.005281 L440.511351 26.704753 A240.300000 240.300000 0 0 0 440.209084 26.703042 z" /><desc class="value">0.02%</desc><desc class="x centered">440.435785083</desc><desc class="y centered">13.3540636612</desc></g><g class="slice"><path class="slice reactive tooltip-trigger" d="M440.679279 0.005281 A267.000000 267.000000 0 0 1 441.015129 0.007604 L440.813616 26.706844 A240.300000 240.300000 0 0 0 440.511351 26.704753 z" /><desc class="value">0.02%</desc><desc class="x centered">440.754843807</desc><desc class="y centered">13.3560703994</desc></g><g class="slice"><path class="slice reactive tooltip-trigger" d="M441.015129 0.007604 A267.000000 267.000000 0 0 1 441.350975 0.010351 L441.115878 26.709315 A240.300000 240.300000 0 0 0 440.813616 26.706844 z" /><desc class="value">0.02%</desc><desc class="x centered">441.073899754</desc><desc class="y centered">13.3584784784</desc></g><g class="slice"><path class="slice reactive tooltip-trigger" d="M441.350975 0.010351 A267.000000 267.000000 0 0 1 441.686818 0.013519 L441.418136 26.712167 A240.300000 240.300000 0 0 0 441.115878 26.709315 z" /><desc class="value">0.02%</desc><desc class="x centered">441.39295242</desc><desc class="y centered">13.3612878941</desc></g><g class="slice"><path class="slice reactive tooltip-trigger" d="M441.686818 0.013519 A267.000000 267.000000 0 0 1 442.022657 0.017110 L441.720391 26.715399 A240.300000 240.300000 0 0 0 441.418136 26.712167 z" /><desc class="value">0.02%</desc><desc class="x centered">441.712001299</desc><desc class="y centered">13.3644986423</desc></g><g class="slice"><path class="slice reactive tooltip-trigger" d="M442.022657 0.017110 A267.000000 267.000000 0 0 1 442.358491 0.021123 L442.022642 26.719011 A240.300000 240.300000 0 0 0 441.720391 26.715399 z" /><desc class="value">0.02%</desc><desc class="x centered">442.031045888</desc><desc class="y centered">13.3681107179</desc></g><g class="big_slice"><path class="slice reactive tooltip-trigger" d="M439.000000 26.700000 A240.300000 240.300000 0 0 1 442.022642 26.719011 L439.000000 267.000000 A0.000000 0.000000 0 0 0 439.000000 267.000000 z" /><desc class="value">0.20%</desc><desc class="x centered">439.755675413</desc><desc class="y centered">146.852376409</desc></g></g></g><g class="series serie-2 color-2"><g class="slices"><g class="slice"><path class="slice reactive tooltip-trigger" d="M442.358491 0.021123 A267.000000 267.000000 0 0 1 443.198051 0.033005 L442.778246 26.729705 A240.300000 240.300000 0 0 0 442.022642 26.719011 z" /><desc class="value">0.05%</desc><desc class="x centered">442.589362073</desc><desc class="y centered">13.3753975264</desc></g><g class="slice"><path class="slice reactive tooltip-trigger" d="M443.198051 0.033005 A267.000000 267.000000 0 0 1 444.037570 0.047527 L443.533813 26.742774 A240.300000 240.300000 0 0 0 442.778246 26.729705 z" /><desc class="value">0.05%</desc><desc class="x centered">443.386925781</desc><desc class="y centered">13.387939202</desc></g><g class="slice"><path class="slice reactive tooltip-trigger" d="M444.037570 0.047527 A267.000000 267.000000 0 0 1 444.877040 0.064689 L444.289336 26.758220 A240.300000 240.300000 0 0 0 443.533813 26.742774 z" /><desc class="value">0.05%</desc><desc class="x centered">444.184446105</desc><desc class="y centered">13.40298894</desc></g><g class="slice"><path class="slice reactive tooltip-trigger" d="M444.877040 0.064689 A267.000000 267.000000 0 0 1 445.716451 0.084490 L445.044805 26.776041 A240.300000 240.300000 0 0 0 444.289336 26.758220 z" /><desc class="value">0.05%</desc><desc class="x centered">444.981915158</desc><desc class="y centered">13.4205465913</desc></g><g class="slice"><path class="slice reactive tooltip-trigger" d="M445.716451 0.084490 A267.000000 267.000000 0 0 1 446.555795 0.106932 L445.800216 26.796238 A240.300000 240.300000 0 0 0 445.044805 26.776041 z" /><desc class="value">0.05%</desc><desc class="x centered">445.779325053</desc><desc class="y centered">13.4406119825</desc></g><g class="slice"><path class="slice reactive tooltip-trigger" d="M446.555795 0.106932 A267.000000 267.000000 0 0 1 447.395065 0.132012 L446.555558 26.818811 A240.300000 240.300000 0 0 0 445.800216 26.796238 z" /><desc class="value">0.05%</desc><desc class="x centered">446.576667906</desc><desc class="y centered">13.463184915</desc></g><g class="slice"><path class="slice reactive tooltip-trigger" d="M447.395065 0.132012 A267.000000 267.000000 0 0 1 448.234252 0.159732 L447.310827 26.843759 A240.300000 240.300000 0 0 0 446.555558 26.818811 z" /><desc class="value">0.05%</desc><desc class="x centered">447.37393583</desc><desc class="y centered">13.4882651657</desc></g><g class="slice"><path class="slice reactive tooltip-trigger" d="M448.234252 0.159732 A267.000000 267.000000 0 0 1 449.073347 0.190091 L448.066013 26.871082 A240.300000 240.300000 0 0 0 447.310827 26.843759 z" /><desc class="value">0.05%</desc><desc class="x centered">448.171120941</desc><desc class="y centered">13.5158524864</desc></g><g class="slice"><path class="slice reactive tooltip-trigger" d="M449.073347 0.190091 A267.000000 267.000000 0 0 1 449.912343 0.223088 L448.821109 26.900779 A240.300000 240.300000 0 0 0 448.066013 26.871082 z" /><desc class="value">0.05%</desc><desc class="x centered">448.968215355</desc><desc class="y centered">13.5459466045</desc></g><g class="slice"><path class="slice reactive tooltip-trigger" d="M449.912343 0.223088 A267.000000 267.000000 0 0 1 450.751231 0.258724 L449.576108 26.932851 A240.300000 240.300000 0 0 0 448.821109 26.900779 z" /><desc class="value">0.05%</desc><desc class="x centered">449.765211191</desc><desc class="y centered">13.5785472222</desc></g><g class="big_slice"><path class="slice reactive tooltip-trigger" d="M442.022642 26.719011 A240.300000 240.300000 0 0 1 449.576108 26.932851 L439.000000 267.000000 A0.000000 0.000000 0 0 0 439.000000 267.000000 z" /><desc class="value">0.50%</desc><desc class="x centered">442.400107799</desc><desc class="y centered">146.89811922</desc></g></g></g><g class="series serie-3 color-3"><g class="slices"><g class="slice"><desc class="value">0.00%</desc><desc class="x centered">450.163669678</desc><desc class="y centered">13.5957873686</desc></g><g class="slice"><desc class="value">0.00%</desc><desc class="x centered">450.163669678</desc><desc class="y centered">13.5957873686</desc></g><g class="slice"><desc class="value">0.00%</desc><desc class="x centered">450.163669678</desc><desc class="y centered">13.5957873686</desc></g><g class="slice"><desc class="value">0.00%</desc><desc class="x centered">450.163669678</desc><desc class="y centered">13.5957873686</desc></g><g class="slice"><desc class="value">0.00%</desc><desc class="x centered">450.163669678</desc><desc class="y centered">13.5957873686</desc></g><g class="slice"><desc class="value">0.00%</desc><desc class="x centered">450.163669678</desc><desc class="y centered">13.5957873686</desc></g><g class="slice"><desc class="value">0.00%</desc><desc class="x centered">450.163669678</desc><desc class="y centered">13.5957873686</desc></g><g class="slice"><desc class="value">0.00%</desc><desc class="x centered">450.163669678</desc><desc class="y centered">13.5957873686</desc></g><g class="slice"><desc class="value">0.00%</desc><desc class="x centered">450.163669678</desc><desc class="y centered">13.5957873686</desc></g><g class="slice"><desc class="value">0.00%</desc><desc class="x centered">450.163669678</desc><desc class="y centered">13.5957873686</desc></g><g class="big_slice"><desc class="value">0.00%</desc><desc class="x centered">444.288054058</desc><desc class="y centered">146.966425596</desc></g></g></g><g class="series serie-4 color-4"><g class="slices"><g class="slice"><path class="slice reactive tooltip-trigger" d="M450.751231 0.258724 A267.000000 267.000000 0 0 1 602.387315 55.828067 L586.048583 76.945260 A240.300000 240.300000 0 0 0 449.576108 26.932851 z" /><desc class="value">9.78%</desc><desc class="x centered">526.277889124</desc><desc class="y centered">28.838515771</desc></g><g class="slice"><path class="slice reactive tooltip-trigger" d="M602.387315 55.828067 A267.000000 267.000000 0 0 1 694.247294 188.655767 L668.722565 196.490191 A240.300000 240.300000 0 0 0 586.048583 76.945260 z" /><desc class="value">9.78%</desc><desc class="x centered">647.620807918</desc><desc class="y centered">122.723595125</desc></g><g class="slice"><path class="slice reactive tooltip-trigger" d="M694.247294 188.655767 A267.000000 267.000000 0 0 1 692.723715 350.146116 L667.351343 341.831504 A240.300000 240.300000 0 0 0 668.722565 196.490191 z" /><desc class="value">9.78%</desc><desc class="x centered">692.638712106</desc><desc class="y centered">269.39295242</desc></g><g class="slice"><path class="slice reactive tooltip-trigger" d="M692.723715 350.146116 A267.000000 267.000000 0 0 1 598.373986 481.217022 L582.436588 459.795320 A240.300000 240.300000 0 0 0 667.351343 341.831504 z" /><desc class="value">9.78%</desc><desc class="x centered">644.861565793</desc><desc class="y centered">415.186835546</desc></g><g class="slice"><path class="slice reactive tooltip-trigger" d="M598.373986 481.217022 A267.000000 267.000000 0 0 1 445.716451 533.915510 L445.044805 507.223959 A240.300000 240.300000 0 0 0 582.436588 459.795320 z" /><desc class="value">9.78%</desc><desc class="x centered">521.768888048</desc><desc class="y centered">506.765789201</desc></g><g class="slice"><path class="slice reactive tooltip-trigger" d="M445.716451 533.915510 A267.000000 267.000000 0 0 1 290.601666 488.961561 L305.441500 466.765405 A240.300000 240.300000 0 0 0 445.044805 507.223959 z" /><desc class="value">9.78%</desc><desc class="x centered">368.394779356</desc><desc class="y centered">510.625173818</desc></g><g class="slice"><path class="slice reactive tooltip-trigger" d="M290.601666 488.961561 A267.000000 267.000000 0 0 1 189.779189 362.801813 L214.701270 353.221632 A240.300000 240.300000 0 0 0 305.441500 466.765405 z" /><desc class="value">9.78%</desc><desc class="x centered">240.85196022</desc><desc class="y centered">425.353013333</desc></g><g class="slice"><path class="slice reactive tooltip-trigger" d="M189.779189 362.801813 A267.000000 267.000000 0 0 1 180.135450 201.592471 L206.021905 208.133224 A240.300000 240.300000 0 0 0 214.701270 353.221632 z" /><desc class="value">9.78%</desc><desc class="x centered">185.802638648</desc><desc class="y centered">282.146574018</desc></g><g class="slice"><path class="slice reactive tooltip-trigger" d="M180.135450 201.592471 A267.000000 267.000000 0 0 1 265.198662 64.312815 L282.578796 84.581534 A240.300000 240.300000 0 0 0 206.021905 208.133224 z" /><desc class="value">9.78%</desc><desc class="x centered">223.386897093</desc><desc class="y centered">133.398681313</desc></g><g class="slice"><path class="slice reactive tooltip-trigger" d="M265.198662 64.312815 A267.000000 267.000000 0 0 1 413.848003 1.187327 L416.363203 27.768594 A240.300000 240.300000 0 0 0 282.578796 84.581534 z" /><desc class="value">9.78%</desc><desc class="x centered">339.854337867</desc><desc class="y centered">33.5295303892</desc></g><g class="big_slice"><path class="slice reactive tooltip-trigger" d="M449.576108 26.932851 A240.300000 240.300000 0 1 1 416.363203 27.768594 L439.000000 267.000000 A0.000000 0.000000 0 1 0 439.000000 267.000000 z" /><desc class="value">97.80%</desc><desc class="x centered">442.022402734</desc><desc class="y centered">387.111979343</desc></g></g></g><g class="series serie-5 color-5"><g class="slices"><g class="slice"><path class="slice reactive tooltip-trigger" d="M413.848003 1.187327 A267.000000 267.000000 0 0 1 415.854887 1.005068 L418.169398 27.604561 A240.300000 240.300000 0 0 0 416.363203 27.768594 z" /><desc class="value">0.12%</desc><desc class="x centered">416.058709228</desc><desc class="y centered">14.3895891343</desc></g><g class="slice"><path class="slice reactive tooltip-trigger" d="M415.854887 1.005068 A267.000000 267.000000 0 0 1 417.863089 0.837961 L419.976780 27.454165 A240.300000 240.300000 0 0 0 418.169398 27.604561 z" /><desc class="value">0.12%</desc><desc class="x centered">417.965888696</desc><desc class="y centered">14.2236390371</desc></g><g class="slice"><path class="slice reactive tooltip-trigger" d="M417.863089 0.837961 A267.000000 267.000000 0 0 1 419.872495 0.686015 L421.785246 27.317414 A240.300000 240.300000 0 0 0 419.976780 27.454165 z" /><desc class="value">0.12%</desc><desc class="x centered">419.874266319</desc><desc class="y centered">14.0720877184</desc></g><g class="slice"><path class="slice reactive tooltip-trigger" d="M419.872495 0.686015 A267.000000 267.000000 0 0 1 421.882991 0.549239 L423.594692 27.194315 A240.300000 240.300000 0 0 0 421.785246 27.317414 z" /><desc class="value">0.12%</desc><desc class="x centered">421.783733392</desc><desc class="y centered">13.9349438107</desc></g><g class="slice"><path class="slice reactive tooltip-trigger" d="M421.882991 0.549239 A267.000000 267.000000 0 0 1 423.894462 0.427641 L425.405016 27.084877 A240.300000 240.300000 0 0 0 423.594692 27.194315 z" /><desc class="value">0.12%</desc><desc class="x centered">423.694181147</desc><desc class="y centered">13.8122151263</desc></g><g class="slice"><path class="slice reactive tooltip-trigger" d="M423.894462 0.427641 A267.000000 267.000000 0 0 1 425.906793 0.321227 L427.216114 26.989104 A240.300000 240.300000 0 0 0 425.405016 27.084877 z" /><desc class="value">0.12%</desc><desc class="x centered">425.60550076</desc><desc class="y centered">13.7039086561</desc></g><g class="slice"><path class="slice reactive tooltip-trigger" d="M425.906793 0.321227 A267.000000 267.000000 0 0 1 427.919870 0.230004 L429.027883 26.907004 A240.300000 240.300000 0 0 0 427.216114 26.989104 z" /><desc class="value">0.12%</desc><desc class="x centered">427.517583357</desc><desc class="y centered">13.6100305694</desc></g><g class="slice"><path class="slice reactive tooltip-trigger" d="M427.919870 0.230004 A267.000000 267.000000 0 0 1 429.933579 0.153977 L430.840221 26.838579 A240.300000 240.300000 0 0 0 429.027883 26.907004 z" /><desc class="value">0.12%</desc><desc class="x centered">429.430320022</desc><desc class="y centered">13.5305862138</desc></g><g class="slice"><path class="slice reactive tooltip-trigger" d="M429.933579 0.153977 A267.000000 267.000000 0 0 1 431.947803 0.093150 L432.653023 26.783835 A240.300000 240.300000 0 0 0 430.840221 26.838579 z" /><desc class="value">0.12%</desc><desc class="x centered">431.3436018</desc><desc class="y centered">13.4655801146</desc></g><g class="slice"><path class="slice reactive tooltip-trigger" d="M431.947803 0.093150 A267.000000 267.000000 0 0 1 433.962430 0.047527 L434.466187 26.742774 A240.300000 240.300000 0 0 0 432.653023 26.783835 z" /><desc class="value">0.12%</desc><desc class="x centered">433.257319706</desc><desc class="y centered">13.4150159748</desc></g><g class="big_slice"><path class="slice reactive tooltip-trigger" d="M416.363203 27.768594 A240.300000 240.300000 0 0 1 434.466187 26.742774 L439.000000 267.000000 A0.000000 0.000000 0 0 0 439.000000 267.000000 z" /><desc class="value">1.20%</desc><desc class="x centered">432.202507841</desc><desc class="y centered">147.042438336</desc></g></g></g><g class="series serie-6 color-6"><g class="slices"><g class="slice"><desc class="value">0.00%</desc><desc class="x centered">434.214308141</desc><desc class="y centered">13.3951505719</desc></g><g class="slice"><desc class="value">0.00%</desc><desc class="x centered">434.214308141</desc><desc class="y centered">13.3951505719</desc></g><g class="slice"><desc class="value">0.00%</desc><desc class="x centered">434.214308141</desc><desc class="y centered">13.3951505719</desc></g><g class="slice"><desc class="value">0.00%</desc><desc class="x centered">434.214308141</desc><desc class="y centered">13.3951505719</desc></g><g class="slice"><desc class="value">0.00%</desc><desc class="x centered">434.214308141</desc><desc class="y centered">13.3951505719</desc></g><g class="slice"><desc class="value">0.00%</desc><desc class="x centered">434.214308141</desc><desc class="y centered">13.3951505719</desc></g><g class="slice"><desc class="value">0.00%</desc><desc class="x centered">434.214308141</desc><desc class="y centered">13.3951505719</desc></g><g class="slice"><desc class="value">0.00%</desc><desc class="x centered">434.214308141</desc><desc class="y centered">13.3951505719</desc></g><g class="slice"><desc class="value">0.00%</desc><desc class="x centered">434.214308141</desc><desc class="y centered">13.3951505719</desc></g><g class="slice"><desc class="value">0.00%</desc><desc class="x centered">434.214308141</desc><desc class="y centered">13.3951505719</desc></g><g class="big_slice"><desc class="value">0.00%</desc><desc class="x centered">436.73309333</desc><desc class="y centered">146.871387113</desc></g></g></g><g class="series serie-7 color-7"><g class="slices"><g class="slice"><path class="slice reactive tooltip-trigger" d="M433.962430 0.047527 A267.000000 267.000000 0 0 1 434.466136 0.038497 L434.919522 26.734647 A240.300000 240.300000 0 0 0 434.466187 26.742774 z" /><desc class="value">0.03%</desc><desc class="x centered">434.453566431</desc><desc class="y centered">13.390748509</desc></g><g class="slice"><path class="slice reactive tooltip-trigger" d="M434.466136 0.038497 A267.000000 267.000000 0 0 1 434.969858 0.030418 L435.372872 26.727376 A240.300000 240.300000 0 0 0 434.919522 26.734647 z" /><desc class="value">0.03%</desc><desc class="x centered">434.932094938</desc><desc class="y centered">13.3826215568</desc></g><g class="slice"><path class="slice reactive tooltip-trigger" d="M434.969858 0.030418 A267.000000 267.000000 0 0 1 435.473594 0.023289 L435.826235 26.720960 A240.300000 240.300000 0 0 0 435.372872 26.727376 z" /><desc class="value">0.03%</desc><desc class="x centered">435.410637927</desc><desc class="y centered">13.3753975264</desc></g><g class="slice"><path class="slice reactive tooltip-trigger" d="M435.473594 0.023289 A267.000000 267.000000 0 0 1 435.977343 0.017110 L436.279609 26.715399 A240.300000 240.300000 0 0 0 435.826235 26.720960 z" /><desc class="value">0.03%</desc><desc class="x centered">435.889193695</desc><desc class="y centered">13.3690764435</desc></g><g class="slice"><path class="slice reactive tooltip-trigger" d="M435.977343 0.017110 A267.000000 267.000000 0 0 1 436.481103 0.011882 L436.732992 26.710694 A240.300000 240.300000 0 0 0 436.279609 26.715399 z" /><desc class="value">0.03%</desc><desc class="x centered">436.367760538</desc><desc class="y centered">13.3636583306</desc></g><g class="slice"><path class="slice reactive tooltip-trigger" d="M436.481103 0.011882 A267.000000 267.000000 0 0 1 436.984871 0.007604 L437.186384 26.706844 A240.300000 240.300000 0 0 0 436.732992 26.710694 z" /><desc class="value">0.03%</desc><desc class="x centered">436.846336752</desc><desc class="y centered">13.3591432071</desc></g><g class="slice"><path class="slice reactive tooltip-trigger" d="M436.984871 0.007604 A267.000000 267.000000 0 0 1 437.488647 0.004278 L437.639783 26.703850 A240.300000 240.300000 0 0 0 437.186384 26.706844 z" /><desc class="value">0.03%</desc><desc class="x centered">437.324920633</desc><desc class="y centered">13.3555310891</desc></g><g class="slice"><path class="slice reactive tooltip-trigger" d="M437.488647 0.004278 A267.000000 267.000000 0 0 1 437.992429 0.001901 L438.093186 26.701711 A240.300000 240.300000 0 0 0 437.639783 26.703850 z" /><desc class="value">0.03%</desc><desc class="x centered">437.803510478</desc><desc class="y centered">13.3528219892</desc></g><g class="slice"><path class="slice reactive tooltip-trigger" d="M437.992429 0.001901 A267.000000 267.000000 0 0 1 438.496213 0.000475 L438.546592 26.700428 A240.300000 240.300000 0 0 0 438.093186 26.701711 z" /><desc class="value">0.03%</desc><desc class="x centered">438.282104583</desc><desc class="y centered">13.3510159173</desc></g><g class="slice"><path class="slice reactive tooltip-trigger" d="M438.496213 0.000475 A267.000000 267.000000 0 0 1 439.000000 0.000000 L439.000000 26.700000 A240.300000 240.300000 0 0 0 438.546592 26.700428 z" /><desc class="value">0.03%</desc><desc class="x centered">438.760701244</desc><desc class="y centered">13.3501128798</desc></g><g class="big_slice"><path class="slice reactive tooltip-trigger" d="M434.466187 26.742774 A240.300000 240.300000 0 0 1 439.000000 26.700000 L439.000000 267.000000 A0.000000 0.000000 0 0 0 439.000000 267.000000 z" /><desc class="value">0.30%</desc><desc class="x centered">437.866496222</desc><desc class="y centered">146.855346897</desc></g></g></g><g class="series serie-8 color-8"><g class="slices"><g class="slice"><desc class="value">0.00%</desc><desc class="x centered">439.0</desc><desc class="y centered">13.35</desc></g><g class="slice"><desc class="value">0.00%</desc><desc class="x centered">439.0</desc><desc class="y centered">13.35</desc></g><g class="slice"><desc class="value">0.00%</desc><desc class="x centered">439.0</desc><desc class="y centered">13.35</desc></g><g class="slice"><desc class="value">0.00%</desc><desc class="x centered">439.0</desc><desc class="y centered">13.35</desc></g><g class="slice"><desc class="value">0.00%</desc><desc class="x centered">439.0</desc><desc class="y centered">13.35</desc></g><g class="slice"><desc class="value">0.00%</desc><desc class="x centered">439.0</desc><desc class="y centered">13.35</desc></g><g class="slice"><desc class="value">0.00%</desc><desc class="x centered">439.0</desc><desc class="y centered">13.35</desc></g><g class="slice"><desc class="value">0.00%</desc><desc class="x centered">439.0</desc><desc class="y centered">13.35</desc></g><g class="slice"><desc class="value">0.00%</desc><desc class="x centered">439.0</desc><desc class="y centered">13.35</desc></g><g class="slice"><desc class="value">0.00%</desc><desc class="x centered">439.0</desc><desc class="y centered">13.35</desc></g><g class="big_slice"><desc class="value">0.00%</desc><desc class="x centered">439.0</desc><desc class="y centered">146.85</desc></g></g></g><g class="series serie-9 color-9"><g class="slices"><g class="slice"><desc class="value">0.00%</desc><desc class="x centered">439.0</desc><desc class="y centered">13.35</desc></g><g class="slice"><desc class="value">0.00%</desc><desc class="x centered">439.0</desc><desc class="y centered">13.35</desc></g><g class="slice"><desc class="value">0.00%</desc><desc class="x centered">439.0</desc><desc class="y centered">13.35</desc></g><g class="slice"><desc class="value">0.00%</desc><desc class="x centered">439.0</desc><desc class="y centered">13.35</desc></g><g class="slice"><desc class="value">0.00%</desc><desc class="x centered">439.0</desc><desc class="y centered">13.35</desc></g><g class="slice"><desc class="value">0.00%</desc><desc class="x centered">439.0</desc><desc class="y centered">13.35</desc></g><g class="slice"><desc class="value">0.00%</desc><desc class="x centered">439.0</desc><desc class="y centered">13.35</desc></g><g class="slice"><desc class="value">0.00%</desc><desc class="x centered">439.0</desc><desc class="y centered">13.35</desc></g><g class="slice"><desc class="value">0.00%</desc><desc class="x centered">439.0</desc><desc class="y centered">13.35</desc></g><g class="slice"><desc class="value">0.00%</desc><desc class="x centered">439.0</desc><desc class="y centered">13.35</desc></g><g class="big_slice"><desc class="value">0.00%</desc><desc class="x centered">439.0</desc><desc class="y centered">146.85</desc></g></g></g></g><g class="titles"><text class="title plot_title" x="512.0" y="26">Cpu Load</text></g><g class="plot overlay" transform="translate(126, 46)"><g class="series serie-0 color-0" /><g class="series serie-1 color-1" /><g class="series serie-2 color-2" /><g class="series serie-3 color-3" /><g class="series serie-4 color-4" /><g class="series serie-5 color-5" /><g class="series serie-6 color-6" /><g class="series serie-7 color-7" /><g class="series serie-8 color-8" /><g class="series serie-9 color-9" /></g><g class="plot text-overlay" transform="translate(126, 46)"><g class="series serie-0 color-0" /><g class="series serie-1 color-1" /><g class="series serie-2 color-2" /><g class="series serie-3 color-3" /><g class="series serie-4 color-4"><text class="centered" x="526.277889124" y="31.5051824377">9.78%</text><text class="centered" x="647.620807918" y="125.390261792">9.78%</text><text class="centered" x="692.638712106" y="272.059619087">9.78%</text><text class="centered" x="644.861565793" y="417.853502213">9.78%</text><text class="centered" x="521.768888048" y="509.432455868">9.78%</text><text class="centered" x="368.394779356" y="513.291840485">9.78%</text><text class="centered" x="240.85196022" y="428.019679999">9.78%</text><text class="centered" x="185.802638648" y="284.813240684">9.78%</text><text class="centered" x="223.386897093" y="136.06534798">9.78%</text><text class="centered" x="339.854337867" y="36.1961970558">9.78%</text><text class="centered" x="442.022402734" y="389.77864601">97.80%</text></g><g class="series serie-5 color-5" /><g class="series serie-6 color-6" /><g class="series serie-7 color-7" /><g class="series serie-8 color-8" /><g class="series serie-9 color-9" /></g><g class="plot tooltip-overlay" transform="translate(126, 46)"><g class="tooltip" style="opacity: 0" transform="translate(0 0)"><a><rect class="tooltip-box" height="0" rx="0" ry="0" width="0" /><text class="text"><tspan class="label" /><tspan class="value" /></text></a></g></g><g class="legends" transform="translate(10, 56)"><g class="legend reactive activate-serie" id="activate-serie-0"><rect class="color-0 reactive" height="12" width="12" x="0.0" y="1.0" /><text x="17.0" y="11.2">softirq</text></g><g class="legend reactive activate-serie" id="activate-serie-1"><rect class="color-1 reactive" height="12" width="12" x="0.0" y="22.0" /><text x="17.0" y="32.2">iowait</text></g><g class="legend reactive activate-serie" id="activate-serie-2"><rect class="color-2 reactive" height="12" width="12" x="0.0" y="43.0" /><text x="17.0" y="53.2">system</text></g><g class="legend reactive activate-serie" id="activate-serie-3"><rect class="color-3 reactive" height="12" width="12" x="0.0" y="64.0" /><text x="17.0" y="74.2">guest</text></g><g class="legend reactive activate-serie" id="activate-serie-4"><rect class="color-4 reactive" height="12" width="12" x="0.0" y="85.0" /><text x="17.0" y="95.2">idle</text></g><g class="legend reactive activate-serie" id="activate-serie-5"><rect class="color-5 reactive" height="12" width="12" x="0.0" y="106.0" /><text x="17.0" y="116.2">user</text></g><g class="legend reactive activate-serie" id="activate-serie-6"><rect class="color-6 reactive" height="12" width="12" x="0.0" y="127.0" /><text x="17.0" y="137.2">guest_nice</text></g><g class="legend reactive activate-serie" id="activate-serie-7"><rect class="color-7 reactive" height="12" width="12" x="0.0" y="148.0" /><text x="17.0" y="158.2">irq</text></g><g class="legend reactive activate-serie" id="activate-serie-8"><rect class="color-8 reactive" height="12" width="12" x="0.0" y="169.0" /><text x="17.0" y="179.2">steal</text></g><g class="legend reactive activate-serie" id="activate-serie-9"><rect class="color-9 reactive" height="12" width="12" x="0.0" y="190.0" /><text x="17.0" y="200.2">nice</text></g></g><g class="legends" transform="translate(1014, 56)" /></g></svg>