<?xml version='1.0' encoding='utf-8'?>
<svg xmlns:xlink="http://www.w3.org/1999/xlink" class="pygal-chart" id="chart-3bdcbd52-6440-445d-ae63-2cc006576c8a" viewBox="0 0 1024 600" xmlns="http://www.w3.org/2000/svg"><!--Generated with pygal 1.5.0 (etree) ©Kozea 2011-2014 on 2014-09-09--><!--http://pygal.org--><!--http://github.com/Kozea/pygal--><defs><style type="text/css">#chart-3bdcbd52-6440-445d-ae63-2cc006576c8a .title{font-family:"monospace";font-size:16px}#chart-3bdcbd52-6440-445d-ae63-2cc006576c8a .legends .legend text{font-family:"monospace";font-size:14px}#chart-3bdcbd52-6440-445d-ae63-2cc006576c8a .axis text{font-family:"monospace";font-size:10px}#chart-3bdcbd52-6440-445d-ae63-2cc006576c8a .axis text.major{font-family:"monospace";font-size:10px}#chart-3bdcbd52-6440-445d-ae63-2cc006576c8a .series text{font-family:"monospace";font-size:8px}#chart-3bdcbd52-6440-445d-ae63-2cc006576c8a .tooltip text{font-family:"monospace";font-size:16px}#chart-3bdcbd52-6440-445d-ae63-2cc006576c8a text.no_data{font-size:64px}
#chart-3bdcbd52-6440-445d-ae63-2cc006576c8a{background-color:black}#chart-3bdcbd52-6440-445d-ae63-2cc006576c8a path,#chart-3bdcbd52-6440-445d-ae63-2cc006576c8a line,#chart-3bdcbd52-6440-445d-ae63-2cc006576c8a rect,#chart-3bdcbd52-6440-445d-ae63-2cc006576c8a circle{-webkit-transition:250ms;-moz-transition:250ms;transition:250ms}#chart-3bdcbd52-6440-445d-ae63-2cc006576c8a .graph &gt; .background{fill:black}#chart-3bdcbd52-6440-445d-ae63-2cc006576c8a .plot &gt; .background{fill:#111}#chart-3bdcbd52-6440-445d-ae63-2cc006576c8a .graph{fill:#999}#chart-3bdcbd52-6440-445d-ae63-2cc006576c8a text.no_data{fill:#eee}#chart-3bdcbd52-6440-445d-ae63-2cc006576c8a .title{fill:#eee}#chart-3bdcbd52-6440-445d-ae63-2cc006576c8a .legends .legend text{fill:#999}#chart-3bdcbd52-6440-445d-ae63-2cc006576c8a .legends .legend:hover text{fill:#eee}#chart-3bdcbd52-6440-445d-ae63-2cc006576c8a .axis .line{stroke:#eee}#chart-3bdcbd52-6440-445d-ae63-2cc006576c8a .axis .guide.line{stroke:#555}#chart-3bdcbd52-6440-445d-ae63-2cc006576c8a .axis .major.line{stroke:#999}#chart-3bdcbd52-6440-445d-ae63-2cc006576c8a .axis text.major{stroke:#eee;fill:#eee}#chart-3bdcbd52-6440-445d-ae63-2cc006576c8a .axis.y .guides:hover .guide.line,#chart-3bdcbd52-6440-445d-ae63-2cc006576c8a .line-graph .axis.x .guides:hover .guide.line,#chart-3bdcbd52-6440-445d-ae63-2cc006576c8a .stackedline-graph .axis.x .guides:hover .guide.line,#chart-3bdcbd52-6440-445d-ae63-2cc006576c8a .xy-graph .axis.x .guides:hover .guide.line{stroke:#eee}#chart-3bdcbd52-6440-445d-ae63-2cc006576c8a .axis .guides:hover text{fill:#eee}#chart-3bdcbd52-6440-445d-ae63-2cc006576c8a .reactive{fill-opacity:.8}#chart-3bdcbd52-6440-445d-ae63-2cc006576c8a .reactive.active,#chart-3bdcbd52-6440-445d-ae63-2cc006576c8a .active .reactive{fill-opacity:.4}#chart-3bdcbd52-6440-445d-ae63-2cc006576c8a .series text{fill:#eee}#chart-3bdcbd52-6440-445d-ae63-2cc006576c8a .tooltip rect{fill:#111;stroke:#eee}#chart-3bdcbd52-6440-445d-ae63-2cc006576c8a .tooltip text{fill:#eee}#chart-3bdcbd52-6440-445d-ae63-2cc006576c8a .map-element{fill:#999;stroke:#555 !important;opacity:.9;stroke-width:3;-webkit-transition:250ms;-moz-transition:250ms;-o-transition:250ms;transition:250ms}#chart-3bdcbd52-6440-445d-ae63-2cc006576c8a .map-element:hover{opacity:1;stroke-width:10}#chart-3bdcbd52-6440-445d-ae63-2cc006576c8a .color-0,#chart-3bdcbd52-6440-445d-ae63-2cc006576c8a .color-0 a:visited{stroke:#ff5995;fill:#ff5995}#chart-3bdcbd52-6440-445d-ae63-2cc006576c8a .color-1,#chart-3bdcbd52-6440-445d-ae63-2cc006576c8a .color-1 a:visited{stroke:#b6e354;fill:#b6e354}#chart-3bdcbd52-6440-445d-ae63-2cc006576c8a .color-2,#chart-3bdcbd52-6440-445d-ae63-2cc006576c8a .color-2 a:visited{stroke:#feed6c;fill:#feed6c}#chart-3bdcbd52-6440-445d-ae63-2cc006576c8a .color-3,#chart-3bdcbd52-6440-445d-ae63-2cc006576c8a .color-3 a:visited{stroke:#8cedff;fill:#8cedff}#chart-3bdcbd52-6440-445d-ae63-2cc006576c8a .color-4,#chart-3bdcbd52-6440-445d-ae63-2cc006576c8a .color-4 a:visited{stroke:#9e6ffe;fill:#9e6ffe}#chart-3bdcbd52-6440-445d-ae63-2cc006576c8a .color-5,#chart-3bdcbd52-6440-445d-ae63-2cc006576c8a .color-5 a:visited{stroke:#899ca1;fill:#899ca1}#chart-3bdcbd52-6440-445d-ae63-2cc006576c8a .color-6,#chart-3bdcbd52-6440-445d-ae63-2cc006576c8a .color-6 a:visited{stroke:#f8f8f2;fill:#f8f8f2}#chart-3bdcbd52-6440-445d-ae63-2cc006576c8a .color-7,#chart-3bdcbd52-6440-445d-ae63-2cc006576c8a .color-7 a:visited{stroke:#bf4646;fill:#bf4646}#chart-3bdcbd52-6440-445d-ae63-2cc006576c8a .color-8,#chart-3bdcbd52-6440-445d-ae63-2cc006576c8a .color-8 a:visited{stroke:#516083;fill:#516083}#chart-3bdcbd52-6440-445d-ae63-2cc006576c8a .color-9,#chart-3bdcbd52-6440-445d-ae63-2cc006576c8a .color-9 a:visited{stroke:#f92672;fill:#f92672}#chart-3bdcbd52-6440-445d-ae63-2cc006576c8a .color-10,#chart-3bdcbd52-6440-445d-ae63-2cc006576c8a .color-10 a:visited{stroke:#82b414;fill:#82b414}#chart-3bdcbd52-6440-445d-ae63-2cc006576c8a .color-11,#chart-3bdcbd52-6440-445d-ae63-2cc006576c8a .color-11 a:visited{stroke:#fd971f;fill:#fd971f}#chart-3bdcbd52-6440-445d-ae63-2cc006576c8a .color-12,#chart-3bdcbd52-6440-445d-ae63-2cc006576c8a .color-12 a:visited{stroke:#56c2d6;fill:#56c2d6}#chart-3bdcbd52-6440-445d-ae63-2cc006576c8a .color-13,#chart-3bdcbd52-6440-445d-ae63-2cc006576c8a .color-13 a:visited{stroke:#808384;fill:#808384}#chart-3bdcbd52-6440-445d-ae63-2cc006576c8a .color-14,#chart-3bdcbd52-6440-445d-ae63-2cc006576c8a .color-14 a:visited{stroke:#8c54fe;fill:#8c54fe}#chart-3bdcbd52-6440-445d-ae63-2cc006576c8a .color-15,#chart-3bdcbd52-6440-445d-ae63-2cc006576c8a .color-15 a:visited{stroke:#465457;fill:#465457}
#chart-3bdcbd52-6440-445d-ae63-2cc006576c8a text.no_data{text-anchor:middle}#chart-3bdcbd52-6440-445d-ae63-2cc006576c8a .guide.line{fill-opacity:0}#chart-3bdcbd52-6440-445d-ae63-2cc006576c8a .centered{text-anchor:middle}#chart-3bdcbd52-6440-445d-ae63-2cc006576c8a .title{text-anchor:middle}#chart-3bdcbd52-6440-445d-ae63-2cc006576c8a .legends .legend text{fill-opacity:1}#chart-3bdcbd52-6440-445d-ae63-2cc006576c8a .axis.x text{text-anchor:middle}#chart-3bdcbd52-6440-445d-ae63-2cc006576c8a .axis.x:not(.web) text[transform]{text-anchor:start}#chart-3bdcbd52-6440-445d-ae63-2cc006576c8a .axis.y text{text-anchor:end}#chart-3bdcbd52-6440-445d-ae63-2cc006576c8a .axis.y2 text{text-anchor:start}#chart-3bdcbd52-6440-445d-ae63-2cc006576c8a .axis.y .logarithmic text:not(.major),#chart-3bdcbd52-6440-445d-ae63-2cc006576c8a .axis.y2 .logarithmic text:not(.major){font-size:50%}#chart-3bdcbd52-6440-445d-ae63-2cc006576c8a .axis .guide.line{stroke-dasharray:4,4}#chart-3bdcbd52-6440-445d-ae63-2cc006576c8a .axis .major.guide.line{stroke-dasharray:6,6}#chart-3bdcbd52-6440-445d-ae63-2cc006576c8a .axis text.major{stroke-width:0.5px}#chart-3bdcbd52-6440-445d-ae63-2cc006576c8a .horizontal .axis.y .guide.line,#chart-3bdcbd52-6440-445d-ae63-2cc006576c8a .horizontal .axis.y2 .guide.line,#chart-3bdcbd52-6440-445d-ae63-2cc006576c8a .vertical .axis.x .guide.line{opacity:0}#chart-3bdcbd52-6440-445d-ae63-2cc006576c8a .horizontal .axis.always_show .guide.line,#chart-3bdcbd52-6440-445d-ae63-2cc006576c8a .vertical .axis.always_show .guide.line{opacity:1 !important}#chart-3bdcbd52-6440-445d-ae63-2cc006576c8a .axis.y .guides:hover .guide.line,#chart-3bdcbd52-6440-445d-ae63-2cc006576c8a .axis.y2 .guides:hover .guide.line,#chart-3bdcbd52-6440-445d-ae63-2cc006576c8a .axis.x .guides:hover .guide.line{opacity:1}#chart-3bdcbd52-6440-445d-ae63-2cc006576c8a .axis .guides:hover text{opacity:1}#chart-3bdcbd52-6440-445d-ae63-2cc006576c8a .nofill{fill:none}#chart-3bdcbd52-6440-445d-ae63-2cc006576c8a .subtle-fill{fill-opacity:.2}#chart-3bdcbd52-6440-445d-ae63-2cc006576c8a .dot{stroke-width:1px;fill-opacity:1}#chart-3bdcbd52-6440-445d-ae63-2cc006576c8a .dot.active{stroke-width:5px}#chart-3bdcbd52-6440-445d-ae63-2cc006576c8a .series text{stroke:none}#chart-3bdcbd52-6440-445d-ae63-2cc006576c8a .series text.active{opacity:1}#chart-3bdcbd52-6440-445d-ae63-2cc006576c8a .tooltip rect{fill-opacity:0.8}#chart-3bdcbd52-6440-445d-ae63-2cc006576c8a .tooltip text{fill-opacity:1}#chart-3bdcbd52-6440-445d-ae63-2cc006576c8a .tooltip text tspan.label{fill-opacity:.8}</style><script type="text/javascript">window.config = {"inner_radius": 0, "print_values": true, "tooltip_font_size": 16, "y_title": null, "y_labels_major": null, "height": 600, "legend_at_bottom": false, "show_legend": true, "show_dots": true, "explicit_size": false, "legend_font_size": 14, "x_labels_major_count": null, "major_label_font_size": 10, "fill": true, "half_pie": false, "style": {"opacity": ".8", "foreground": "#999", "plot_background": "#111", "foreground_light": "#eee", "transition": "250ms", "foreground_dark": "#555", "opacity_hover": ".4", "colors": ["#ff5995", "#b6e354", "#feed6c", "#8cedff", "#9e6ffe", "#899ca1", "#f8f8f2", "#bf4646", "#516083", "#f92672", "#82b414", "#fd971f", "#56c2d6", "#808384", "#8c54fe", "#465457"], "background": "black", "font_family": "monospace"}, "x_title": null, "zero": 0, "show_minor_x_labels": true, "interpolation_parameters": {}, "x_labels_major": null, "rounded_bars": null, "label_font_size": 10, "show_y_labels": true, "dots_size": 2.5, "show_y_guides": true, "show_minor_y_labels": true, "x_labels": ["0", "1", "2", "3", "4", "5", "6", "7", "8", "9"], "value_font_size": 8, "x_label_rotation": 0, "disable_xml_declaration": false, "strict": false, "css": ["style.css", "graph.css"], "title_font_size": 16, "show_only_major_dots": false, "human_readable": false, "show_x_guides": false, "spacing": 10, "y_label_rotation": 0, "pretty_print": false, "tooltip_border_radius": 0, "interpolate": null, "js": ["http://kozea.github.com/pygal.js/javascripts/svg.jquery.js", "http://kozea.github.com/pygal.js/javascripts/pygal-tooltips.js"], "y_labels": null, "y_labels_major_every": null, "interpolation_precision": 250, "value_formatter": null, "no_data_font_size": 64, "logarithmic": false, "print_zeroes": false, "no_data_text": "No data", "truncate_legend": null, "x_labels_major_every": null, "title": "Virtual Memory", "legend_box_size": 12, "no_prefix": false, "stroke": true, "include_x_axis": false, "range": null, "truncate_label": null, "order_min": null, "mode": null, "y_labels_major_count": null, "x_label_format": "%Y-%m-%d %H:%M:%S.%f", "margin": 20, "width": 1024}</script><script type="text/javascript" xlink:href="http://kozea.github.com/pygal.js/javascripts/svg.jquery.js" /><script type="text/javascript" xlink:href="http://kozea.github.com/pygal.js/javascripts/pygal-tooltips.js" /></defs><title>Virtual Memory</title><g class="graph pie-graph vertical"><rect class="background" height="600" width="1024" x="0" y="0" /><g class="plot" transform="translate(117, 46)"><rect class="background" height="534" width="886.4" x="0" y="0" /><g class="series serie-0 color-0"><g class="slices"><g class="slice"><path class="slice reactive tooltip-trigger" d="M443.200000 0.000000 A267.000000 267.000000 0 0 1 468.777025 1.227887 L466.219322 27.805099 A240.300000 240.300000 0 0 0 443.200000 26.700000 z" /><desc class="value">1.53%</desc><desc class="x centered">455.363078818</desc><desc class="y centered">13.6417911066</desc></g><g class="slice"><path class="slice reactive tooltip-trigger" d="M468.777025 1.227887 A267.000000 267.000000 0 0 1 494.118801 4.900256 L489.026921 31.110231 A240.300000 240.300000 0 0 0 466.219322 27.805099 z" /><desc class="value">1.53%</desc><desc class="x centered">479.577364602</desc><desc class="y centered">15.9720934944</desc></g><g class="slice"><path class="slice reactive tooltip-trigger" d="M494.118801 4.900256 A267.000000 267.000000 0 0 1 518.992243 10.983329 L511.413019 36.584996 A240.300000 240.300000 0 0 0 489.026921 31.110231 z" /><desc class="value">1.53%</desc><desc class="x centered">503.457063796</desc><desc class="y centered">20.6112649435</desc></g><g class="slice"><path class="slice reactive tooltip-trigger" d="M518.992243 10.983329 A267.000000 267.000000 0 0 1 543.168574 19.421156 L533.171717 44.179040 A240.300000 240.300000 0 0 0 511.413019 36.584996 z" /><desc class="value">1.53%</desc><desc class="x centered">526.782539069</desc><desc class="y centered">27.5166359373</desc></g><g class="slice"><path class="slice reactive tooltip-trigger" d="M543.168574 19.421156 A267.000000 267.000000 0 0 1 566.425429 30.136128 L554.102886 53.822515 A240.300000 240.300000 0 0 0 533.171717 44.179040 z" /><desc class="value">1.53%</desc><desc class="x centered">549.339250657</desc><desc class="y centered">36.6246932287</desc></g><g class="slice"><path class="slice reactive tooltip-trigger" d="M566.425429 30.136128 A267.000000 267.000000 0 0 1 588.548897 43.029694 L574.014008 65.426724 A240.300000 240.300000 0 0 0 554.102886 53.822515 z" /><desc class="value">1.53%</desc><desc class="x centered">570.91972962</desc><desc class="y centered">47.8516640135</desc></g><g class="slice"><path class="slice reactive tooltip-trigger" d="M588.548897 43.029694 A267.000000 267.000000 0 0 1 609.335497 57.983262 L592.721947 78.884936 A240.300000 240.300000 0 0 0 574.014008 65.426724 z" /><desc class="value">1.53%</desc><desc class="x centered">591.325486075</desc><desc class="y centered">61.0942864436</desc></g><g class="slice"><path class="slice reactive tooltip-trigger" d="M609.335497 57.983262 A267.000000 267.000000 0 0 1 628.594038 74.859295 L610.054634 94.073365 A240.300000 240.300000 0 0 0 592.721947 78.884936 z" /><desc class="value">1.53%</desc><desc class="x centered">610.368834832</desc><desc class="y centered">76.230759395</desc></g><g class="slice"><path class="slice reactive tooltip-trigger" d="M628.594038 74.859295 A267.000000 267.000000 0 0 1 646.147389 93.502572 L625.852650 110.852315 A240.300000 240.300000 0 0 0 610.054634 94.073365 z" /><desc class="value">1.53%</desc><desc class="x centered">627.874621665</desc><desc class="y centered">93.1218627522</desc></g><g class="slice"><path class="slice reactive tooltip-trigger" d="M646.147389 93.502572 A267.000000 267.000000 0 0 1 661.834098 113.741620 L639.970688 129.067458 A240.300000 240.300000 0 0 0 625.852650 110.852315 z" /><desc class="value">1.53%</desc><desc class="x centered">643.681834319</desc><desc class="y centered">111.612237908</desc></g><g class="big_slice"><path class="slice reactive tooltip-trigger" d="M443.200000 26.700000 A240.300000 240.300000 0 0 1 639.970688 129.067458 L443.200000 267.000000 A0.000000 0.000000 0 0 0 443.200000 267.000000 z" /><desc class="value">15.27%</desc><desc class="x centered">498.651442847</desc><desc class="y centered">160.411257695</desc></g></g></g><g class="series serie-1 color-1"><g class="slices"><g class="slice"><path class="slice reactive tooltip-trigger" d="M661.834098 113.741620 A267.000000 267.000000 0 0 1 681.466027 146.508091 L657.639425 158.557282 A240.300000 240.300000 0 0 0 639.970688 129.067458 z" /><desc class="value">2.28%</desc><desc class="x centered">660.784930688</desc><desc class="y centered">136.634665506</desc></g><g class="slice"><path class="slice reactive tooltip-trigger" d="M681.466027 146.508091 A267.000000 267.000000 0 0 1 696.221425 181.740640 L670.919283 190.266576 A240.300000 240.300000 0 0 0 657.639425 158.557282 z" /><desc class="value">2.28%</desc><desc class="x centered">677.160859956</desc><desc class="y centered">169.017151966</desc></g><g class="slice"><path class="slice reactive tooltip-trigger" d="M696.221425 181.740640 A267.000000 267.000000 0 0 1 705.798296 218.718172 L679.538466 223.546354 A240.300000 240.300000 0 0 0 670.919283 190.266576 z" /><desc class="value">2.28%</desc><desc class="x centered">688.748370333</desc><desc class="y centered">203.405029074</desc></g><g class="slice"><path class="slice reactive tooltip-trigger" d="M705.798296 218.718172 A267.000000 267.000000 0 0 1 710.000633 256.683875 L683.320569 257.715488 A240.300000 240.300000 0 0 0 679.538466 223.546354 z" /><desc class="value">2.28%</desc><desc class="x centered">695.310303117</desc><desc class="y centered">239.094488679</desc></g><g class="slice"><path class="slice reactive tooltip-trigger" d="M710.000633 256.683875 A267.000000 267.000000 0 0 1 708.742427 294.860716 L682.188184 292.074645 A240.300000 240.300000 0 0 0 683.320569 257.715488 z" /><desc class="value">2.28%</desc><desc class="x centered">696.712356859</desc><desc class="y centered">275.355083462</desc></g><g class="slice"><path class="slice reactive tooltip-trigger" d="M708.742427 294.860716 A267.000000 267.000000 0 0 1 702.049430 332.467339 L676.164487 325.920605 A240.300000 240.300000 0 0 0 682.188184 292.074645 z" /><desc class="value">2.28%</desc><desc class="x centered">692.925836072</desc><desc class="y centered">311.444676824</desc></g><g class="slice"><path class="slice reactive tooltip-trigger" d="M702.049430 332.467339 A267.000000 267.000000 0 0 1 690.058626 368.734058 L665.372764 358.560652 A240.300000 240.300000 0 0 0 676.164487 325.920605 z" /><desc class="value">2.28%</desc><desc class="x centered">684.028238538</desc><desc class="y centered">346.62463201</desc></g><g class="slice"><path class="slice reactive tooltip-trigger" d="M690.058626 368.734058 A267.000000 267.000000 0 0 1 673.015428 402.918611 L650.033886 389.326750 A240.300000 240.300000 0 0 0 665.372764 358.560652 z" /><desc class="value">2.28%</desc><desc class="x centered">670.201669179</desc><desc class="y centered">380.174929601</desc></g><g class="slice"><path class="slice reactive tooltip-trigger" d="M673.015428 402.918611 A267.000000 267.000000 0 0 1 651.268655 434.321352 L630.461789 417.589217 A240.300000 240.300000 0 0 0 650.033886 389.326750 z" /><desc class="value">2.28%</desc><desc class="x centered">651.729112959</desc><desc class="y centered">411.408903979</desc></g><g class="slice"><path class="slice reactive tooltip-trigger" d="M651.268655 434.321352 A267.000000 267.000000 0 0 1 625.263392 462.299568 L607.057053 442.769611 A240.300000 240.300000 0 0 0 630.461789 417.589217 z" /><desc class="value">2.28%</desc><desc class="x centered">628.988643107</desc><desc class="y centered">439.687297137</desc></g><g class="big_slice"><path class="slice reactive tooltip-trigger" d="M639.970688 129.067458 A240.300000 240.300000 0 0 1 607.057053 442.769611 L443.200000 267.000000 A0.000000 0.000000 0 0 0 443.200000 267.000000 z" /><desc class="value">22.79%</desc><desc class="x centered">562.694092111</desc><desc class="y centered">279.537322301</desc></g></g></g><g class="series serie-2 color-2"><g class="slices"><g class="slice"><path class="slice reactive tooltip-trigger" d="M625.263392 462.299568 A267.000000 267.000000 0 0 1 609.371384 475.988208 L592.754245 455.089387 A240.300000 240.300000 0 0 0 607.057053 442.769611 z" /><desc class="value">1.25%</desc><desc class="x centered">608.739263623</desc><desc class="y centered">459.185001233</desc></g><g class="slice"><path class="slice reactive tooltip-trigger" d="M609.371384 475.988208 A267.000000 267.000000 0 0 1 592.453908 488.387152 L577.528517 466.248437 A240.300000 240.300000 0 0 0 592.754245 455.089387 z" /><desc class="value">1.25%</desc><desc class="x centered">593.142722927</desc><desc class="y centered">471.586173387</desc></g><g class="slice"><path class="slice reactive tooltip-trigger" d="M592.453908 488.387152 A267.000000 267.000000 0 0 1 574.615364 499.419883 L561.473828 476.177895 A240.300000 240.300000 0 0 0 577.528517 466.248437 z" /><desc class="value">1.25%</desc><desc class="x centered">576.620863864</desc><desc class="y centered">482.724814488</desc></g><g class="slice"><path class="slice reactive tooltip-trigger" d="M574.615364 499.419883 A267.000000 267.000000 0 0 1 555.965837 509.018317 L544.689254 484.816486 A240.300000 240.300000 0 0 0 561.473828 476.177895 z" /><desc class="value">1.25%</desc><desc class="x centered">559.27564523</desc><desc class="y centered">492.53218636</desc></g><g class="slice"><path class="slice reactive tooltip-trigger" d="M555.965837 509.018317 A267.000000 267.000000 0 0 1 536.620416 517.123221 L527.278374 492.110899 A240.300000 240.300000 0 0 0 544.689254 484.816486 z" /><desc class="value">1.25%</desc><desc class="x centered">541.214106895</desc><desc class="y centered">500.947766285</desc></g><g class="slice"><path class="slice reactive tooltip-trigger" d="M536.620416 517.123221 A267.000000 267.000000 0 0 1 516.698484 523.684579 L509.348635 498.016121 A240.300000 240.300000 0 0 0 527.278374 492.110899 z" /><desc class="value">1.25%</desc><desc class="x centered">522.547709241</desc><desc class="y centered">507.919620492</desc></g><g class="slice"><path class="slice reactive tooltip-trigger" d="M516.698484 523.684579 A267.000000 267.000000 0 0 1 496.322982 528.661898 L491.010683 502.495708 A240.300000 240.300000 0 0 0 509.348635 498.016121 z" /><desc class="value">1.25%</desc><desc class="x centered">503.391645324</desc><desc class="y centered">513.404724657</desc></g><g class="slice"><path class="slice reactive tooltip-trigger" d="M496.322982 528.661898 A267.000000 267.000000 0 0 1 475.619650 532.024464 L472.377685 505.522017 A240.300000 240.300000 0 0 0 491.010683 502.495708 z" /><desc class="value">1.25%</desc><desc class="x centered">483.864130003</desc><desc class="y centered">517.369229401</desc></g><g class="slice"><path class="slice reactive tooltip-trigger" d="M475.619650 532.024464 A267.000000 267.000000 0 0 1 454.716252 533.751525 L453.564626 507.076372 A240.300000 240.300000 0 0 0 472.377685 505.522017 z" /><desc class="value">1.25%</desc><desc class="x centered">464.085670417</desc><desc class="y centered">519.788669191</desc></g><g class="slice"><path class="slice reactive tooltip-trigger" d="M454.716252 533.751525 A267.000000 267.000000 0 0 1 433.741785 533.832423 L434.687606 507.149181 A240.300000 240.300000 0 0 0 453.564626 507.076372 z" /><desc class="value">1.25%</desc><desc class="x centered">444.17832232</desc><desc class="y centered">520.648113309</desc></g><g class="big_slice"><path class="slice reactive tooltip-trigger" d="M607.057053 442.769611 A240.300000 240.300000 0 0 1 434.687606 507.149181 L443.200000 267.000000 A0.000000 0.000000 0 0 0 443.200000 267.000000 z" /><desc class="value">12.51%</desc><desc class="x centered">485.239187187</desc><desc class="y centered">379.555449627</desc></g></g></g><g class="series serie-3 color-3"><g class="slices"><g class="slice"><path class="slice reactive tooltip-trigger" d="M433.741785 533.832423 A267.000000 267.000000 0 0 1 433.741785 533.832423 L434.687606 507.149181 A240.300000 240.300000 0 0 0 434.687606 507.149181 z" /><desc class="value">0.00%</desc><desc class="x centered">434.214695509</desc><desc class="y centered">520.490802206</desc></g><g class="slice"><path class="slice reactive tooltip-trigger" d="M433.741785 533.832423 A267.000000 267.000000 0 0 1 433.741784 533.832423 L434.687606 507.149181 A240.300000 240.300000 0 0 0 434.687606 507.149181 z" /><desc class="value">0.00%</desc><desc class="x centered">434.214695109</desc><desc class="y centered">520.490802192</desc></g><g class="slice"><path class="slice reactive tooltip-trigger" d="M433.741784 533.832423 A267.000000 267.000000 0 0 1 433.741784 533.832423 L434.687605 507.149181 A240.300000 240.300000 0 0 0 434.687606 507.149181 z" /><desc class="value">0.00%</desc><desc class="x centered">434.21469471</desc><desc class="y centered">520.490802178</desc></g><g class="slice"><path class="slice reactive tooltip-trigger" d="M433.741784 533.832423 A267.000000 267.000000 0 0 1 433.741783 533.832423 L434.687605 507.149181 A240.300000 240.300000 0 0 0 434.687605 507.149181 z" /><desc class="value">0.00%</desc><desc class="x centered">434.214694311</desc><desc class="y centered">520.490802164</desc></g><g class="slice"><path class="slice reactive tooltip-trigger" d="M433.741783 533.832423 A267.000000 267.000000 0 0 1 433.741783 533.832423 L434.687605 507.149181 A240.300000 240.300000 0 0 0 434.687605 507.149181 z" /><desc class="value">0.00%</desc><desc class="x centered">434.214693912</desc><desc class="y centered">520.49080215</desc></g><g class="slice"><path class="slice reactive tooltip-trigger" d="M433.741783 533.832423 A267.000000 267.000000 0 0 1 433.741782 533.832423 L434.687604 507.149181 A240.300000 240.300000 0 0 0 434.687605 507.149181 z" /><desc class="value">0.00%</desc><desc class="x centered">434.214693513</desc><desc class="y centered">520.490802136</desc></g><g class="slice"><path class="slice reactive tooltip-trigger" d="M433.741782 533.832423 A267.000000 267.000000 0 0 1 433.741782 533.832423 L434.687604 507.149181 A240.300000 240.300000 0 0 0 434.687604 507.149181 z" /><desc class="value">0.00%</desc><desc class="x centered">434.214693114</desc><desc class="y centered">520.490802121</desc></g><g class="slice"><path class="slice reactive tooltip-trigger" d="M433.741782 533.832423 A267.000000 267.000000 0 0 1 433.741782 533.832423 L434.687603 507.149181 A240.300000 240.300000 0 0 0 434.687604 507.149181 z" /><desc class="value">0.00%</desc><desc class="x centered">434.214692715</desc><desc class="y centered">520.490802107</desc></g><g class="slice"><path class="slice reactive tooltip-trigger" d="M433.741782 533.832423 A267.000000 267.000000 0 0 1 433.741781 533.832423 L434.687603 507.149181 A240.300000 240.300000 0 0 0 434.687603 507.149181 z" /><desc class="value">0.00%</desc><desc class="x centered">434.214692316</desc><desc class="y centered">520.490802093</desc></g><g class="slice"><path class="slice reactive tooltip-trigger" d="M433.741781 533.832423 A267.000000 267.000000 0 0 1 433.741781 533.832423 L434.687603 507.149181 A240.300000 240.300000 0 0 0 434.687603 507.149181 z" /><desc class="value">0.00%</desc><desc class="x centered">434.214691917</desc><desc class="y centered">520.490802079</desc></g><g class="big_slice"><path class="slice reactive tooltip-trigger" d="M434.687606 507.149181 A240.300000 240.300000 0 0 1 434.687603 507.149181 L443.200000 267.000000 A0.000000 0.000000 0 0 0 443.200000 267.000000 z" /><desc class="value">0.00%</desc><desc class="x centered">438.943802285</desc><desc class="y centered">387.074590489</desc></g></g></g><g class="series serie-4 color-4"><g class="slices"><g class="slice"><path class="slice reactive tooltip-trigger" d="M433.741781 533.832423 A267.000000 267.000000 0 0 1 429.481383 533.647332 L430.853245 506.982599 A240.300000 240.300000 0 0 0 434.687603 507.149181 z" /><desc class="value">0.25%</desc><desc class="x centered">432.190651856</desc><desc class="y centered">520.410964154</desc></g><g class="slice"><path class="slice reactive tooltip-trigger" d="M429.481383 533.647332 A267.000000 267.000000 0 0 1 425.224485 533.394221 L427.022037 506.754799 A240.300000 240.300000 0 0 0 430.853245 506.982599 z" /><desc class="value">0.25%</desc><desc class="x centered">428.1448075</desc><desc class="y centered">520.202811356</desc></g><g class="slice"><path class="slice reactive tooltip-trigger" d="M425.224485 533.394221 A267.000000 267.000000 0 0 1 420.972173 533.073155 L423.194955 506.465839 A240.300000 240.300000 0 0 0 427.022037 506.754799 z" /><desc class="value">0.25%</desc><desc class="x centered">424.102803601</desc><desc class="y centered">519.930068576</desc></g><g class="slice"><path class="slice reactive tooltip-trigger" d="M420.972173 533.073155 A267.000000 267.000000 0 0 1 416.725530 532.684216 L419.372977 506.115794 A240.300000 240.300000 0 0 0 423.194955 506.465839 z" /><desc class="value">0.25%</desc><desc class="x centered">420.065671243</desc><desc class="y centered">519.592805386</desc></g><g class="slice"><path class="slice reactive tooltip-trigger" d="M416.725530 532.684216 A267.000000 267.000000 0 0 1 412.485641 532.227503 L415.557077 505.704752 A240.300000 240.300000 0 0 0 419.372977 506.115794 z" /><desc class="value">0.25%</desc><desc class="x centered">416.034440264</desc><desc class="y centered">519.191107821</desc></g><g class="slice"><path class="slice reactive tooltip-trigger" d="M412.485641 532.227503 A267.000000 267.000000 0 0 1 408.253587 531.703132 L411.748229 505.232819 A240.300000 240.300000 0 0 0 415.557077 505.704752 z" /><desc class="value">0.25%</desc><desc class="x centered">412.010138998</desc><desc class="y centered">518.725078351</desc></g><g class="slice"><path class="slice reactive tooltip-trigger" d="M408.253587 531.703132 A267.000000 267.000000 0 0 1 404.030448 531.111238 L407.947403 504.700114 A240.300000 240.300000 0 0 0 411.748229 505.232819 z" /><desc class="value">0.25%</desc><desc class="x centered">407.993794014</desc><desc class="y centered">518.194835855</desc></g><g class="slice"><path class="slice reactive tooltip-trigger" d="M404.030448 531.111238 A267.000000 267.000000 0 0 1 399.817300 530.451972 L404.155570 504.106774 A240.300000 240.300000 0 0 0 407.947403 504.700114 z" /><desc class="value">0.25%</desc><desc class="x centered">403.986429847</desc><desc class="y centered">517.600515594</desc></g><g class="slice"><path class="slice reactive tooltip-trigger" d="M399.817300 530.451972 A267.000000 267.000000 0 0 1 395.615219 529.725501 L400.373697 503.452950 A240.300000 240.300000 0 0 0 404.155570 504.106774 z" /><desc class="value">0.25%</desc><desc class="x centered">399.989068743</desc><desc class="y centered">516.942269174</desc></g><g class="slice"><path class="slice reactive tooltip-trigger" d="M395.615219 529.725501 A267.000000 267.000000 0 0 1 391.425276 528.932010 L396.602749 502.738809 A240.300000 240.300000 0 0 0 400.373697 503.452950 z" /><desc class="value">0.25%</desc><desc class="x centered">396.002730398</desc><desc class="y centered">516.220264509</desc></g><g class="big_slice"><path class="slice reactive tooltip-trigger" d="M434.687603 507.149181 A240.300000 240.300000 0 0 1 396.602749 502.738809 L443.200000 267.000000 A0.000000 0.000000 0 0 0 443.200000 267.000000 z" /><desc class="value">2.54%</desc><desc class="x centered">429.378538574</desc><desc class="y centered">386.352376198</desc></g></g></g><g class="series serie-5 color-5"><g class="slices"><g class="slice"><path class="slice reactive tooltip-trigger" d="M391.425276 528.932010 A267.000000 267.000000 0 0 1 372.528339 524.477215 L379.595505 498.729494 A240.300000 240.300000 0 0 0 396.602749 502.738809 z" /><desc class="value">1.16%</desc><desc class="x centered">384.999487683</desc><desc class="y centered">513.882609485</desc></g><g class="slice"><path class="slice reactive tooltip-trigger" d="M372.528339 524.477215 A267.000000 267.000000 0 0 1 354.005076 518.661013 L362.924569 493.494912 A240.300000 240.300000 0 0 0 379.595505 498.729494 z" /><desc class="value">1.16%</desc><desc class="x centered">367.213132999</desc><desc class="y centered">509.000658146</desc></g><g class="slice"><path class="slice reactive tooltip-trigger" d="M354.005076 518.661013 A267.000000 267.000000 0 0 1 335.953430 511.514158 L346.678087 487.062742 A240.300000 240.300000 0 0 0 362.924569 493.494912 z" /><desc class="value">1.16%</desc><desc class="x centered">349.828557671</desc><desc class="y centered">502.839132159</desc></g><g class="slice"><path class="slice reactive tooltip-trigger" d="M335.953430 511.514158 A267.000000 267.000000 0 0 1 318.468849 503.074437 L330.941964 479.466994 A240.300000 240.300000 0 0 0 346.678087 487.062742 z" /><desc class="value">1.16%</desc><desc class="x centered">332.937682367</desc><desc class="y centered">495.430610493</desc></g><g class="slice"><path class="slice reactive tooltip-trigger" d="M318.468849 503.074437 A267.000000 267.000000 0 0 1 301.643782 493.386477 L315.799404 470.747830 A240.300000 240.300000 0 0 0 330.941964 479.466994 z" /><desc class="value">1.16%</desc><desc class="x centered">316.629817322</desc><desc class="y centered">486.81426559</desc></g><g class="slice"><path class="slice reactive tooltip-trigger" d="M301.643782 493.386477 A267.000000 267.000000 0 0 1 285.567191 482.501502 L301.330472 460.951352 A240.300000 240.300000 0 0 0 315.799404 470.747830 z" /><desc class="value">1.16%</desc><desc class="x centered">300.991190114</desc><desc class="y centered">477.035656237</desc></g><g class="slice"><path class="slice reactive tooltip-trigger" d="M285.567191 482.501502 A267.000000 267.000000 0 0 1 270.324081 470.477066 L287.611673 450.129360 A240.300000 240.300000 0 0 0 301.330472 460.951352 z" /><desc class="value">1.16%</desc><desc class="x centered">286.104489738</desc><desc class="y centered">466.146486676</desc></g><g class="slice"><path class="slice reactive tooltip-trigger" d="M270.324081 470.477066 A267.000000 267.000000 0 0 1 255.995050 457.376749 L274.715545 438.339074 A240.300000 240.300000 0 0 0 287.611673 450.129360 z" /><desc class="value">1.16%</desc><desc class="x centered">272.048429386</desc><desc class="y centered">454.20433322</desc></g><g class="slice"><path class="slice reactive tooltip-trigger" d="M255.995050 457.376749 A267.000000 267.000000 0 0 1 242.655861 443.269817 L262.710275 425.642836 A240.300000 240.300000 0 0 0 274.715545 438.339074 z" /><desc class="value">1.16%</desc><desc class="x centered">258.897330254</desc><desc class="y centered">441.272339814</desc></g><g class="slice"><path class="slice reactive tooltip-trigger" d="M242.655861 443.269817 A267.000000 267.000000 0 0 1 230.377047 428.230862 L251.659343 412.107776 A240.300000 240.300000 0 0 0 262.710275 425.642836 z" /><desc class="value">1.16%</desc><desc class="x centered">246.720728571</desc><desc class="y centered">427.418884171</desc></g><g class="big_slice"><path class="slice reactive tooltip-trigger" d="M396.602749 502.738809 A240.300000 240.300000 0 0 1 251.659343 412.107776 L443.200000 267.000000 A0.000000 0.000000 0 0 0 443.200000 267.000000 z" /><desc class="value">11.58%</desc><desc class="x centered">379.499701838</desc><desc class="y centered">368.873914787</desc></g></g></g><g class="series serie-6 color-6"><g class="slices"><g class="slice"><path class="slice reactive tooltip-trigger" d="M230.377047 428.230862 A267.000000 267.000000 0 0 1 220.889977 414.875805 L243.120980 400.088225 A240.300000 240.300000 0 0 0 251.659343 412.107776 z" /><desc class="value">0.98%</desc><desc class="x centered">236.414510205</desc><desc class="y centered">413.894804912</desc></g><g class="slice"><path class="slice reactive tooltip-trigger" d="M220.889977 414.875805 A267.000000 267.000000 0 0 1 212.239776 400.964081 L235.335799 387.567673 A240.300000 240.300000 0 0 0 243.120980 400.088225 z" /><desc class="value">0.98%</desc><desc class="x centered">227.795249758</desc><desc class="y centered">400.936985456</desc></g><g class="slice"><path class="slice reactive tooltip-trigger" d="M212.239776 400.964081 A267.000000 267.000000 0 0 1 204.459008 386.548060 L228.333107 374.593254 A240.300000 240.300000 0 0 0 235.335799 387.567673 z" /><desc class="value">0.98%</desc><desc class="x centered">219.986864157</desc><desc class="y centered">387.474970377</desc></g><g class="slice"><path class="slice reactive tooltip-trigger" d="M204.459008 386.548060 A267.000000 267.000000 0 0 1 197.576962 371.682009 L222.139265 361.213808 A240.300000 240.300000 0 0 0 228.333107 374.593254 z" /><desc class="value">0.98%</desc><desc class="x centered">213.018747478</desc><desc class="y centered">373.559436408</desc></g><g class="slice"><path class="slice reactive tooltip-trigger" d="M197.576962 371.682009 A267.000000 267.000000 0 0 1 191.619545 356.421890 L216.777590 347.479701 A240.300000 240.300000 0 0 0 222.139265 361.213808 z" /><desc class="value">0.98%</desc><desc class="x centered">206.917130668</desc><desc class="y centered">359.242767522</desc></g><g class="slice"><path class="slice reactive tooltip-trigger" d="M191.619545 356.421890 A267.000000 267.000000 0 0 1 186.609183 340.825150 L212.268265 333.442635 A240.300000 240.300000 0 0 0 216.777590 347.479701 z" /><desc class="value">0.98%</desc><desc class="x centered">201.704982799</desc><desc class="y centered">344.578857734</desc></g><g class="slice"><path class="slice reactive tooltip-trigger" d="M186.609183 340.825150 A267.000000 267.000000 0 0 1 182.564739 324.950500 L208.628265 319.155450 A240.300000 240.300000 0 0 0 212.268265 333.442635 z" /><desc class="value">0.98%</desc><desc class="x centered">197.401924608</desc><desc class="y centered">329.622908219</desc></g><g class="slice"><path class="slice reactive tooltip-trigger" d="M182.564739 324.950500 A267.000000 267.000000 0 0 1 179.501436 308.857700 L205.871292 304.671930 A240.300000 240.300000 0 0 0 208.628265 319.155450 z" /><desc class="value">0.98%</desc><desc class="x centered">194.024154631</desc><desc class="y centered">314.431219515</desc></g><g class="slice"><path class="slice reactive tooltip-trigger" d="M179.501436 308.857700 A267.000000 267.000000 0 0 1 177.430806 292.607330 L204.007725 290.046597 A240.300000 240.300000 0 0 0 205.871292 304.671930 z" /><desc class="value">0.98%</desc><desc class="x centered">191.584388226</desc><desc class="y centered">299.060979583</desc></g><g class="slice"><path class="slice reactive tooltip-trigger" d="M177.430806 292.607330 A267.000000 267.000000 0 0 1 176.360644 276.260564 L203.044580 275.334507 A240.300000 240.300000 0 0 0 204.007725 290.046597 z" /><desc class="value">0.98%</desc><desc class="x centered">190.09180971</desc><desc class="y centered">283.570048524</desc></g><g class="big_slice"><path class="slice reactive tooltip-trigger" d="M251.659343 412.107776 A240.300000 240.300000 0 0 1 203.044580 275.334507 L443.200000 267.000000 A0.000000 0.000000 0 0 0 443.200000 267.000000 z" /><desc class="value">9.77%</desc><desc class="x centered">329.988795091</desc><desc class="y centered">307.239850685</desc></g></g></g><g class="series serie-7 color-7"><g class="slices"><g class="slice"><path class="slice reactive tooltip-trigger" d="M176.360644 276.260564 A267.000000 267.000000 0 0 1 178.265464 233.853478 L204.758918 237.168131 A240.300000 240.300000 0 0 0 203.044580 275.334507 z" /><desc class="value">2.53%</desc><desc class="x centered">189.80549336</desc><desc class="y centered">255.618150206</desc></g><g class="slice"><path class="slice reactive tooltip-trigger" d="M178.265464 233.853478 A267.000000 267.000000 0 0 1 186.867099 192.284246 L212.500389 199.755821 A240.300000 240.300000 0 0 0 204.758918 237.168131 z" /><desc class="value">2.53%</desc><desc class="x centered">194.811903164</desc><desc class="y centered">215.602764176</desc></g><g class="slice"><path class="slice reactive tooltip-trigger" d="M186.867099 192.284246 A267.000000 267.000000 0 0 1 201.948122 152.603622 L226.073310 164.043259 A240.300000 240.300000 0 0 0 212.500389 199.755821 z" /><desc class="value">2.53%</desc><desc class="x centered">206.096878657</desc><desc class="y centered">176.886558443</desc></g><g class="slice"><path class="slice reactive tooltip-trigger" d="M201.948122 152.603622 A267.000000 267.000000 0 0 1 223.127327 115.814622 L245.134594 130.933160 A240.300000 240.300000 0 0 0 226.073310 164.043259 z" /><desc class="value">2.53%</desc><desc class="x centered">223.375166797</desc><desc class="y centered">140.448171854</desc></g><g class="slice"><path class="slice reactive tooltip-trigger" d="M223.127327 115.814622 A267.000000 267.000000 0 0 1 249.869362 82.847172 L269.202425 101.262454 A240.300000 240.300000 0 0 0 245.134594 130.933160 z" /><desc class="value">2.53%</desc><desc class="x centered">246.210020138</desc><desc class="y centered">107.208666274</desc></g><g class="slice"><path class="slice reactive tooltip-trigger" d="M249.869362 82.847172 A267.000000 267.000000 0 0 1 281.498261 54.534596 L297.668435 75.781137 A240.300000 240.300000 0 0 0 269.202425 101.262454 z" /><desc class="value">2.53%</desc><desc class="x centered">274.024236598</desc><desc class="y centered">78.0082446846</desc></g><g class="slice"><path class="slice reactive tooltip-trigger" d="M281.498261 54.534596 A267.000000 267.000000 0 0 1 317.214535 31.592561 L329.813081 55.133304 A240.300000 240.300000 0 0 0 297.668435 75.781137 z" /><desc class="value">2.53%</desc><desc class="x centered">306.114749534</desc><desc class="y centered">53.5850131676</desc></g><g class="slice"><path class="slice reactive tooltip-trigger" d="M317.214535 31.592561 A267.000000 267.000000 0 0 1 356.115373 14.600975 L364.823836 39.840878 A240.300000 240.300000 0 0 0 329.813081 55.133304 z" /><desc class="value">2.53%</desc><desc class="x centered">341.670399331</desc><desc class="y centered">34.5563236224</desc></g><g class="slice"><path class="slice reactive tooltip-trigger" d="M356.115373 14.600975 A267.000000 267.000000 0 0 1 397.217471 3.989341 L401.815724 30.290406 A240.300000 240.300000 0 0 0 364.823836 39.840878 z" /><desc class="value">2.53%</desc><desc class="x centered">379.792437272</desc><desc class="y centered">21.4031688133</desc></g><g class="slice"><path class="slice reactive tooltip-trigger" d="M397.217471 3.989341 A267.000000 267.000000 0 0 1 439.481880 0.025890 L439.853692 26.723301 A240.300000 240.300000 0 0 0 401.815724 30.290406 z" /><desc class="value">2.53%</desc><desc class="x centered">419.517243434</desc><desc class="y centered">14.4580241991</desc></g><g class="big_slice"><path class="slice reactive tooltip-trigger" d="M203.044580 275.334507 A240.300000 240.300000 0 0 1 439.853692 26.723301 L443.200000 267.000000 A0.000000 0.000000 0 0 0 443.200000 267.000000 z" /><desc class="value">25.33%</desc><desc class="x centered">356.20121268</desc><desc class="y centered">184.131227204</desc></g></g></g><g class="series serie-8 color-8"><g class="slices"><g class="slice"><path class="slice reactive tooltip-trigger" d="M439.481880 0.025890 A267.000000 267.000000 0 0 1 439.853671 0.020971 L440.188304 26.718874 A240.300000 240.300000 0 0 0 439.853692 26.723301 z" /><desc class="value">0.02%</desc><desc class="x centered">439.84438576</desc><desc class="y centered">13.3721972002</desc></g><g class="slice"><path class="slice reactive tooltip-trigger" d="M439.853671 0.020971 A267.000000 267.000000 0 0 1 440.225469 0.016569 L440.522922 26.714913 A240.300000 240.300000 0 0 0 440.188304 26.718874 z" /><desc class="value">0.02%</desc><desc class="x centered">440.197590843</desc><desc class="y centered">13.3677701094</desc></g><g class="slice"><path class="slice reactive tooltip-trigger" d="M440.225469 0.016569 A267.000000 267.000000 0 0 1 440.597273 0.012686 L440.857546 26.711417 A240.300000 240.300000 0 0 0 440.522922 26.714913 z" /><desc class="value">0.02%</desc><desc class="x centered">440.550801749</desc><desc class="y centered">13.3638348961</desc></g><g class="slice"><path class="slice reactive tooltip-trigger" d="M440.597273 0.012686 A267.000000 267.000000 0 0 1 440.969082 0.009320 L441.192173 26.708388 A240.300000 240.300000 0 0 0 440.857546 26.711417 z" /><desc class="value">0.02%</desc><desc class="x centered">440.904017793</desc><desc class="y centered">13.3603915677</desc></g><g class="slice"><path class="slice reactive tooltip-trigger" d="M440.969082 0.009320 A267.000000 267.000000 0 0 1 441.340895 0.006472 L441.526805 26.705825 A240.300000 240.300000 0 0 0 441.192173 26.708388 z" /><desc class="value">0.02%</desc><desc class="x centered">441.25723829</desc><desc class="y centered">13.3574401309</desc></g><g class="slice"><path class="slice reactive tooltip-trigger" d="M441.340895 0.006472 A267.000000 267.000000 0 0 1 441.712711 0.004142 L441.861440 26.703728 A240.300000 240.300000 0 0 0 441.526805 26.705825 z" /><desc class="value">0.02%</desc><desc class="x centered">441.610462554</desc><desc class="y centered">13.3549805916</desc></g><g class="slice"><path class="slice reactive tooltip-trigger" d="M441.712711 0.004142 A267.000000 267.000000 0 0 1 442.084531 0.002330 L442.196078 26.702097 A240.300000 240.300000 0 0 0 441.861440 26.703728 z" /><desc class="value">0.02%</desc><desc class="x centered">441.963689901</desc><desc class="y centered">13.3530129543</desc></g><g class="slice"><path class="slice reactive tooltip-trigger" d="M442.084531 0.002330 A267.000000 267.000000 0 0 1 442.456353 0.001036 L442.530718 26.700932 A240.300000 240.300000 0 0 0 442.196078 26.702097 z" /><desc class="value">0.02%</desc><desc class="x centered">442.316919645</desc><desc class="y centered">13.3515372231</desc></g><g class="slice"><path class="slice reactive tooltip-trigger" d="M442.456353 0.001036 A267.000000 267.000000 0 0 1 442.828176 0.000259 L442.865358 26.700233 A240.300000 240.300000 0 0 0 442.530718 26.700932 z" /><desc class="value">0.02%</desc><desc class="x centered">442.670151102</desc><desc class="y centered">13.3505534007</desc></g><g class="slice"><path class="slice reactive tooltip-trigger" d="M442.828176 0.000259 A267.000000 267.000000 0 0 1 443.200000 0.000000 L443.200000 26.700000 A240.300000 240.300000 0 0 0 442.865358 26.700233 z" /><desc class="value">0.02%</desc><desc class="x centered">443.023383586</desc><desc class="y centered">13.350061489</desc></g><g class="big_slice"><path class="slice reactive tooltip-trigger" d="M439.853692 26.723301 A240.300000 240.300000 0 0 1 443.200000 26.700000 L443.200000 267.000000 A0.000000 0.000000 0 0 0 443.200000 267.000000 z" /><desc class="value">0.22%</desc><desc class="x centered">442.363402629</desc><desc class="y centered">146.852912624</desc></g></g></g></g><g class="titles"><text class="title plot_title" x="512.0" y="26">Virtual Memory</text></g><g class="plot overlay" transform="translate(117, 46)"><g class="series serie-0 color-0" /><g class="series serie-1 color-1" /><g class="series serie-2 color-2" /><g class="series serie-3 color-3" /><g class="series serie-4 color-4" /><g class="series serie-5 color-5" /><g class="series serie-6 color-6" /><g class="series serie-7 color-7" /><g class="series serie-8 color-8" /></g><g class="plot text-overlay" transform="translate(117, 46)"><g class="series serie-0 color-0"><text class="centered" x="498.651442847" y="163.077924361">15.27%</text></g><g class="series serie-1 color-1"><text class="centered" x="562.694092111" y="282.203988968">22.79%</text></g><g class="series serie-2 color-2"><text class="centered" x="485.239187187" y="382.222116293">12.51%</text></g><g class="series serie-3 color-3" /><g class="series serie-4 color-4" /><g class="series serie-5 color-5"><text class="centered" x="379.499701838" y="371.540581454">11.58%</text></g><g class="series serie-6 color-6"><text class="centered" x="329.988795091" y="309.906517352">9.77%</text></g><g class="series serie-7 color-7"><text class="centered" x="356.20121268" y="186.79789387">25.33%</text></g><g class="series serie-8 color-8" /></g><g class="plot tooltip-overlay" transform="translate(117, 46)"><g class="tooltip" style="opacity: 0" transform="translate(0 0)"><a><rect class="tooltip-box" height="0" rx="0" ry="0" width="0" /><text class="text"><tspan class="label" /><tspan class="value" /></text></a></g></g><g class="legends" transform="translate(10, 56)"><g class="legend reactive activate-serie" id="activate-serie-0"><rect class="color-0 reactive" height="12" width="12" x="0.0" y="1.0" /><text x="17.0" y="11.2">available</text></g><g class="legend reactive activate-serie" id="activate-serie-1"><rect class="color-1 reactive" height="12" width="12" x="0.0" y="22.0" /><text x="17.0" y="32.2">used</text></g><g class="legend reactive activate-serie" id="activate-serie-2"><rect class="color-2 reactive" height="12" width="12" x="0.0" y="43.0" /><text x="17.0" y="53.2">cached</text></g><g class="legend reactive activate-serie" id="activate-serie-3"><rect class="color-3 reactive" height="12" width="12" x="0.0" y="64.0" /><text x="17.0" y="74.2">percent</text></g><g class="legend reactive activate-serie" id="activate-serie-4"><rect class="color-4 reactive" height="12" width="12" x="0.0" y="85.0" /><text x="17.0" y="95.2">free</text></g><g class="legend reactive activate-serie" id="activate-serie-5"><rect class="color-5 reactive" height="12" width="12" x="0.0" y="106.0" /><text x="17.0" y="116.2">inactive</text></g><g class="legend reactive activate-serie" id="activate-serie-6"><rect class="color-6 reactive" height="12" width="12" x="0.0" y="127.0" /><text x="17.0" y="137.2">active</text></g><g class="legend reactive activate-serie" id="activate-serie-7"><rect class="color-7 reactive" height="12" width="12" x="0.0" y="148.0" /><text x="17.0" y="158.2">total</text></g><g class="legend reactive activate-serie" id="activate-serie-8"><rect class="color-8 reactive" height="12" width="12" x="0.0" y="169.0" /><text x="17.0" y="179.2">buffers</text></g></g><g class="legends" transform="translate(1014, 56)" /></g></svg>