<?xml version='1.0' encoding='utf-8'?>
<svg xmlns:xlink="http://www.w3.org/1999/xlink" class="pygal-chart" id="chart-a5a39168-663b-477f-a8de-480a0d6cd9c9" viewBox="0 0 1024 600" xmlns="http://www.w3.org/2000/svg"><!--Generated with pygal 1.5.0 (etree) ©Kozea 2011-2014 on 2014-09-09--><!--http://pygal.org--><!--http://github.com/Kozea/pygal--><defs><style type="text/css">#chart-a5a39168-663b-477f-a8de-480a0d6cd9c9 .title{font-family:"monospace";font-size:16px}#chart-a5a39168-663b-477f-a8de-480a0d6cd9c9 .legends .legend text{font-family:"monospace";font-size:14px}#chart-a5a39168-663b-477f-a8de-480a0d6cd9c9 .axis text{font-family:"monospace";font-size:10px}#chart-a5a39168-663b-477f-a8de-480a0d6cd9c9 .axis text.major{font-family:"monospace";font-size:10px}#chart-a5a39168-663b-477f-a8de-480a0d6cd9c9 .series text{font-family:"monospace";font-size:8px}#chart-a5a39168-663b-477f-a8de-480a0d6cd9c9 .tooltip text{font-family:"monospace";font-size:16px}#chart-a5a39168-663b-477f-a8de-480a0d6cd9c9 text.no_data{font-size:64px}
#chart-a5a39168-663b-477f-a8de-480a0d6cd9c9{background-color:black}#chart-a5a39168-663b-477f-a8de-480a0d6cd9c9 path,#chart-a5a39168-663b-477f-a8de-480a0d6cd9c9 line,#chart-a5a39168-663b-477f-a8de-480a0d6cd9c9 rect,#chart-a5a39168-663b-477f-a8de-480a0d6cd9c9 circle{-webkit-transition:250ms;-moz-transition:250ms;transition:250ms}#chart-a5a39168-663b-477f-a8de-480a0d6cd9c9 .graph &gt; .background{fill:black}#chart-a5a39168-663b-477f-a8de-480a0d6cd9c9 .plot &gt; .background{fill:#111}#chart-a5a39168-663b-477f-a8de-480a0d6cd9c9 .graph{fill:#999}#chart-a5a39168-663b-477f-a8de-480a0d6cd9c9 text.no_data{fill:#eee}#chart-a5a39168-663b-477f-a8de-480a0d6cd9c9 .title{fill:#eee}#chart-a5a39168-663b-477f-a8de-480a0d6cd9c9 .legends .legend text{fill:#999}#chart-a5a39168-663b-477f-a8de-480a0d6cd9c9 .legends .legend:hover text{fill:#eee}#chart-a5a39168-663b-477f-a8de-480a0d6cd9c9 .axis .line{stroke:#eee}#chart-a5a39168-663b-477f-a8de-480a0d6cd9c9 .axis .guide.line{stroke:#555}#chart-a5a39168-663b-477f-a8de-480a0d6cd9c9 .axis .major.line{stroke:#999}#chart-a5a39168-663b-477f-a8de-480a0d6cd9c9 .axis text.major{stroke:#eee;fill:#eee}#chart-a5a39168-663b-477f-a8de-480a0d6cd9c9 .axis.y .guides:hover .guide.line,#chart-a5a39168-663b-477f-a8de-480a0d6cd9c9 .line-graph .axis.x .guides:hover .guide.line,#chart-a5a39168-663b-477f-a8de-480a0d6cd9c9 .stackedline-graph .axis.x .guides:hover .guide.line,#chart-a5a39168-663b-477f-a8de-480a0d6cd9c9 .xy-graph .axis.x .guides:hover .guide.line{stroke:#eee}#chart-a5a39168-663b-477f-a8de-480a0d6cd9c9 .axis .guides:hover text{fill:#eee}#chart-a5a39168-663b-477f-a8de-480a0d6cd9c9 .reactive{fill-opacity:.8}#chart-a5a39168-663b-477f-a8de-480a0d6cd9c9 .reactive.active,#chart-a5a39168-663b-477f-a8de-480a0d6cd9c9 .active .reactive{fill-opacity:.4}#chart-a5a39168-663b-477f-a8de-480a0d6cd9c9 .series text{fill:#eee}#chart-a5a39168-663b-477f-a8de-480a0d6cd9c9 .tooltip rect{fill:#111;stroke:#eee}#chart-a5a39168-663b-477f-a8de-480a0d6cd9c9 .tooltip text{fill:#eee}#chart-a5a39168-663b-477f-a8de-480a0d6cd9c9 .map-element{fill:#999;stroke:#555 !important;opacity:.9;stroke-width:3;-webkit-transition:250ms;-moz-transition:250ms;-o-transition:250ms;transition:250ms}#chart-a5a39168-663b-477f-a8de-480a0d6cd9c9 .map-element:hover{opacity:1;stroke-width:10}#chart-a5a39168-663b-477f-a8de-480a0d6cd9c9 .color-0,#chart-a5a39168-663b-477f-a8de-480a0d6cd9c9 .color-0 a:visited{stroke:#ff5995;fill:#ff5995}#chart-a5a39168-663b-477f-a8de-480a0d6cd9c9 .color-1,#chart-a5a39168-663b-477f-a8de-480a0d6cd9c9 .color-1 a:visited{stroke:#b6e354;fill:#b6e354}#chart-a5a39168-663b-477f-a8de-480a0d6cd9c9 .color-2,#chart-a5a39168-663b-477f-a8de-480a0d6cd9c9 .color-2 a:visited{stroke:#feed6c;fill:#feed6c}#chart-a5a39168-663b-477f-a8de-480a0d6cd9c9 .color-3,#chart-a5a39168-663b-477f-a8de-480a0d6cd9c9 .color-3 a:visited{stroke:#8cedff;fill:#8cedff}#chart-a5a39168-663b-477f-a8de-480a0d6cd9c9 .color-4,#chart-a5a39168-663b-477f-a8de-480a0d6cd9c9 .color-4 a:visited{stroke:#9e6ffe;fill:#9e6ffe}#chart-a5a39168-663b-477f-a8de-480a0d6cd9c9 .color-5,#chart-a5a39168-663b-477f-a8de-480a0d6cd9c9 .color-5 a:visited{stroke:#899ca1;fill:#899ca1}#chart-a5a39168-663b-477f-a8de-480a0d6cd9c9 .color-6,#chart-a5a39168-663b-477f-a8de-480a0d6cd9c9 .color-6 a:visited{stroke:#f8f8f2;fill:#f8f8f2}#chart-a5a39168-663b-477f-a8de-480a0d6cd9c9 .color-7,#chart-a5a39168-663b-477f-a8de-480a0d6cd9c9 .color-7 a:visited{stroke:#bf4646;fill:#bf4646}#chart-a5a39168-663b-477f-a8de-480a0d6cd9c9 .color-8,#chart-a5a39168-663b-477f-a8de-480a0d6cd9c9 .color-8 a:visited{stroke:#516083;fill:#516083}#chart-a5a39168-663b-477f-a8de-480a0d6cd9c9 .color-9,#chart-a5a39168-663b-477f-a8de-480a0d6cd9c9 .color-9 a:visited{stroke:#f92672;fill:#f92672}#chart-a5a39168-663b-477f-a8de-480a0d6cd9c9 .color-10,#chart-a5a39168-663b-477f-a8de-480a0d6cd9c9 .color-10 a:visited{stroke:#82b414;fill:#82b414}#chart-a5a39168-663b-477f-a8de-480a0d6cd9c9 .color-11,#chart-a5a39168-663b-477f-a8de-480a0d6cd9c9 .color-11 a:visited{stroke:#fd971f;fill:#fd971f}#chart-a5a39168-663b-477f-a8de-480a0d6cd9c9 .color-12,#chart-a5a39168-663b-477f-a8de-480a0d6cd9c9 .color-12 a:visited{stroke:#56c2d6;fill:#56c2d6}#chart-a5a39168-663b-477f-a8de-480a0d6cd9c9 .color-13,#chart-a5a39168-663b-477f-a8de-480a0d6cd9c9 .color-13 a:visited{stroke:#808384;fill:#808384}#chart-a5a39168-663b-477f-a8de-480a0d6cd9c9 .color-14,#chart-a5a39168-663b-477f-a8de-480a0d6cd9c9 .color-14 a:visited{stroke:#8c54fe;fill:#8c54fe}#chart-a5a39168-663b-477f-a8de-480a0d6cd9c9 .color-15,#chart-a5a39168-663b-477f-a8de-480a0d6cd9c9 .color-15 a:visited{stroke:#465457;fill:#465457}
#chart-a5a39168-663b-477f-a8de-480a0d6cd9c9 text.no_data{text-anchor:middle}#chart-a5a39168-663b-477f-a8de-480a0d6cd9c9 .guide.line{fill-opacity:0}#chart-a5a39168-663b-477f-a8de-480a0d6cd9c9 .centered{text-anchor:middle}#chart-a5a39168-663b-477f-a8de-480a0d6cd9c9 .title{text-anchor:middle}#chart-a5a39168-663b-477f-a8de-480a0d6cd9c9 .legends .legend text{fill-opacity:1}#chart-a5a39168-663b-477f-a8de-480a0d6cd9c9 .axis.x text{text-anchor:middle}#chart-a5a39168-663b-477f-a8de-480a0d6cd9c9 .axis.x:not(.web) text[transform]{text-anchor:start}#chart-a5a39168-663b-477f-a8de-480a0d6cd9c9 .axis.y text{text-anchor:end}#chart-a5a39168-663b-477f-a8de-480a0d6cd9c9 .axis.y2 text{text-anchor:start}#chart-a5a39168-663b-477f-a8de-480a0d6cd9c9 .axis.y .logarithmic text:not(.major),#chart-a5a39168-663b-477f-a8de-480a0d6cd9c9 .axis.y2 .logarithmic text:not(.major){font-size:50%}#chart-a5a39168-663b-477f-a8de-480a0d6cd9c9 .axis .guide.line{stroke-dasharray:4,4}#chart-a5a39168-663b-477f-a8de-480a0d6cd9c9 .axis .major.guide.line{stroke-dasharray:6,6}#chart-a5a39168-663b-477f-a8de-480a0d6cd9c9 .axis text.major{stroke-width:0.5px}#chart-a5a39168-663b-477f-a8de-480a0d6cd9c9 .horizontal .axis.y .guide.line,#chart-a5a39168-663b-477f-a8de-480a0d6cd9c9 .horizontal .axis.y2 .guide.line,#chart-a5a39168-663b-477f-a8de-480a0d6cd9c9 .vertical .axis.x .guide.line{opacity:0}#chart-a5a39168-663b-477f-a8de-480a0d6cd9c9 .horizontal .axis.always_show .guide.line,#chart-a5a39168-663b-477f-a8de-480a0d6cd9c9 .vertical .axis.always_show .guide.line{opacity:1 !important}#chart-a5a39168-663b-477f-a8de-480a0d6cd9c9 .axis.y .guides:hover .guide.line,#chart-a5a39168-663b-477f-a8de-480a0d6cd9c9 .axis.y2 .guides:hover .guide.line,#chart-a5a39168-663b-477f-a8de-480a0d6cd9c9 .axis.x .guides:hover .guide.line{opacity:1}#chart-a5a39168-663b-477f-a8de-480a0d6cd9c9 .axis .guides:hover text{opacity:1}#chart-a5a39168-663b-477f-a8de-480a0d6cd9c9 .nofill{fill:none}#chart-a5a39168-663b-477f-a8de-480a0d6cd9c9 .subtle-fill{fill-opacity:.2}#chart-a5a39168-663b-477f-a8de-480a0d6cd9c9 .dot{stroke-width:1px;fill-opacity:1}#chart-a5a39168-663b-477f-a8de-480a0d6cd9c9 .dot.active{stroke-width:5px}#chart-a5a39168-663b-477f-a8de-480a0d6cd9c9 .series text{stroke:none}#chart-a5a39168-663b-477f-a8de-480a0d6cd9c9 .series text.active{opacity:1}#chart-a5a39168-663b-477f-a8de-480a0d6cd9c9 .tooltip rect{fill-opacity:0.8}#chart-a5a39168-663b-477f-a8de-480a0d6cd9c9 .tooltip text{fill-opacity:1}#chart-a5a39168-663b-477f-a8de-480a0d6cd9c9 .tooltip text tspan.label{fill-opacity:.8}</style><script type="text/javascript">window.config = {"inner_radius": 0, "print_values": true, "tooltip_font_size": 16, "y_title": null, "y_labels_major": null, "height": 600, "legend_at_bottom": false, "show_legend": true, "show_dots": true, "explicit_size": false, "legend_font_size": 14, "x_labels_major_count": null, "major_label_font_size": 10, "fill": true, "half_pie": false, "style": {"opacity": ".8", "foreground": "#999", "plot_background": "#111", "foreground_light": "#eee", "transition": "250ms", "foreground_dark": "#555", "opacity_hover": ".4", "colors": ["#ff5995", "#b6e354", "#feed6c", "#8cedff", "#9e6ffe", "#899ca1", "#f8f8f2", "#bf4646", "#516083", "#f92672", "#82b414", "#fd971f", "#56c2d6", "#808384", "#8c54fe", "#465457"], "background": "black", "font_family": "monospace"}, "x_title": null, "zero": 0, "show_minor_x_labels": true, "interpolation_parameters": {}, "x_labels_major": null, "rounded_bars": null, "label_font_size": 10, "show_y_labels": true, "dots_size": 2.5, "show_y_guides": true, "show_minor_y_labels": true, "x_labels": ["0", "1", "2", "3", "4", "5", "6", "7", "8", "9"], "value_font_size": 8, "x_label_rotation": 0, "disable_xml_declaration": false, "strict": false, "css": ["style.css", "graph.css"], "title_font_size": 16, "show_only_major_dots": false, "human_readable": false, "show_x_guides": false, "spacing": 10, "y_label_rotation": 0, "pretty_print": false, "tooltip_border_radius": 0, "interpolate": null, "js": ["http://kozea.github.com/pygal.js/javascripts/svg.jquery.js", "http://kozea.github.com/pygal.js/javascripts/pygal-tooltips.js"], "y_labels": null, "y_labels_major_every": null, "interpolation_precision": 250, "value_formatter": null, "no_data_font_size": 64, "logarithmic": false, "print_zeroes": false, "no_data_text": "No data", "truncate_legend": null, "x_labels_major_every": null, "title": "Swap Memory", "legend_box_size": 12, "no_prefix": false, "stroke": true, "include_x_axis": false, "range": null, "truncate_label": null, "order_min": null, "mode": null, "y_labels_major_count": null, "x_label_format": "%Y-%m-%d %H:%M:%S.%f", "margin": 20, "width": 1024}</script><script type="text/javascript" xlink:href="http://kozea.github.com/pygal.js/javascripts/svg.jquery.js" /><script type="text/javascript" xlink:href="http://kozea.github.com/pygal.js/javascripts/pygal-tooltips.js" /></defs><title>Swap Memory</title><g class="graph pie-graph vertical"><rect class="background" height="600" width="1024" x="0" y="0" /><g class="plot" transform="translate(100, 46)"><rect class="background" height="534" width="903.2" x="0" y="0" /><g class="series serie-0 color-0"><g class="slices"><g class="slice"><path class="slice reactive tooltip-trigger" d="M451.600000 0.000000 A267.000000 267.000000 0 0 1 452.010097 0.000315 L451.969087 26.700283 A240.300000 240.300000 0 0 0 451.600000 26.700000 z" /><desc class="value">0.02%</desc><desc class="x centered">451.79479609</desc><desc class="y centered">13.350074799</desc></g><g class="slice"><path class="slice reactive tooltip-trigger" d="M452.010097 0.000315 A267.000000 267.000000 0 0 1 452.420193 0.001260 L452.338174 26.701134 A240.300000 240.300000 0 0 0 451.969087 26.700283 z" /><desc class="value">0.02%</desc><desc class="x centered">452.184387811</desc><desc class="y centered">13.3506731906</desc></g><g class="slice"><path class="slice reactive tooltip-trigger" d="M452.420193 0.001260 A267.000000 267.000000 0 0 1 452.830287 0.002834 L452.707258 26.702551 A240.300000 240.300000 0 0 0 452.338174 26.701134 z" /><desc class="value">0.02%</desc><desc class="x centered">452.573978154</desc><desc class="y centered">13.3518699723</desc></g><g class="slice"><path class="slice reactive tooltip-trigger" d="M452.830287 0.002834 A267.000000 267.000000 0 0 1 453.240378 0.005039 L453.076340 26.704535 A240.300000 240.300000 0 0 0 452.707258 26.702551 z" /><desc class="value">0.02%</desc><desc class="x centered">452.963566199</desc><desc class="y centered">13.3536651414</desc></g><g class="slice"><path class="slice reactive tooltip-trigger" d="M453.240378 0.005039 A267.000000 267.000000 0 0 1 453.650465 0.007874 L453.445419 26.707086 A240.300000 240.300000 0 0 0 453.076340 26.704535 z" /><desc class="value">0.02%</desc><desc class="x centered">453.353151027</desc><desc class="y centered">13.3560586935</desc></g><g class="slice"><path class="slice reactive tooltip-trigger" d="M453.650465 0.007874 A267.000000 267.000000 0 0 1 454.060548 0.011338 L453.814493 26.710204 A240.300000 240.300000 0 0 0 453.445419 26.707086 z" /><desc class="value">0.02%</desc><desc class="x centered">453.742731719</desc><desc class="y centered">13.3590506232</desc></g><g class="slice"><path class="slice reactive tooltip-trigger" d="M454.060548 0.011338 A267.000000 267.000000 0 0 1 454.470624 0.015432 L454.183562 26.713889 A240.300000 240.300000 0 0 0 453.814493 26.710204 z" /><desc class="value">0.02%</desc><desc class="x centered">454.132307356</desc><desc class="y centered">13.3626409232</desc></g><g class="slice"><path class="slice reactive tooltip-trigger" d="M454.470624 0.015432 A267.000000 267.000000 0 0 1 454.880694 0.020156 L454.552625 26.718140 A240.300000 240.300000 0 0 0 454.183562 26.713889 z" /><desc class="value">0.02%</desc><desc class="x centered">454.521877019</desc><desc class="y centered">13.3668295852</desc></g><g class="slice"><path class="slice reactive tooltip-trigger" d="M454.880694 0.020156 A267.000000 267.000000 0 0 1 455.290756 0.025510 L454.921680 26.722959 A240.300000 240.300000 0 0 0 454.552625 26.718140 z" /><desc class="value">0.02%</desc><desc class="x centered">454.911439789</desc><desc class="y centered">13.3716165992</desc></g><g class="slice"><path class="slice reactive tooltip-trigger" d="M455.290756 0.025510 A267.000000 267.000000 0 0 1 455.700809 0.031494 L455.290729 26.728344 A240.300000 240.300000 0 0 0 454.921680 26.722959 z" /><desc class="value">0.02%</desc><desc class="x centered">455.300994747</desc><desc class="y centered">13.3770019539</desc></g><g class="big_slice"><path class="slice reactive tooltip-trigger" d="M451.600000 26.700000 A240.300000 240.300000 0 0 1 455.290729 26.728344 L451.600000 267.000000 A0.000000 0.000000 0 0 0 451.600000 267.000000 z" /><desc class="value">0.24%</desc><desc class="x centered">452.522709343</desc><desc class="y centered">146.853543092</desc></g></g></g><g class="series serie-1 color-1"><g class="slices"><g class="slice"><path class="slice reactive tooltip-trigger" d="M455.700809 0.031494 A267.000000 267.000000 0 0 1 455.700809 0.031494 L455.290729 26.728344 A240.300000 240.300000 0 0 0 455.290729 26.728344 z" /><desc class="value">0.00%</desc><desc class="x centered">455.495769011</desc><desc class="y centered">13.3799190052</desc></g><g class="slice"><path class="slice reactive tooltip-trigger" d="M455.700809 0.031494 A267.000000 267.000000 0 0 1 455.700809 0.031494 L455.290729 26.728344 A240.300000 240.300000 0 0 0 455.290729 26.728344 z" /><desc class="value">0.00%</desc><desc class="x centered">455.495769016</desc><desc class="y centered">13.3799190053</desc></g><g class="slice"><path class="slice reactive tooltip-trigger" d="M455.700809 0.031494 A267.000000 267.000000 0 0 1 455.700809 0.031494 L455.290729 26.728344 A240.300000 240.300000 0 0 0 455.290729 26.728344 z" /><desc class="value">0.00%</desc><desc class="x centered">455.495769021</desc><desc class="y centered">13.3799190053</desc></g><g class="slice"><path class="slice reactive tooltip-trigger" d="M455.700809 0.031494 A267.000000 267.000000 0 0 1 455.700810 0.031494 L455.290729 26.728344 A240.300000 240.300000 0 0 0 455.290729 26.728344 z" /><desc class="value">0.00%</desc><desc class="x centered">455.495769025</desc><desc class="y centered">13.3799190054</desc></g><g class="slice"><path class="slice reactive tooltip-trigger" d="M455.700810 0.031494 A267.000000 267.000000 0 0 1 455.700810 0.031494 L455.290729 26.728344 A240.300000 240.300000 0 0 0 455.290729 26.728344 z" /><desc class="value">0.00%</desc><desc class="x centered">455.49576903</desc><desc class="y centered">13.3799190055</desc></g><g class="slice"><path class="slice reactive tooltip-trigger" d="M455.700810 0.031494 A267.000000 267.000000 0 0 1 455.700810 0.031494 L455.290729 26.728344 A240.300000 240.300000 0 0 0 455.290729 26.728344 z" /><desc class="value">0.00%</desc><desc class="x centered">455.495769035</desc><desc class="y centered">13.3799190056</desc></g><g class="slice"><path class="slice reactive tooltip-trigger" d="M455.700810 0.031494 A267.000000 267.000000 0 0 1 455.700810 0.031494 L455.290729 26.728344 A240.300000 240.300000 0 0 0 455.290729 26.728344 z" /><desc class="value">0.00%</desc><desc class="x centered">455.49576904</desc><desc class="y centered">13.3799190056</desc></g><g class="slice"><path class="slice reactive tooltip-trigger" d="M455.700810 0.031494 A267.000000 267.000000 0 0 1 455.700810 0.031494 L455.290729 26.728344 A240.300000 240.300000 0 0 0 455.290729 26.728344 z" /><desc class="value">0.00%</desc><desc class="x centered">455.495769044</desc><desc class="y centered">13.3799190057</desc></g><g class="slice"><path class="slice reactive tooltip-trigger" d="M455.700810 0.031494 A267.000000 267.000000 0 0 1 455.700810 0.031494 L455.290729 26.728344 A240.300000 240.300000 0 0 0 455.290729 26.728344 z" /><desc class="value">0.00%</desc><desc class="x centered">455.495769049</desc><desc class="y centered">13.3799190058</desc></g><g class="slice"><path class="slice reactive tooltip-trigger" d="M455.700810 0.031494 A267.000000 267.000000 0 0 1 455.700810 0.031494 L455.290729 26.728344 A240.300000 240.300000 0 0 0 455.290729 26.728344 z" /><desc class="value">0.00%</desc><desc class="x centered">455.495769054</desc><desc class="y centered">13.3799190058</desc></g><g class="big_slice"><path class="slice reactive tooltip-trigger" d="M455.290729 26.728344 A240.300000 240.300000 0 0 1 455.290729 26.728344 L451.600000 267.000000 A0.000000 0.000000 0 0 0 451.600000 267.000000 z" /><desc class="value">0.00%</desc><desc class="x centered">453.445364279</desc><desc class="y centered">146.864172161</desc></g></g></g><g class="series serie-2 color-2"><g class="slices"><g class="slice"><path class="slice reactive tooltip-trigger" d="M455.700810 0.031494 A267.000000 267.000000 0 0 1 537.331487 14.138156 L528.758338 39.424340 A240.300000 240.300000 0 0 0 455.290729 26.728344 z" /><desc class="value">4.96%</desc><desc class="x centered">494.793250349</desc><desc class="y centered">17.0546747301</desc></g><g class="slice"><path class="slice reactive tooltip-trigger" d="M537.331487 14.138156 A267.000000 267.000000 0 0 1 610.709306 52.586314 L594.798376 74.027683 A240.300000 240.300000 0 0 0 528.758338 39.424340 z" /><desc class="value">4.96%</desc><desc class="x centered">569.32458381</desc><desc class="y centered">42.3241337689</desc></g><g class="slice"><path class="slice reactive tooltip-trigger" d="M610.709306 52.586314 A267.000000 267.000000 0 0 1 668.770626 111.674795 L647.053563 127.207316 A240.300000 240.300000 0 0 0 594.798376 74.027683 z" /><desc class="value">4.96%</desc><desc class="x centered">632.523276196</desc><desc class="y centered">89.2217937135</desc></g><g class="slice"><path class="slice reactive tooltip-trigger" d="M668.770626 111.674795 A267.000000 267.000000 0 0 1 705.926229 185.715504 L680.493606 193.843953 A240.300000 240.300000 0 0 0 647.053563 127.207316 z" /><desc class="value">4.96%</desc><desc class="x centered">678.30556765</desc><desc class="y centered">153.233097534</desc></g><g class="slice"><path class="slice reactive tooltip-trigger" d="M705.926229 185.715504 A267.000000 267.000000 0 0 1 718.599368 267.580984 L691.899431 267.522886 A240.300000 240.300000 0 0 0 680.493606 193.843953 z" /><desc class="value">4.96%</desc><desc class="x centered">702.26427099</desc><desc class="y centered">228.196060135</desc></g><g class="slice"><path class="slice reactive tooltip-trigger" d="M718.599368 267.580984 A267.000000 267.000000 0 0 1 705.570076 349.390537 L680.173068 341.151483 A240.300000 240.300000 0 0 0 691.899431 267.522886 z" /><desc class="value">4.96%</desc><desc class="x centered">702.093025245</desc><desc class="y centered">306.894445776</desc></g><g class="slice"><path class="slice reactive tooltip-trigger" d="M705.570076 349.390537 A267.000000 267.000000 0 0 1 668.092605 423.268845 L646.443344 407.641961 A240.300000 240.300000 0 0 0 680.173068 341.151483 z" /><desc class="value">4.96%</desc><desc class="x centered">677.808315217</desc><desc class="y centered">381.752431899</desc></g><g class="slice"><path class="slice reactive tooltip-trigger" d="M668.092605 423.268845 A267.000000 267.000000 0 0 1 609.774686 482.104088 L593.957218 460.593679 A240.300000 240.300000 0 0 0 646.443344 407.641961 z" /><desc class="value">4.96%</desc><desc class="x centered">631.747884591</desc><desc class="y centered">445.563888223</desc></g><g class="slice"><path class="slice reactive tooltip-trigger" d="M609.774686 482.104088 A267.000000 267.000000 0 0 1 536.230238 520.232547 L527.767214 494.909292 A240.300000 240.300000 0 0 0 593.957218 460.593679 z" /><desc class="value">4.96%</desc><desc class="x centered">568.345695342</desc><desc class="y centered">492.186067773</desc></g><g class="slice"><path class="slice reactive tooltip-trigger" d="M536.230238 520.232547 A267.000000 267.000000 0 0 1 454.538942 533.983825 L454.245048 507.285442 A240.300000 240.300000 0 0 0 527.767214 494.909292 z" /><desc class="value">4.96%</desc><desc class="x centered">493.705096752</desc><desc class="y centered">517.130932368</desc></g><g class="big_slice"><path class="slice reactive tooltip-trigger" d="M455.290729 26.728344 A240.300000 240.300000 0 0 1 454.245048 507.285442 L451.600000 267.000000 A0.000000 0.000000 0 0 0 451.600000 267.000000 z" /><desc class="value">49.58%</desc><desc class="x centered">571.749715554</desc><desc class="y centered">267.261442816</desc></g></g></g><g class="series serie-3 color-3"><g class="slices"><g class="slice"><path class="slice reactive tooltip-trigger" d="M454.538942 533.983825 A267.000000 267.000000 0 0 1 453.960844 533.989562 L453.724759 507.290606 A240.300000 240.300000 0 0 0 454.245048 507.285442 z" /><desc class="value">0.03%</desc><desc class="x centered">454.11739981</desc><desc class="y centered">520.637507475</desc></g><g class="slice"><path class="slice reactive tooltip-trigger" d="M453.960844 533.989562 A267.000000 267.000000 0 0 1 453.382734 533.994048 L453.204460 507.294644 A240.300000 240.300000 0 0 0 453.724759 507.290606 z" /><desc class="value">0.03%</desc><desc class="x centered">453.56820027</desc><desc class="y centered">520.642363748</desc></g><g class="slice"><path class="slice reactive tooltip-trigger" d="M453.382734 533.994048 A267.000000 267.000000 0 0 1 452.804615 533.997283 L452.684154 507.297554 A240.300000 240.300000 0 0 0 453.204460 507.294644 z" /><desc class="value">0.03%</desc><desc class="x centered">453.018991503</desc><desc class="y centered">520.646030844</desc></g><g class="slice"><path class="slice reactive tooltip-trigger" d="M452.804615 533.997283 A267.000000 267.000000 0 0 1 452.226491 533.999265 L452.163842 507.299338 A240.300000 240.300000 0 0 0 452.684154 507.297554 z" /><desc class="value">0.03%</desc><desc class="x centered">452.469776084</desc><desc class="y centered">520.648508747</desc></g><g class="slice"><path class="slice reactive tooltip-trigger" d="M452.226491 533.999265 A267.000000 267.000000 0 0 1 451.648364 533.999996 L451.643528 507.299996 A240.300000 240.300000 0 0 0 452.163842 507.299338 z" /><desc class="value">0.03%</desc><desc class="x centered">451.920556586</desc><desc class="y centered">520.649797444</desc></g><g class="slice"><path class="slice reactive tooltip-trigger" d="M451.648364 533.999996 A267.000000 267.000000 0 0 1 451.070237 533.999474 L451.123213 507.299527 A240.300000 240.300000 0 0 0 451.643528 507.299996 z" /><desc class="value">0.03%</desc><desc class="x centered">451.371335585</desc><desc class="y centered">520.64989693</desc></g><g class="slice"><path class="slice reactive tooltip-trigger" d="M451.070237 533.999474 A267.000000 267.000000 0 0 1 450.492113 533.997701 L450.602901 507.297931 A240.300000 240.300000 0 0 0 451.123213 507.299527 z" /><desc class="value">0.03%</desc><desc class="x centered">450.822115657</desc><desc class="y centered">520.648807204</desc></g><g class="slice"><path class="slice reactive tooltip-trigger" d="M450.492113 533.997701 A267.000000 267.000000 0 0 1 449.913993 533.994677 L450.082594 507.295209 A240.300000 240.300000 0 0 0 450.602901 507.297931 z" /><desc class="value">0.03%</desc><desc class="x centered">450.272899376</desc><desc class="y centered">520.646528271</desc></g><g class="slice"><path class="slice reactive tooltip-trigger" d="M449.913993 533.994677 A267.000000 267.000000 0 0 1 449.335881 533.990400 L449.562293 507.291360 A240.300000 240.300000 0 0 0 450.082594 507.295209 z" /><desc class="value">0.03%</desc><desc class="x centered">449.723689316</desc><desc class="y centered">520.643060142</desc></g><g class="slice"><path class="slice reactive tooltip-trigger" d="M449.335881 533.990400 A267.000000 267.000000 0 0 1 448.757781 533.984872 L449.042002 507.286385 A240.300000 240.300000 0 0 0 449.562293 507.291360 z" /><desc class="value">0.03%</desc><desc class="x centered">449.174488054</desc><desc class="y centered">520.638402833</desc></g><g class="big_slice"><path class="slice reactive tooltip-trigger" d="M454.245048 507.285442 A240.300000 240.300000 0 0 1 449.042002 507.286385 L451.600000 267.000000 A0.000000 0.000000 0 0 0 451.600000 267.000000 z" /><desc class="value">0.34%</desc><desc class="x centered">451.621763948</desc><desc class="y centered">387.149998029</desc></g></g></g><g class="series serie-4 color-4"><g class="slices"><g class="slice"><path class="slice reactive tooltip-trigger" d="M448.757781 533.984872 A267.000000 267.000000 0 0 1 366.672611 520.133045 L375.165350 494.819741 A240.300000 240.300000 0 0 0 449.042002 507.286385 z" /><desc class="value">4.98%</desc><desc class="x centered">409.393430491</desc><desc class="y centered">517.113830066</desc></g><g class="slice"><path class="slice reactive tooltip-trigger" d="M366.672611 520.133045 A267.000000 267.000000 0 0 1 292.843047 481.674707 L308.718742 460.207236 A240.300000 240.300000 0 0 0 375.165350 494.819741 z" /><desc class="value">4.98%</desc><desc class="x centered">334.417295503</desc><desc class="y centered">491.95896574</desc></g><g class="slice"><path class="slice reactive tooltip-trigger" d="M292.843047 481.674707 A267.000000 267.000000 0 0 1 234.445901 422.348309 L256.161311 406.813478 A240.300000 240.300000 0 0 0 308.718742 460.207236 z" /><desc class="value">4.98%</desc><desc class="x centered">270.832235659</desc><desc class="y centered">444.936330959</desc></g><g class="slice"><path class="slice reactive tooltip-trigger" d="M234.445901 422.348309 A267.000000 267.000000 0 0 1 197.157831 347.920841 L222.602048 339.828757 A240.300000 240.300000 0 0 0 256.161311 406.813478 z" /><desc class="value">4.98%</desc><desc class="x centered">224.819215957</desc><desc class="y centered">380.616893501</desc></g><g class="slice"><path class="slice reactive tooltip-trigger" d="M197.157831 347.920841 A267.000000 267.000000 0 0 1 184.603529 265.627234 L211.303176 265.764510 A240.300000 240.300000 0 0 0 222.602048 339.828757 z" /><desc class="value">4.98%</desc><desc class="x centered">200.851061693</desc><desc class="y centered">305.253005609</desc></g><g class="slice"><path class="slice reactive tooltip-trigger" d="M184.603529 265.627234 A267.000000 267.000000 0 0 1 198.003372 183.467071 L223.363035 191.820364 A240.300000 240.300000 0 0 0 211.303176 265.764510 z" /><desc class="value">4.98%</desc><desc class="x centered">201.257664873</desc><desc class="y centered">226.170626466</desc></g><g class="slice"><path class="slice reactive tooltip-trigger" d="M198.003372 183.467071 A267.000000 267.000000 0 0 1 236.054790 109.426961 L257.609311 125.184265 A240.300000 240.300000 0 0 0 223.363035 191.820364 z" /><desc class="value">4.98%</desc><desc class="x centered">225.999500488</desc><desc class="y centered">151.057181681</desc></g><g class="slice"><path class="slice reactive tooltip-trigger" d="M236.054790 109.426961 A267.000000 267.000000 0 0 1 295.058888 50.704183 L310.712999 72.333765 A240.300000 240.300000 0 0 0 257.609311 125.184265 z" /><desc class="value">4.98%</desc><desc class="x centered">272.671468656</desc><desc class="y centered">87.2142854092</desc></g><g class="slice"><path class="slice reactive tooltip-trigger" d="M295.058888 50.704183 A267.000000 267.000000 0 0 1 369.280006 13.007050 L377.512006 38.406345 A240.300000 240.300000 0 0 0 310.712999 72.333765 z" /><desc class="value">4.98%</desc><desc class="x centered">336.736689137</desc><desc class="y centered">40.8479663644</desc></g><g class="slice"><path class="slice reactive tooltip-trigger" d="M369.280006 13.007050 A267.000000 267.000000 0 0 1 451.503271 0.000018 L451.512944 26.700016 A240.300000 240.300000 0 0 0 377.512006 38.406345 z" /><desc class="value">4.98%</desc><desc class="x centered">411.967521565</desc><desc class="y centered">16.4653933024</desc></g><g class="big_slice"><path class="slice reactive tooltip-trigger" d="M449.042002 507.286385 A240.300000 240.300000 0 0 1 451.512944 26.700016 L451.600000 267.000000 A0.000000 0.000000 0 0 0 451.600000 267.000000 z" /><desc class="value">49.82%</desc><desc class="x centered">331.451588061</desc><desc class="y centered">266.382255227</desc></g></g></g><g class="series serie-5 color-5"><g class="slices"><g class="slice"><path class="slice reactive tooltip-trigger" d="M451.503271 0.000018 A267.000000 267.000000 0 0 1 451.512944 0.000014 L451.521650 26.700013 A240.300000 240.300000 0 0 0 451.512944 26.700016 z" /><desc class="value">0.00%</desc><desc class="x centered">451.512702342</desc><desc class="y centered">13.3500150224</desc></g><g class="slice"><path class="slice reactive tooltip-trigger" d="M451.512944 0.000014 A267.000000 267.000000 0 0 1 451.522617 0.000011 L451.530355 26.700010 A240.300000 240.300000 0 0 0 451.521650 26.700013 z" /><desc class="value">0.00%</desc><desc class="x centered">451.521891569</desc><desc class="y centered">13.3500120263</desc></g><g class="slice"><path class="slice reactive tooltip-trigger" d="M451.522617 0.000011 A267.000000 267.000000 0 0 1 451.532290 0.000009 L451.539061 26.700008 A240.300000 240.300000 0 0 0 451.530355 26.700010 z" /><desc class="value">0.00%</desc><desc class="x centered">451.531080796</desc><desc class="y centered">13.350009363</desc></g><g class="slice"><path class="slice reactive tooltip-trigger" d="M451.532290 0.000009 A267.000000 267.000000 0 0 1 451.541963 0.000006 L451.547766 26.700006 A240.300000 240.300000 0 0 0 451.539061 26.700008 z" /><desc class="value">0.00%</desc><desc class="x centered">451.540270023</desc><desc class="y centered">13.3500070327</desc></g><g class="slice"><path class="slice reactive tooltip-trigger" d="M451.541963 0.000006 A267.000000 267.000000 0 0 1 451.551636 0.000004 L451.556472 26.700004 A240.300000 240.300000 0 0 0 451.547766 26.700006 z" /><desc class="value">0.00%</desc><desc class="x centered">451.54945925</desc><desc class="y centered">13.3500050352</desc></g><g class="slice"><path class="slice reactive tooltip-trigger" d="M451.551636 0.000004 A267.000000 267.000000 0 0 1 451.561309 0.000003 L451.565178 26.700003 A240.300000 240.300000 0 0 0 451.556472 26.700004 z" /><desc class="value">0.00%</desc><desc class="x centered">451.558648477</desc><desc class="y centered">13.3500033707</desc></g><g class="slice"><path class="slice reactive tooltip-trigger" d="M451.561309 0.000003 A267.000000 267.000000 0 0 1 451.570981 0.000002 L451.573883 26.700001 A240.300000 240.300000 0 0 0 451.565178 26.700003 z" /><desc class="value">0.00%</desc><desc class="x centered">451.567837705</desc><desc class="y centered">13.3500020391</desc></g><g class="slice"><path class="slice reactive tooltip-trigger" d="M451.570981 0.000002 A267.000000 267.000000 0 0 1 451.580654 0.000001 L451.582589 26.700001 A240.300000 240.300000 0 0 0 451.573883 26.700001 z" /><desc class="value">0.00%</desc><desc class="x centered">451.577026932</desc><desc class="y centered">13.3500010403</desc></g><g class="slice"><path class="slice reactive tooltip-trigger" d="M451.580654 0.000001 A267.000000 267.000000 0 0 1 451.590327 0.000000 L451.591294 26.700000 A240.300000 240.300000 0 0 0 451.582589 26.700001 z" /><desc class="value">0.00%</desc><desc class="x centered">451.586216159</desc><desc class="y centered">13.3500003745</desc></g><g class="slice"><path class="slice reactive tooltip-trigger" d="M451.590327 0.000000 A267.000000 267.000000 0 0 1 451.600000 0.000000 L451.600000 26.700000 A240.300000 240.300000 0 0 0 451.591294 26.700000 z" /><desc class="value">0.00%</desc><desc class="x centered">451.595405386</desc><desc class="y centered">13.3500000416</desc></g><g class="big_slice"><path class="slice reactive tooltip-trigger" d="M451.512944 26.700016 A240.300000 240.300000 0 0 1 451.600000 26.700000 L451.600000 267.000000 A0.000000 0.000000 0 0 0 451.600000 267.000000 z" /><desc class="value">0.01%</desc><desc class="x centered">451.578236041</desc><desc class="y centered">146.850001971</desc></g></g></g></g><g class="titles"><text class="title plot_title" x="512.0" y="26">Swap Memory</text></g><g class="plot overlay" transform="translate(100, 46)"><g class="series serie-0 color-0" /><g class="series serie-1 color-1" /><g class="series serie-2 color-2" /><g class="series serie-3 color-3" /><g class="series serie-4 color-4" /><g class="series serie-5 color-5" /></g><g class="plot text-overlay" transform="translate(100, 46)"><g class="series serie-0 color-0" /><g class="series serie-1 color-1" /><g class="series serie-2 color-2"><text class="centered" x="494.793250349" y="19.7213413968">4.96%</text><text class="centered" x="569.32458381" y="44.9908004355">4.96%</text><text class="centered" x="632.523276196" y="91.8884603802">4.96%</text><text class="centered" x="678.30556765" y="155.899764201">4.96%</text><text class="centered" x="702.26427099" y="230.862726802">4.96%</text><text class="centered" x="702.093025245" y="309.561112442">4.96%</text><text class="centered" x="677.808315217" y="384.419098566">4.96%</text><text class="centered" x="631.747884591" y="448.23055489">4.96%</text><text class="centered" x="568.345695342" y="494.85273444">4.96%</text><text class="centered" x="493.705096752" y="519.797599035">4.96%</text><text class="centered" x="571.749715554" y="269.928109483">49.58%</text></g><g class="series serie-3 color-3" /><g class="series serie-4 color-4"><text class="centered" x="409.393430491" y="519.780496733">4.98%</text><text class="centered" x="334.417295503" y="494.625632406">4.98%</text><text class="centered" x="270.832235659" y="447.602997626">4.98%</text><text class="centered" x="224.819215957" y="383.283560168">4.98%</text><text class="centered" x="200.851061693" y="307.919672275">4.98%</text><text class="centered" x="201.257664873" y="228.837293133">4.98%</text><text class="centered" x="225.999500488" y="153.723848348">4.98%</text><text class="centered" x="272.671468656" y="89.8809520759">4.98%</text><text class="centered" x="336.736689137" y="43.5146330311">4.98%</text><text class="centered" x="411.967521565" y="19.1320599691">4.98%</text><text class="centered" x="331.451588061" y="269.048921894">49.82%</text></g><g class="series serie-5 color-5" /></g><g class="plot tooltip-overlay" transform="translate(100, 46)"><g class="tooltip" style="opacity: 0" transform="translate(0 0)"><a><rect class="tooltip-box" height="0" rx="0" ry="0" width="0" /><text class="text"><tspan class="label" /><tspan class="value" /></text></a></g></g><g class="legends" transform="translate(10, 56)"><g class="legend reactive activate-serie" id="activate-serie-0"><rect class="color-0 reactive" height="12" width="12" x="0.0" y="1.0" /><text x="17.0" y="11.2">used</text></g><g class="legend reactive activate-serie" id="activate-serie-1"><rect class="color-1 reactive" height="12" width="12" x="0.0" y="22.0" /><text x="17.0" y="32.2">percent</text></g><g class="legend reactive activate-serie" id="activate-serie-2"><rect class="color-2 reactive" height="12" width="12" x="0.0" y="43.0" /><text x="17.0" y="53.2">free</text></g><g class="legend reactive activate-serie" id="activate-serie-3"><rect class="color-3 reactive" height="12" width="12" x="0.0" y="64.0" /><text x="17.0" y="74.2">sout</text></g><g class="legend reactive activate-serie" id="activate-serie-4"><rect class="color-4 reactive" height="12" width="12" x="0.0" y="85.0" /><text x="17.0" y="95.2">total</text></g><g class="legend reactive activate-serie" id="activate-serie-5"><rect class="color-5 reactive" height="12" width="12" x="0.0" y="106.0" /><text x="17.0" y="116.2">sin</text></g></g><g class="legends" transform="translate(1014, 56)" /></g></svg>