<?xml version='1.0' encoding='utf-8'?>
<svg xmlns:xlink="http://www.w3.org/1999/xlink" class="pygal-chart" id="chart-a1874916-425f-4e3c-85ab-b7121da02e81" viewBox="0 0 1024 600" xmlns="http://www.w3.org/2000/svg"><!--Generated with pygal 1.5.0 (etree) ©Kozea 2011-2014 on 2014-09-09--><!--http://pygal.org--><!--http://github.com/Kozea/pygal--><defs><style type="text/css">#chart-a1874916-425f-4e3c-85ab-b7121da02e81 .title{font-family:"monospace";font-size:16px}#chart-a1874916-425f-4e3c-85ab-b7121da02e81 .legends .legend text{font-family:"monospace";font-size:14px}#chart-a1874916-425f-4e3c-85ab-b7121da02e81 .axis text{font-family:"monospace";font-size:10px}#chart-a1874916-425f-4e3c-85ab-b7121da02e81 .axis text.major{font-family:"monospace";font-size:10px}#chart-a1874916-425f-4e3c-85ab-b7121da02e81 .series text{font-family:"monospace";font-size:8px}#chart-a1874916-425f-4e3c-85ab-b7121da02e81 .tooltip text{font-family:"monospace";font-size:16px}#chart-a1874916-425f-4e3c-85ab-b7121da02e81 text.no_data{font-size:64px}
#chart-a1874916-425f-4e3c-85ab-b7121da02e81{background-color:black}#chart-a1874916-425f-4e3c-85ab-b7121da02e81 path,#chart-a1874916-425f-4e3c-85ab-b7121da02e81 line,#chart-a1874916-425f-4e3c-85ab-b7121da02e81 rect,#chart-a1874916-425f-4e3c-85ab-b7121da02e81 circle{-webkit-transition:250ms;-moz-transition:250ms;transition:250ms}#chart-a1874916-425f-4e3c-85ab-b7121da02e81 .graph &gt; .background{fill:black}#chart-a1874916-425f-4e3c-85ab-b7121da02e81 .plot &gt; .background{fill:#111}#chart-a1874916-425f-4e3c-85ab-b7121da02e81 .graph{fill:#999}#chart-a1874916-425f-4e3c-85ab-b7121da02e81 text.no_data{fill:#eee}#chart-a1874916-425f-4e3c-85ab-b7121da02e81 .title{fill:#eee}#chart-a1874916-425f-4e3c-85ab-b7121da02e81 .legends .legend text{fill:#999}#chart-a1874916-425f-4e3c-85ab-b7121da02e81 .legends .legend:hover text{fill:#eee}#chart-a1874916-425f-4e3c-85ab-b7121da02e81 .axis .line{stroke:#eee}#chart-a1874916-425f-4e3c-85ab-b7121da02e81 .axis .guide.line{stroke:#555}#chart-a1874916-425f-4e3c-85ab-b7121da02e81 .axis .major.line{stroke:#999}#chart-a1874916-425f-4e3c-85ab-b7121da02e81 .axis text.major{stroke:#eee;fill:#eee}#chart-a1874916-425f-4e3c-85ab-b7121da02e81 .axis.y .guides:hover .guide.line,#chart-a1874916-425f-4e3c-85ab-b7121da02e81 .line-graph .axis.x .guides:hover .guide.line,#chart-a1874916-425f-4e3c-85ab-b7121da02e81 .stackedline-graph .axis.x .guides:hover .guide.line,#chart-a1874916-425f-4e3c-85ab-b7121da02e81 .xy-graph .axis.x .guides:hover .guide.line{stroke:#eee}#chart-a1874916-425f-4e3c-85ab-b7121da02e81 .axis .guides:hover text{fill:#eee}#chart-a1874916-425f-4e3c-85ab-b7121da02e81 .reactive{fill-opacity:.8}#chart-a1874916-425f-4e3c-85ab-b7121da02e81 .reactive.active,#chart-a1874916-425f-4e3c-85ab-b7121da02e81 .active .reactive{fill-opacity:.4}#chart-a1874916-425f-4e3c-85ab-b7121da02e81 .series text{fill:#eee}#chart-a1874916-425f-4e3c-85ab-b7121da02e81 .tooltip rect{fill:#111;stroke:#eee}#chart-a1874916-425f-4e3c-85ab-b7121da02e81 .tooltip text{fill:#eee}#chart-a1874916-425f-4e3c-85ab-b7121da02e81 .map-element{fill:#999;stroke:#555 !important;opacity:.9;stroke-width:3;-webkit-transition:250ms;-moz-transition:250ms;-o-transition:250ms;transition:250ms}#chart-a1874916-425f-4e3c-85ab-b7121da02e81 .map-element:hover{opacity:1;stroke-width:10}#chart-a1874916-425f-4e3c-85ab-b7121da02e81 .color-0,#chart-a1874916-425f-4e3c-85ab-b7121da02e81 .color-0 a:visited{stroke:#ff5995;fill:#ff5995}#chart-a1874916-425f-4e3c-85ab-b7121da02e81 .color-1,#chart-a1874916-425f-4e3c-85ab-b7121da02e81 .color-1 a:visited{stroke:#b6e354;fill:#b6e354}#chart-a1874916-425f-4e3c-85ab-b7121da02e81 .color-2,#chart-a1874916-425f-4e3c-85ab-b7121da02e81 .color-2 a:visited{stroke:#feed6c;fill:#feed6c}#chart-a1874916-425f-4e3c-85ab-b7121da02e81 .color-3,#chart-a1874916-425f-4e3c-85ab-b7121da02e81 .color-3 a:visited{stroke:#8cedff;fill:#8cedff}#chart-a1874916-425f-4e3c-85ab-b7121da02e81 .color-4,#chart-a1874916-425f-4e3c-85ab-b7121da02e81 .color-4 a:visited{stroke:#9e6ffe;fill:#9e6ffe}#chart-a1874916-425f-4e3c-85ab-b7121da02e81 .color-5,#chart-a1874916-425f-4e3c-85ab-b7121da02e81 .color-5 a:visited{stroke:#899ca1;fill:#899ca1}#chart-a1874916-425f-4e3c-85ab-b7121da02e81 .color-6,#chart-a1874916-425f-4e3c-85ab-b7121da02e81 .color-6 a:visited{stroke:#f8f8f2;fill:#f8f8f2}#chart-a1874916-425f-4e3c-85ab-b7121da02e81 .color-7,#chart-a1874916-425f-4e3c-85ab-b7121da02e81 .color-7 a:visited{stroke:#bf4646;fill:#bf4646}#chart-a1874916-425f-4e3c-85ab-b7121da02e81 .color-8,#chart-a1874916-425f-4e3c-85ab-b7121da02e81 .color-8 a:visited{stroke:#516083;fill:#516083}#chart-a1874916-425f-4e3c-85ab-b7121da02e81 .color-9,#chart-a1874916-425f-4e3c-85ab-b7121da02e81 .color-9 a:visited{stroke:#f92672;fill:#f92672}#chart-a1874916-425f-4e3c-85ab-b7121da02e81 .color-10,#chart-a1874916-425f-4e3c-85ab-b7121da02e81 .color-10 a:visited{stroke:#82b414;fill:#82b414}#chart-a1874916-425f-4e3c-85ab-b7121da02e81 .color-11,#chart-a1874916-425f-4e3c-85ab-b7121da02e81 .color-11 a:visited{stroke:#fd971f;fill:#fd971f}#chart-a1874916-425f-4e3c-85ab-b7121da02e81 .color-12,#chart-a1874916-425f-4e3c-85ab-b7121da02e81 .color-12 a:visited{stroke:#56c2d6;fill:#56c2d6}#chart-a1874916-425f-4e3c-85ab-b7121da02e81 .color-13,#chart-a1874916-425f-4e3c-85ab-b7121da02e81 .color-13 a:visited{stroke:#808384;fill:#808384}#chart-a1874916-425f-4e3c-85ab-b7121da02e81 .color-14,#chart-a1874916-425f-4e3c-85ab-b7121da02e81 .color-14 a:visited{stroke:#8c54fe;fill:#8c54fe}#chart-a1874916-425f-4e3c-85ab-b7121da02e81 .color-15,#chart-a1874916-425f-4e3c-85ab-b7121da02e81 .color-15 a:visited{stroke:#465457;fill:#465457}
#chart-a1874916-425f-4e3c-85ab-b7121da02e81 text.no_data{text-anchor:middle}#chart-a1874916-425f-4e3c-85ab-b7121da02e81 .guide.line{fill-opacity:0}#chart-a1874916-425f-4e3c-85ab-b7121da02e81 .centered{text-anchor:middle}#chart-a1874916-425f-4e3c-85ab-b7121da02e81 .title{text-anchor:middle}#chart-a1874916-425f-4e3c-85ab-b7121da02e81 .legends .legend text{fill-opacity:1}#chart-a1874916-425f-4e3c-85ab-b7121da02e81 .axis.x text{text-anchor:middle}#chart-a1874916-425f-4e3c-85ab-b7121da02e81 .axis.x:not(.web) text[transform]{text-anchor:start}#chart-a1874916-425f-4e3c-85ab-b7121da02e81 .axis.y text{text-anchor:end}#chart-a1874916-425f-4e3c-85ab-b7121da02e81 .axis.y2 text{text-anchor:start}#chart-a1874916-425f-4e3c-85ab-b7121da02e81 .axis.y .logarithmic text:not(.major),#chart-a1874916-425f-4e3c-85ab-b7121da02e81 .axis.y2 .logarithmic text:not(.major){font-size:50%}#chart-a1874916-425f-4e3c-85ab-b7121da02e81 .axis .guide.line{stroke-dasharray:4,4}#chart-a1874916-425f-4e3c-85ab-b7121da02e81 .axis .major.guide.line{stroke-dasharray:6,6}#chart-a1874916-425f-4e3c-85ab-b7121da02e81 .axis text.major{stroke-width:0.5px}#chart-a1874916-425f-4e3c-85ab-b7121da02e81 .horizontal .axis.y .guide.line,#chart-a1874916-425f-4e3c-85ab-b7121da02e81 .horizontal .axis.y2 .guide.line,#chart-a1874916-425f-4e3c-85ab-b7121da02e81 .vertical .axis.x .guide.line{opacity:0}#chart-a1874916-425f-4e3c-85ab-b7121da02e81 .horizontal .axis.always_show .guide.line,#chart-a1874916-425f-4e3c-85ab-b7121da02e81 .vertical .axis.always_show .guide.line{opacity:1 !important}#chart-a1874916-425f-4e3c-85ab-b7121da02e81 .axis.y .guides:hover .guide.line,#chart-a1874916-425f-4e3c-85ab-b7121da02e81 .axis.y2 .guides:hover .guide.line,#chart-a1874916-425f-4e3c-85ab-b7121da02e81 .axis.x .guides:hover .guide.line{opacity:1}#chart-a1874916-425f-4e3c-85ab-b7121da02e81 .axis .guides:hover text{opacity:1}#chart-a1874916-425f-4e3c-85ab-b7121da02e81 .nofill{fill:none}#chart-a1874916-425f-4e3c-85ab-b7121da02e81 .subtle-fill{fill-opacity:.2}#chart-a1874916-425f-4e3c-85ab-b7121da02e81 .dot{stroke-width:1px;fill-opacity:1}#chart-a1874916-425f-4e3c-85ab-b7121da02e81 .dot.active{stroke-width:5px}#chart-a1874916-425f-4e3c-85ab-b7121da02e81 .series text{stroke:none}#chart-a1874916-425f-4e3c-85ab-b7121da02e81 .series text.active{opacity:1}#chart-a1874916-425f-4e3c-85ab-b7121da02e81 .tooltip rect{fill-opacity:0.8}#chart-a1874916-425f-4e3c-85ab-b7121da02e81 .tooltip text{fill-opacity:1}#chart-a1874916-425f-4e3c-85ab-b7121da02e81 .tooltip text tspan.label{fill-opacity:.8}</style><script type="text/javascript">window.config = {"inner_radius": 0, "print_values": true, "tooltip_font_size": 16, "y_title": null, "y_labels_major": null, "height": 600, "legend_at_bottom": false, "show_legend": true, "show_dots": true, "explicit_size": false, "legend_font_size": 14, "x_labels_major_count": null, "major_label_font_size": 10, "fill": true, "half_pie": false, "style": {"opacity": ".8", "foreground": "#999", "plot_background": "#111", "foreground_light": "#eee", "transition": "250ms", "foreground_dark": "#555", "opacity_hover": ".4", "colors": ["#ff5995", "#b6e354", "#feed6c", "#8cedff", "#9e6ffe", "#899ca1", "#f8f8f2", "#bf4646", "#516083", "#f92672", "#82b414", "#fd971f", "#56c2d6", "#808384", "#8c54fe", "#465457"], "background": "black", "font_family": "monospace"}, "x_title": null, "zero": 0, "show_minor_x_labels": true, "interpolation_parameters": {}, "x_labels_major": null, "rounded_bars": null, "label_font_size": 10, "show_y_labels": true, "dots_size": 2.5, "show_y_guides": true, "show_minor_y_labels": true, "x_labels": ["0", "1", "2", "3", "4", "5", "6", "7", "8", "9"], "value_font_size": 8, "x_label_rotation": 0, "disable_xml_declaration": false, "strict": false, "css": ["style.css", "graph.css"], "title_font_size": 16, "show_only_major_dots": false, "human_readable": false, "show_x_guides": false, "spacing": 10, "y_label_rotation": 0, "pretty_print": false, "tooltip_border_radius": 0, "interpolate": null, "js": ["http://kozea.github.com/pygal.js/javascripts/svg.jquery.js", "http://kozea.github.com/pygal.js/javascripts/pygal-tooltips.js"], "y_labels": null, "y_labels_major_every": null, "interpolation_precision": 250, "value_formatter": null, "no_data_font_size": 64, "logarithmic": false, "print_zeroes": false, "no_data_text": "No data", "truncate_legend": null, "x_labels_major_every": null, "title": "Virtual Memory", "legend_box_size": 12, "no_prefix": false, "stroke": true, "include_x_axis": false, "range": null, "truncate_label": null, "order_min": null, "mode": null, "y_labels_major_count": null, "x_label_format": "%Y-%m-%d %H:%M:%S.%f", "margin": 20, "width": 1024}</script><script type="text/javascript" xlink:href="http://kozea.github.com/pygal.js/javascripts/svg.jquery.js" /><script type="text/javascript" xlink:href="http://kozea.github.com/pygal.js/javascripts/pygal-tooltips.js" /></defs><title>Virtual Memory</title><g class="graph pie-graph vertical"><rect class="background" height="600" width="1024" x="0" y="0" /><g class="plot" transform="translate(117, 46)"><rect class="background" height="534" width="886.4" x="0" y="0" /><g class="series serie-0 color-0"><g class="slices"><g class="slice"><path class="slice reactive tooltip-trigger" d="M443.200000 0.000000 A267.000000 267.000000 0 0 1 468.903617 1.240101 L466.333255 27.816091 A240.300000 240.300000 0 0 0 443.200000 26.700000 z" /><desc class="value">1.53%</desc><desc class="x centered">455.423419403</desc><desc class="y centered">13.6446951057</desc></g><g class="slice"><path class="slice reactive tooltip-trigger" d="M468.903617 1.240101 A267.000000 267.000000 0 0 1 494.368469 4.948883 L489.251622 31.153995 A240.300000 240.300000 0 0 0 466.333255 27.816091 z" /><desc class="value">1.53%</desc><desc class="x centered">479.756713108</desc><desc class="y centered">15.9981489576</desc></g><g class="slice"><path class="slice reactive tooltip-trigger" d="M494.368469 4.948883 A267.000000 267.000000 0 0 1 519.358010 11.091896 L511.742209 36.682707 A240.300000 240.300000 0 0 0 489.251622 31.153995 z" /><desc class="value">1.53%</desc><desc class="x centered">503.75042625</desc><desc class="y centered">20.6831950902</desc></g><g class="slice"><path class="slice reactive tooltip-trigger" d="M519.358010 11.091896 A267.000000 267.000000 0 0 1 543.640108 19.612077 L533.596098 44.350869 A240.300000 240.300000 0 0 0 511.742209 36.682707 z" /><desc class="value">1.53%</desc><desc class="x centered">527.181677776</desc><desc class="y centered">27.6563134364</desc></g><g class="slice"><path class="slice reactive tooltip-trigger" d="M543.640108 19.612077 A267.000000 267.000000 0 0 1 566.989204 30.430279 L554.610284 54.087251 A240.300000 240.300000 0 0 0 533.596098 44.350869 z" /><desc class="value">1.53%</desc><desc class="x centered">549.832811424</desc><desc class="y centered">36.8527296974</desc></g><g class="slice"><path class="slice reactive tooltip-trigger" d="M566.989204 30.430279 A267.000000 267.000000 0 0 1 589.188404 43.446011 L574.589564 65.801410 A240.300000 240.300000 0 0 0 554.610284 54.087251 z" /><desc class="value">1.53%</desc><desc class="x centered">571.493417556</desc><desc class="y centered">48.1870170404</desc></g><g class="slice"><path class="slice reactive tooltip-trigger" d="M589.188404 43.446011 A267.000000 267.000000 0 0 1 610.031497 58.538369 L593.348347 79.384532 A240.300000 240.300000 0 0 0 574.589564 65.801410 z" /><desc class="value">1.53%</desc><desc class="x centered">591.962287688</desc><desc class="y centered">61.5538896407</desc></g><g class="slice"><path class="slice reactive tooltip-trigger" d="M610.031497 58.538369 A267.000000 267.000000 0 0 1 629.324868 75.567156 L610.712381 94.710441 A240.300000 240.300000 0 0 0 593.348347 79.384532 z" /><desc class="value">1.53%</desc><desc class="x centered">611.049283542</desc><desc class="y centered">76.8291806969</desc></g><g class="slice"><path class="slice reactive tooltip-trigger" d="M629.324868 75.567156 A267.000000 267.000000 0 0 1 646.889298 94.374191 L626.520368 111.636772 A240.300000 240.300000 0 0 0 610.712381 94.710441 z" /><desc class="value">1.53%</desc><desc class="x centered">628.57710327</desc><desc class="y centered">93.8709958344</desc></g><g class="slice"><path class="slice reactive tooltip-trigger" d="M646.889298 94.374191 A267.000000 267.000000 0 0 1 662.561629 114.784772 L640.625466 130.006295 A240.300000 240.300000 0 0 0 626.520368 111.636772 z" /><desc class="value">1.53%</desc><desc class="x centered">644.382928433</desc><desc class="y centered">112.521031182</desc></g><g class="big_slice"><path class="slice reactive tooltip-trigger" d="M443.200000 26.700000 A240.300000 240.300000 0 0 1 640.625466 130.006295 L443.200000 267.000000 A0.000000 0.000000 0 0 0 443.200000 267.000000 z" /><desc class="value">15.35%</desc><desc class="x centered">498.905141883</desc><desc class="y centered">160.543625518</desc></g></g></g><g class="series serie-1 color-1"><g class="slices"><g class="slice"><path class="slice reactive tooltip-trigger" d="M662.561629 114.784772 A267.000000 267.000000 0 0 1 681.958118 147.486147 L658.082306 159.437533 A240.300000 240.300000 0 0 0 640.625466 130.006295 z" /><desc class="value">2.27%</desc><desc class="x centered">661.36056722</desc><desc class="y centered">137.600272758</desc></g><g class="slice"><path class="slice reactive tooltip-trigger" d="M681.958118 147.486147 A267.000000 267.000000 0 0 1 696.513052 182.611033 L671.181747 191.049930 A240.300000 240.300000 0 0 0 658.082306 159.437533 z" /><desc class="value">2.27%</desc><desc class="x centered">677.528526983</desc><desc class="y centered">169.899722236</desc></g><g class="slice"><path class="slice reactive tooltip-trigger" d="M696.513052 182.611033 A267.000000 267.000000 0 0 1 705.931285 219.447165 L679.658156 224.202449 A240.300000 240.300000 0 0 0 671.181747 191.049930 z" /><desc class="value">2.27%</desc><desc class="x centered">688.944755191</desc><desc class="y centered">204.168178476</desc></g><g class="slice"><path class="slice reactive tooltip-trigger" d="M705.931285 219.447165 A267.000000 267.000000 0 0 1 710.021832 257.247577 L683.339649 258.222820 A240.300000 240.300000 0 0 0 679.658156 224.202449 z" /><desc class="value">2.27%</desc><desc class="x centered">695.377752706</desc><desc class="y centered">239.710743135</desc></g><g class="slice"><path class="slice reactive tooltip-trigger" d="M710.021832 257.247577 A267.000000 267.000000 0 0 1 708.701747 295.245750 L682.151572 292.421175 A240.300000 240.300000 0 0 0 683.339649 258.222820 z" /><desc class="value">2.27%</desc><desc class="x centered">696.697070718</desc><desc class="y centered">275.806681405</desc></g><g class="slice"><path class="slice reactive tooltip-trigger" d="M708.701747 295.245750 A267.000000 267.000000 0 0 1 701.997797 332.671152 L676.118017 326.104037 A240.300000 240.300000 0 0 0 682.151572 292.421175 z" /><desc class="value">2.27%</desc><desc class="x centered">692.875955998</desc><desc class="y centered">311.724037124</desc></g><g class="slice"><path class="slice reactive tooltip-trigger" d="M701.997797 332.671152 A267.000000 267.000000 0 0 1 690.045926 368.764871 L665.361333 358.588384 A240.300000 240.300000 0 0 0 676.118017 326.104037 z" /><desc class="value">2.27%</desc><desc class="x centered">683.991893397</desc><desc class="y centered">346.734475442</desc></g><g class="slice"><path class="slice reactive tooltip-trigger" d="M690.045926 368.764871 A267.000000 267.000000 0 0 1 673.088494 402.794993 L650.099645 389.215494 A240.300000 240.300000 0 0 0 665.361333 358.588384 z" /><desc class="value">2.27%</desc><desc class="x centered">670.225034609</desc><desc class="y centered">380.12805205</desc></g><g class="slice"><path class="slice reactive tooltip-trigger" d="M673.088494 402.794993 A267.000000 267.000000 0 0 1 651.469367 434.071455 L630.642430 417.364309 A240.300000 240.300000 0 0 0 650.099645 389.215494 z" /><desc class="value">2.27%</desc><desc class="x centered">651.854545035</desc><desc class="y centered">411.22760948</desc></g><g class="slice"><path class="slice reactive tooltip-trigger" d="M651.469367 434.071455 A267.000000 267.000000 0 0 1 625.626937 461.960028 L607.384243 442.464026 A240.300000 240.300000 0 0 0 630.642430 417.364309 z" /><desc class="value">2.27%</desc><desc class="x centered">629.252942848</desc><desc class="y centered">439.40250856</desc></g><g class="big_slice"><path class="slice reactive tooltip-trigger" d="M640.625466 130.006295 A240.300000 240.300000 0 0 1 607.384243 442.464026 L443.200000 267.000000 A0.000000 0.000000 0 0 0 443.200000 267.000000 z" /><desc class="value">22.68%</desc><desc class="x centered">562.675786127</desc><desc class="y centered">279.71058729</desc></g></g></g><g class="series serie-2 color-2"><g class="slices"><g class="slice"><path class="slice reactive tooltip-trigger" d="M625.626937 461.960028 A267.000000 267.000000 0 0 1 609.894620 475.571100 L593.225158 454.713990 A240.300000 240.300000 0 0 0 607.384243 442.464026 z" /><desc class="value">1.24%</desc><desc class="x centered">609.158720813</desc><desc class="y centered">458.82290136</desc></g><g class="slice"><path class="slice reactive tooltip-trigger" d="M609.894620 475.571100 A267.000000 267.000000 0 0 1 593.150366 487.916020 L578.155329 465.824418 A240.300000 240.300000 0 0 0 593.225158 454.713990 z" /><desc class="value">1.24%</desc><desc class="x centered">593.72063022</desc><desc class="y centered">471.161363578</desc></g><g class="slice"><path class="slice reactive tooltip-trigger" d="M593.150366 487.916020 A267.000000 267.000000 0 0 1 575.495823 498.919847 L562.266241 475.727862 A240.300000 240.300000 0 0 0 578.155329 465.824418 z" /><desc class="value">1.24%</desc><desc class="x centered">577.368788924</desc><desc class="y centered">482.260443599</desc></g><g class="slice"><path class="slice reactive tooltip-trigger" d="M575.495823 498.919847 A267.000000 267.000000 0 0 1 557.038165 508.515780 L545.654349 484.364202 A240.300000 240.300000 0 0 0 562.266241 475.727862 z" /><desc class="value">1.24%</desc><desc class="x centered">560.202462432</desc><desc class="y centered">492.052763335</desc></g><g class="slice"><path class="slice reactive tooltip-trigger" d="M557.038165 508.515780 A267.000000 267.000000 0 0 1 537.889441 516.645568 L528.420497 491.681011 A240.300000 240.300000 0 0 0 545.654349 484.364202 z" /><desc class="value">1.24%</desc><desc class="x centered">542.325860662</desc><desc class="y centered">500.47887752</desc></g><g class="slice"><path class="slice reactive tooltip-trigger" d="M537.889441 516.645568 A267.000000 267.000000 0 0 1 518.165895 523.259857 L510.669306 497.633872 A240.300000 240.300000 0 0 0 528.420497 491.681011 z" /><desc class="value">1.24%</desc><desc class="x centered">523.847505335</desc><desc class="y centered">507.487634575</desc></g><g class="slice"><path class="slice reactive tooltip-trigger" d="M518.165895 523.259857 A267.000000 267.000000 0 0 1 497.987261 528.318495 L492.508535 502.186646 A240.300000 240.300000 0 0 0 510.669306 497.633872 z" /><desc class="value">1.24%</desc><desc class="x centered">504.879571173</desc><desc class="y centered">513.036487131</desc></g><g class="slice"><path class="slice reactive tooltip-trigger" d="M497.987261 528.318495 A267.000000 267.000000 0 0 1 477.476036 531.790773 L474.048432 505.311696 A240.300000 240.300000 0 0 0 492.508535 502.186646 z" /><desc class="value">1.24%</desc><desc class="x centered">485.537204939</desc><desc class="y centered">517.09175032</desc></g><g class="slice"><path class="slice reactive tooltip-trigger" d="M477.476036 531.790773 A267.000000 267.000000 0 0 1 456.756734 533.655611 L455.401061 506.990050 A240.300000 240.300000 0 0 0 474.048432 505.311696 z" /><desc class="value">1.24%</desc><desc class="x centered">465.937826422</desc><desc class="y centered">519.628806255</desc></g><g class="slice"><path class="slice reactive tooltip-trigger" d="M456.756734 533.655611 A267.000000 267.000000 0 0 1 435.955135 533.901690 L436.679622 507.211521 A240.300000 240.300000 0 0 0 455.401061 506.990050 z" /><desc class="value">1.24%</desc><desc class="x centered">446.200415631</desc><desc class="y centered">520.632253481</desc></g><g class="big_slice"><path class="slice reactive tooltip-trigger" d="M607.384243 442.464026 A240.300000 240.300000 0 0 1 436.679622 507.211521 L443.200000 267.000000 A0.000000 0.000000 0 0 0 443.200000 267.000000 z" /><desc class="value">12.40%</desc><desc class="x centered">485.810248478</desc><desc class="y centered">379.340505717</desc></g></g></g><g class="series serie-3 color-3"><g class="slices"><g class="slice"><path class="slice reactive tooltip-trigger" d="M435.955135 533.901690 A267.000000 267.000000 0 0 1 435.955135 533.901690 L436.679621 507.211521 A240.300000 240.300000 0 0 0 436.679622 507.211521 z" /><desc class="value">0.00%</desc><desc class="x centered">436.317378183</desc><desc class="y centered">520.556605153</desc></g><g class="slice"><path class="slice reactive tooltip-trigger" d="M435.955135 533.901690 A267.000000 267.000000 0 0 1 435.955134 533.901690 L436.679621 507.211521 A240.300000 240.300000 0 0 0 436.679621 507.211521 z" /><desc class="value">0.00%</desc><desc class="x centered">436.317377784</desc><desc class="y centered">520.556605143</desc></g><g class="slice"><path class="slice reactive tooltip-trigger" d="M435.955134 533.901690 A267.000000 267.000000 0 0 1 435.955134 533.901690 L436.679620 507.211521 A240.300000 240.300000 0 0 0 436.679621 507.211521 z" /><desc class="value">0.00%</desc><desc class="x centered">436.317377385</desc><desc class="y centered">520.556605132</desc></g><g class="slice"><path class="slice reactive tooltip-trigger" d="M435.955134 533.901690 A267.000000 267.000000 0 0 1 435.955133 533.901690 L436.679620 507.211521 A240.300000 240.300000 0 0 0 436.679620 507.211521 z" /><desc class="value">0.00%</desc><desc class="x centered">436.317376986</desc><desc class="y centered">520.556605121</desc></g><g class="slice"><path class="slice reactive tooltip-trigger" d="M435.955133 533.901690 A267.000000 267.000000 0 0 1 435.955133 533.901690 L436.679620 507.211521 A240.300000 240.300000 0 0 0 436.679620 507.211521 z" /><desc class="value">0.00%</desc><desc class="x centered">436.317376586</desc><desc class="y centered">520.55660511</desc></g><g class="slice"><path class="slice reactive tooltip-trigger" d="M435.955133 533.901690 A267.000000 267.000000 0 0 1 435.955133 533.901690 L436.679619 507.211521 A240.300000 240.300000 0 0 0 436.679620 507.211521 z" /><desc class="value">0.00%</desc><desc class="x centered">436.317376187</desc><desc class="y centered">520.556605099</desc></g><g class="slice"><path class="slice reactive tooltip-trigger" d="M435.955133 533.901690 A267.000000 267.000000 0 0 1 435.955132 533.901690 L436.679619 507.211521 A240.300000 240.300000 0 0 0 436.679619 507.211521 z" /><desc class="value">0.00%</desc><desc class="x centered">436.317375788</desc><desc class="y centered">520.556605088</desc></g><g class="slice"><path class="slice reactive tooltip-trigger" d="M435.955132 533.901690 A267.000000 267.000000 0 0 1 435.955132 533.901690 L436.679619 507.211521 A240.300000 240.300000 0 0 0 436.679619 507.211521 z" /><desc class="value">0.00%</desc><desc class="x centered">436.317375389</desc><desc class="y centered">520.556605078</desc></g><g class="slice"><path class="slice reactive tooltip-trigger" d="M435.955132 533.901690 A267.000000 267.000000 0 0 1 435.955131 533.901690 L436.679618 507.211521 A240.300000 240.300000 0 0 0 436.679619 507.211521 z" /><desc class="value">0.00%</desc><desc class="x centered">436.31737499</desc><desc class="y centered">520.556605067</desc></g><g class="slice"><path class="slice reactive tooltip-trigger" d="M435.955131 533.901690 A267.000000 267.000000 0 0 1 435.955131 533.901690 L436.679618 507.211521 A240.300000 240.300000 0 0 0 436.679618 507.211521 z" /><desc class="value">0.00%</desc><desc class="x centered">436.317374591</desc><desc class="y centered">520.556605056</desc></g><g class="big_slice"><path class="slice reactive tooltip-trigger" d="M436.679622 507.211521 A240.300000 240.300000 0 0 1 436.679618 507.211521 L443.200000 267.000000 A0.000000 0.000000 0 0 0 443.200000 267.000000 z" /><desc class="value">0.00%</desc><desc class="x centered">439.939809867</desc><desc class="y centered">387.105760313</desc></g></g></g><g class="series serie-4 color-4"><g class="slices"><g class="slice"><path class="slice reactive tooltip-trigger" d="M435.955131 533.901690 A267.000000 267.000000 0 0 1 431.420432 533.740027 L432.598389 507.066024 A240.300000 240.300000 0 0 0 436.679618 507.211521 z" /><desc class="value">0.27%</desc><desc class="x centered">434.163066293</desc><desc class="y centered">520.488966879</desc></g><g class="slice"><path class="slice reactive tooltip-trigger" d="M431.420432 533.740027 A267.000000 267.000000 0 0 1 426.889136 533.501324 L428.520222 506.851192 A240.300000 240.300000 0 0 0 432.598389 507.066024 z" /><desc class="value">0.27%</desc><desc class="x centered">429.856563169</desc><desc class="y centered">520.298786404</desc></g><g class="slice"><path class="slice reactive tooltip-trigger" d="M426.889136 533.501324 A267.000000 267.000000 0 0 1 422.362550 533.185651 L424.446295 506.567086 A240.300000 240.300000 0 0 0 428.520222 506.851192 z" /><desc class="value">0.27%</desc><desc class="x centered">425.553913885</desc><desc class="y centered">520.035448396</desc></g><g class="slice"><path class="slice reactive tooltip-trigger" d="M422.362550 533.185651 A267.000000 267.000000 0 0 1 417.841983 532.793098 L420.377785 506.213788 A240.300000 240.300000 0 0 0 424.446295 506.567086 z" /><desc class="value">0.27%</desc><desc class="x centered">421.256361128</desc><desc class="y centered">519.699028912</desc></g><g class="slice"><path class="slice reactive tooltip-trigger" d="M417.841983 532.793098 A267.000000 267.000000 0 0 1 413.328740 532.323779 L416.315866 505.791401 A240.300000 240.300000 0 0 0 420.377785 506.213788 z" /><desc class="value">0.27%</desc><desc class="x centered">416.965146113</desc><desc class="y centered">519.289625117</desc></g><g class="slice"><path class="slice reactive tooltip-trigger" d="M413.328740 532.323779 A267.000000 267.000000 0 0 1 408.824124 531.777830 L412.261711 505.300047 A240.300000 240.300000 0 0 0 416.315866 505.791401 z" /><desc class="value">0.27%</desc><desc class="x centered">412.681508226</desc><desc class="y centered">518.807355254</desc></g><g class="slice"><path class="slice reactive tooltip-trigger" d="M408.824124 531.777830 A267.000000 267.000000 0 0 1 404.329436 531.155407 L408.216492 504.739867 A240.300000 240.300000 0 0 0 412.261711 505.300047 z" /><desc class="value">0.27%</desc><desc class="x centered">408.406684662</desc><desc class="y centered">518.252358611</desc></g><g class="slice"><path class="slice reactive tooltip-trigger" d="M404.329436 531.155407 A267.000000 267.000000 0 0 1 399.845975 530.456692 L404.181377 504.111023 A240.300000 240.300000 0 0 0 408.216492 504.739867 z" /><desc class="value">0.27%</desc><desc class="x centered">404.141910074</desc><desc class="y centered">517.624795484</desc></g><g class="slice"><path class="slice reactive tooltip-trigger" d="M399.845975 530.456692 A267.000000 267.000000 0 0 1 395.375035 529.681885 L400.157532 503.413697 A240.300000 240.300000 0 0 0 404.181377 504.111023 z" /><desc class="value">0.27%</desc><desc class="x centered">399.888416208</desc><desc class="y centered">516.924847123</desc></g><g class="slice"><path class="slice reactive tooltip-trigger" d="M395.375035 529.681885 A267.000000 267.000000 0 0 1 390.917909 528.831211 L396.146118 502.648090 A240.300000 240.300000 0 0 0 400.157532 503.413697 z" /><desc class="value">0.27%</desc><desc class="x centered">395.647431557</desc><desc class="y centered">516.152715687</desc></g><g class="big_slice"><path class="slice reactive tooltip-trigger" d="M436.679618 507.211521 A240.300000 240.300000 0 0 1 396.146118 502.648090 L443.200000 267.000000 A0.000000 0.000000 0 0 0 443.200000 267.000000 z" /><desc class="value">2.70%</desc><desc class="x centered">429.757932833</desc><desc class="y centered">386.395700636</desc></g></g></g><g class="series serie-5 color-5"><g class="slices"><g class="slice"><path class="slice reactive tooltip-trigger" d="M390.917909 528.831211 A267.000000 267.000000 0 0 1 372.231484 524.395551 L379.328336 498.655996 A240.300000 240.300000 0 0 0 396.146118 502.648090 z" /><desc class="value">1.15%</desc><desc class="x centered">384.618060621</desc><desc class="y centered">513.792380106</desc></g><g class="slice"><path class="slice reactive tooltip-trigger" d="M372.231484 524.395551 A267.000000 267.000000 0 0 1 353.912259 518.628097 L362.841033 493.465288 A240.300000 240.300000 0 0 0 379.328336 498.655996 z" /><desc class="value">1.15%</desc><desc class="x centered">367.0289976</desc><desc class="y centered">508.942763672</desc></g><g class="slice"><path class="slice reactive tooltip-trigger" d="M353.912259 518.628097 A267.000000 267.000000 0 0 1 336.055020 511.558691 L346.769518 487.102822 A240.300000 240.300000 0 0 0 362.841033 493.465288 z" /><desc class="value">1.15%</desc><desc class="x centered">349.834052151</desc><desc class="y centered">502.841307413</desc></g><g class="slice"><path class="slice reactive tooltip-trigger" d="M336.055020 511.558691 A267.000000 267.000000 0 0 1 318.752160 503.223909 L331.196944 479.601518 A240.300000 240.300000 0 0 0 346.769518 487.102822 z" /><desc class="value">1.15%</desc><desc class="x centered">333.122192908</desc><desc class="y centered">495.519580968</desc></g><g class="slice"><path class="slice reactive tooltip-trigger" d="M318.752160 503.223909 A267.000000 267.000000 0 0 1 302.093208 493.666877 L316.203888 471.000190 A240.300000 240.300000 0 0 0 331.196944 479.601518 z" /><desc class="value">1.15%</desc><desc class="x centered">316.979888963</desc><desc class="y centered">487.015467797</desc></g><g class="slice"><path class="slice reactive tooltip-trigger" d="M302.093208 493.666877 A267.000000 267.000000 0 0 1 286.164359 482.937045 L301.867923 461.343341 A240.300000 240.300000 0 0 0 316.203888 471.000190 z" /><desc class="value">1.15%</desc><desc class="x centered">301.490662462</desc><desc class="y centered">477.372969163</desc></g><g class="slice"><path class="slice reactive tooltip-trigger" d="M286.164359 482.937045 A267.000000 267.000000 0 0 1 271.048031 471.089930 L288.263228 450.680937 A240.300000 240.300000 0 0 0 301.867923 461.343341 z" /><desc class="value">1.15%</desc><desc class="x centered">286.734656454</desc><desc class="y centered">466.641976471</desc></g><g class="slice"><path class="slice reactive tooltip-trigger" d="M271.048031 471.089930 A267.000000 267.000000 0 0 1 256.822437 458.186830 L275.460193 439.068147 A240.300000 240.300000 0 0 0 288.263228 450.680937 z" /><desc class="value">1.15%</desc><desc class="x centered">272.788220219</desc><desc class="y centered">454.878013115</desc></g><g class="slice"><path class="slice reactive tooltip-trigger" d="M256.822437 458.186830 A267.000000 267.000000 0 0 1 243.561182 444.294507 L263.525063 426.565056 A240.300000 240.300000 0 0 0 275.460193 439.068147 z" /><desc class="value">1.15%</desc><desc class="x centered">259.723514231</desc><desc class="y centered">442.141947202</desc></g><g class="slice"><path class="slice reactive tooltip-trigger" d="M243.561182 444.294507 A267.000000 267.000000 0 0 1 231.332881 429.484842 L252.519593 413.236357 A240.300000 240.300000 0 0 0 263.525063 426.565056 z" /><desc class="value">1.15%</desc><desc class="x centered">247.608136788</desc><desc class="y centered">428.49967661</desc></g><g class="big_slice"><path class="slice reactive tooltip-trigger" d="M396.146118 502.648090 A240.300000 240.300000 0 0 1 252.519593 413.236357 L443.200000 267.000000 A0.000000 0.000000 0 0 0 443.200000 267.000000 z" /><desc class="value">11.45%</desc><desc class="x centered">379.701943763</desc><desc class="y centered">369.000094873</desc></g></g></g><g class="series serie-6 color-6"><g class="slices"><g class="slice"><path class="slice reactive tooltip-trigger" d="M231.332881 429.484842 A267.000000 267.000000 0 0 1 221.747154 416.156418 L243.892439 401.240776 A240.300000 240.300000 0 0 0 252.519593 413.236357 z" /><desc class="value">0.98%</desc><desc class="x centered">237.27567248</desc><desc class="y centered">415.099607816</desc></g><g class="slice"><path class="slice reactive tooltip-trigger" d="M221.747154 416.156418 A267.000000 267.000000 0 0 1 212.998708 402.264057 L236.018837 388.737651 A240.300000 240.300000 0 0 0 243.892439 401.240776 z" /><desc class="value">0.98%</desc><desc class="x centered">228.562821627</desc><desc class="y centered">402.163619958</desc></g><g class="slice"><path class="slice reactive tooltip-trigger" d="M212.998708 402.264057 A267.000000 267.000000 0 0 1 205.120618 387.860282 L228.928556 375.774254 A240.300000 240.300000 0 0 0 236.018837 388.737651 z" /><desc class="value">0.98%</desc><desc class="x centered">220.661481768</desc><desc class="y centered">388.716598716</desc></g><g class="slice"><path class="slice reactive tooltip-trigger" d="M205.120618 387.860282 A267.000000 267.000000 0 0 1 198.142671 372.999553 L222.648403 362.399598 A240.300000 240.300000 0 0 0 228.928556 375.774254 z" /><desc class="value">0.98%</desc><desc class="x centered">213.601526683</desc><desc class="y centered">374.809385262</desc></g><g class="slice"><path class="slice reactive tooltip-trigger" d="M198.142671 372.999553 A267.000000 267.000000 0 0 1 192.091248 357.738056 L217.202123 348.664250 A240.300000 240.300000 0 0 0 222.648403 362.399598 z" /><desc class="value">0.98%</desc><desc class="x centered">207.409649005</desc><desc class="y centered">360.494560684</desc></g><g class="slice"><path class="slice reactive tooltip-trigger" d="M192.091248 357.738056 A267.000000 267.000000 0 0 1 186.989230 342.133491 L212.610307 334.620142 A240.300000 240.300000 0 0 0 217.202123 348.664250 z" /><desc class="value">0.98%</desc><desc class="x centered">202.109259294</desc><desc class="y centered">345.82624719</desc></g><g class="slice"><path class="slice reactive tooltip-trigger" d="M186.989230 342.133491 A267.000000 267.000000 0 0 1 182.855907 326.244858 L208.890316 320.320372 A240.300000 240.300000 0 0 0 212.610307 334.620142 z" /><desc class="value">0.98%</desc><desc class="x centered">197.720397531</desc><desc class="y centered">330.859903472</desc></g><g class="slice"><path class="slice reactive tooltip-trigger" d="M182.855907 326.244858 A267.000000 267.000000 0 0 1 179.706906 310.132229 L206.056215 305.819006 A240.300000 240.300000 0 0 0 208.890316 320.320372 z" /><desc class="value">0.98%</desc><desc class="x centered">194.259657342</desc><desc class="y centered">315.652115033</desc></g><g class="slice"><path class="slice reactive tooltip-trigger" d="M179.706906 310.132229 A267.000000 267.000000 0 0 1 177.554132 293.856524 L204.118719 291.170871 A240.300000 240.300000 0 0 0 206.056215 305.819006 z" /><desc class="value">0.98%</desc><desc class="x centered">191.740123268</desc><desc class="y centered">300.260380241</desc></g><g class="slice"><path class="slice reactive tooltip-trigger" d="M177.554132 293.856524 A267.000000 267.000000 0 0 1 176.405726 277.479278 L203.085153 276.431350 A240.300000 240.300000 0 0 0 204.118719 291.170871 z" /><desc class="value">0.98%</desc><desc class="x centered">190.171321289</desc><desc class="y centered">284.742892938</desc></g><g class="big_slice"><path class="slice reactive tooltip-trigger" d="M252.519593 413.236357 A240.300000 240.300000 0 0 1 203.085153 276.431350 L443.200000 267.000000 A0.000000 0.000000 0 0 0 443.200000 267.000000 z" /><desc class="value">9.79%</desc><desc class="x centered">330.20106165</desc><desc class="y centered">307.832124998</desc></g></g></g><g class="series serie-7 color-7"><g class="slices"><g class="slice"><path class="slice reactive tooltip-trigger" d="M176.405726 277.479278 A267.000000 267.000000 0 0 1 178.128358 234.968380 L204.635522 238.171542 A240.300000 240.300000 0 0 0 203.085153 276.431350 z" /><desc class="value">2.54%</desc><desc class="x centered">189.757996046</desc><desc class="y centered">256.729988706</desc></g><g class="slice"><path class="slice reactive tooltip-trigger" d="M178.128358 234.968380 A267.000000 267.000000 0 0 1 186.581592 193.270817 L212.243432 200.643735 A240.300000 240.300000 0 0 0 204.635522 238.171542 z" /><desc class="value">2.54%</desc><desc class="x centered">194.606947172</desc><desc class="y centered">216.603407002</desc></g><g class="slice"><path class="slice reactive tooltip-trigger" d="M186.581592 193.270817 A267.000000 267.000000 0 0 1 201.550785 153.445358 L225.715706 164.800822 A240.300000 240.300000 0 0 0 212.243432 200.643735 z" /><desc class="value">2.54%</desc><desc class="x centered">205.768081142</desc><desc class="y centered">177.756476945</desc></g><g class="slice"><path class="slice reactive tooltip-trigger" d="M201.550785 153.445358 A267.000000 267.000000 0 0 1 222.655845 116.503236 L244.710261 131.552913 A240.300000 240.300000 0 0 0 225.715706 164.800822 z" /><desc class="value">2.54%</desc><desc class="x centered">222.957998569</desc><desc class="y centered">141.175585415</desc></g><g class="slice"><path class="slice reactive tooltip-trigger" d="M222.655845 116.503236 A267.000000 267.000000 0 0 1 249.360882 83.382473 L268.744794 101.744226 A240.300000 240.300000 0 0 0 244.710261 131.552913 z" /><desc class="value">2.54%</desc><desc class="x centered">245.740219429</desc><desc class="y centered">107.789580878</desc></g><g class="slice"><path class="slice reactive tooltip-trigger" d="M249.360882 83.382473 A267.000000 267.000000 0 0 1 280.987809 54.924058 L297.209028 76.131652 A240.300000 240.300000 0 0 0 268.744794 101.744226 z" /><desc class="value">2.54%</desc><desc class="x centered">273.536265998</desc><desc class="y centered">78.4461884114</desc></g><g class="slice"><path class="slice reactive tooltip-trigger" d="M280.987809 54.924058 A267.000000 267.000000 0 0 1 316.733569 31.850597 L329.380212 55.365537 A240.300000 240.300000 0 0 0 297.209028 76.131652 z" /><desc class="value">2.54%</desc><desc class="x centered">305.640351343</desc><desc class="y centered">53.8904845831</desc></g><g class="slice"><path class="slice reactive tooltip-trigger" d="M316.733569 31.850597 A267.000000 267.000000 0 0 1 355.690517 14.747963 L364.441465 39.973166 A240.300000 240.300000 0 0 0 329.380212 55.365537 z" /><desc class="value">2.54%</desc><desc class="x centered">341.237300403</desc><desc class="y centered">34.7459787414</desc></g><g class="slice"><path class="slice reactive tooltip-trigger" d="M355.690517 14.747963 A267.000000 267.000000 0 0 1 396.869473 4.050419 L401.502526 30.345377 A240.300000 240.300000 0 0 0 364.441465 39.973166 z" /><desc class="value">2.54%</desc><desc class="x centered">379.423248615</desc><desc class="y centered">21.4987810972</desc></g><g class="slice"><path class="slice reactive tooltip-trigger" d="M396.869473 4.050419 A267.000000 267.000000 0 0 1 439.224838 0.029593 L439.622354 26.726634 A240.300000 240.300000 0 0 0 401.502526 30.345377 z" /><desc class="value">2.54%</desc><desc class="x centered">419.228592508</desc><desc class="y centered">14.485259593</desc></g><g class="big_slice"><path class="slice reactive tooltip-trigger" d="M203.085153 276.431350 A240.300000 240.300000 0 0 1 439.622354 26.726634 L443.200000 267.000000 A0.000000 0.000000 0 0 0 443.200000 267.000000 z" /><desc class="value">25.39%</desc><desc class="x centered">355.972396773</desc><desc class="y centered">184.372112848</desc></g></g></g><g class="series serie-8 color-8"><g class="slices"><g class="slice"><path class="slice reactive tooltip-trigger" d="M439.224838 0.029593 A267.000000 267.000000 0 0 1 439.622329 0.023971 L439.980096 26.721574 A240.300000 240.300000 0 0 0 439.622354 26.726634 z" /><desc class="value">0.02%</desc><desc class="x centered">439.612403082</desc><desc class="y centered">13.3753725516</desc></g><g class="slice"><path class="slice reactive tooltip-trigger" d="M439.622329 0.023971 A267.000000 267.000000 0 0 1 440.019828 0.018940 L440.337845 26.717046 A240.300000 240.300000 0 0 0 439.980096 26.721574 z" /><desc class="value">0.02%</desc><desc class="x centered">439.990023515</desc><desc class="y centered">13.3703121656</desc></g><g class="slice"><path class="slice reactive tooltip-trigger" d="M440.019828 0.018940 A267.000000 267.000000 0 0 1 440.417334 0.014501 L440.695601 26.713051 A240.300000 240.300000 0 0 0 440.337845 26.717046 z" /><desc class="value">0.02%</desc><desc class="x centered">440.367651064</desc><desc class="y centered">13.3658140165</desc></g><g class="slice"><path class="slice reactive tooltip-trigger" d="M440.417334 0.014501 A267.000000 267.000000 0 0 1 440.814846 0.010654 L441.053362 26.709588 A240.300000 240.300000 0 0 0 440.695601 26.713051 z" /><desc class="value">0.02%</desc><desc class="x centered">440.745284892</desc><desc class="y centered">13.3618781142</desc></g><g class="slice"><path class="slice reactive tooltip-trigger" d="M440.814846 0.010654 A267.000000 267.000000 0 0 1 441.212364 0.007398 L441.411127 26.706659 A240.300000 240.300000 0 0 0 441.053362 26.709588 z" /><desc class="value">0.02%</desc><desc class="x centered">441.122924162</desc><desc class="y centered">13.3585044675</desc></g><g class="slice"><path class="slice reactive tooltip-trigger" d="M441.212364 0.007398 A267.000000 267.000000 0 0 1 441.609886 0.004735 L441.768897 26.704261 A240.300000 240.300000 0 0 0 441.411127 26.706659 z" /><desc class="value">0.02%</desc><desc class="x centered">441.500568035</desc><desc class="y centered">13.3556930838</desc></g><g class="slice"><path class="slice reactive tooltip-trigger" d="M441.609886 0.004735 A267.000000 267.000000 0 0 1 442.007411 0.002663 L442.126670 26.702397 A240.300000 240.300000 0 0 0 441.768897 26.704261 z" /><desc class="value">0.02%</desc><desc class="x centered">441.878215676</desc><desc class="y centered">13.3534439694</desc></g><g class="slice"><path class="slice reactive tooltip-trigger" d="M442.007411 0.002663 A267.000000 267.000000 0 0 1 442.404939 0.001184 L442.484445 26.701065 A240.300000 240.300000 0 0 0 442.126670 26.702397 z" /><desc class="value">0.02%</desc><desc class="x centered">442.255866247</desc><desc class="y centered">13.3517571292</desc></g><g class="slice"><path class="slice reactive tooltip-trigger" d="M442.404939 0.001184 A267.000000 267.000000 0 0 1 442.802469 0.000296 L442.842222 26.700266 A240.300000 240.300000 0 0 0 442.484445 26.701065 z" /><desc class="value">0.02%</desc><desc class="x centered">442.633518911</desc><desc class="y centered">13.350632567</desc></g><g class="slice"><path class="slice reactive tooltip-trigger" d="M442.802469 0.000296 A267.000000 267.000000 0 0 1 443.200000 0.000000 L443.200000 26.700000 A240.300000 240.300000 0 0 0 442.842222 26.700266 z" /><desc class="value">0.02%</desc><desc class="x centered">443.011172831</desc><desc class="y centered">13.3500702852</desc></g><g class="big_slice"><path class="slice reactive tooltip-trigger" d="M439.622354 26.726634 A240.300000 240.300000 0 0 1 443.200000 26.700000 L443.200000 267.000000 A0.000000 0.000000 0 0 0 443.200000 267.000000 z" /><desc class="value">0.24%</desc><desc class="x centered">442.305563694</desc><desc class="y centered">146.853329286</desc></g></g></g></g><g class="titles"><text class="title plot_title" x="512.0" y="26">Virtual Memory</text></g><g class="plot overlay" transform="translate(117, 46)"><g class="series serie-0 color-0" /><g class="series serie-1 color-1" /><g class="series serie-2 color-2" /><g class="series serie-3 color-3" /><g class="series serie-4 color-4" /><g class="series serie-5 color-5" /><g class="series serie-6 color-6" /><g class="series serie-7 color-7" /><g class="series serie-8 color-8" /></g><g class="plot text-overlay" transform="translate(117, 46)"><g class="series serie-0 color-0"><text class="centered" x="498.905141883" y="163.210292185">15.35%</text></g><g class="series serie-1 color-1"><text class="centered" x="562.675786127" y="282.377253957">22.68%</text></g><g class="series serie-2 color-2"><text class="centered" x="485.810248478" y="382.007172383">12.40%</text></g><g class="series serie-3 color-3" /><g class="series serie-4 color-4" /><g class="series serie-5 color-5"><text class="centered" x="379.701943763" y="371.66676154">11.45%</text></g><g class="series serie-6 color-6"><text class="centered" x="330.20106165" y="310.498791664">9.79%</text></g><g class="series serie-7 color-7"><text class="centered" x="355.972396773" y="187.038779514">25.39%</text></g><g class="series serie-8 color-8" /></g><g class="plot tooltip-overlay" transform="translate(117, 46)"><g class="tooltip" style="opacity: 0" transform="translate(0 0)"><a><rect class="tooltip-box" height="0" rx="0" ry="0" width="0" /><text class="text"><tspan class="label" /><tspan class="value" /></text></a></g></g><g class="legends" transform="translate(10, 56)"><g class="legend reactive activate-serie" id="activate-serie-0"><rect class="color-0 reactive" height="12" width="12" x="0.0" y="1.0" /><text x="17.0" y="11.2">available</text></g><g class="legend reactive activate-serie" id="activate-serie-1"><rect class="color-1 reactive" height="12" width="12" x="0.0" y="22.0" /><text x="17.0" y="32.2">used</text></g><g class="legend reactive activate-serie" id="activate-serie-2"><rect class="color-2 reactive" height="12" width="12" x="0.0" y="43.0" /><text x="17.0" y="53.2">cached</text></g><g class="legend reactive activate-serie" id="activate-serie-3"><rect class="color-3 reactive" height="12" width="12" x="0.0" y="64.0" /><text x="17.0" y="74.2">percent</text></g><g class="legend reactive activate-serie" id="activate-serie-4"><rect class="color-4 reactive" height="12" width="12" x="0.0" y="85.0" /><text x="17.0" y="95.2">free</text></g><g class="legend reactive activate-serie" id="activate-serie-5"><rect class="color-5 reactive" height="12" width="12" x="0.0" y="106.0" /><text x="17.0" y="116.2">inactive</text></g><g class="legend reactive activate-serie" id="activate-serie-6"><rect class="color-6 reactive" height="12" width="12" x="0.0" y="127.0" /><text x="17.0" y="137.2">active</text></g><g class="legend reactive activate-serie" id="activate-serie-7"><rect class="color-7 reactive" height="12" width="12" x="0.0" y="148.0" /><text x="17.0" y="158.2">total</text></g><g class="legend reactive activate-serie" id="activate-serie-8"><rect class="color-8 reactive" height="12" width="12" x="0.0" y="169.0" /><text x="17.0" y="179.2">buffers</text></g></g><g class="legends" transform="translate(1014, 56)" /></g></svg>