<?xml version='1.0' encoding='utf-8'?>
<svg xmlns:xlink="http://www.w3.org/1999/xlink" class="pygal-chart" id="chart-a93b44f4-7aa7-45a3-9d1e-dbd4ce8746c0" viewBox="0 0 1024 600" xmlns="http://www.w3.org/2000/svg"><!--Generated with pygal 1.5.0 (etree) ©Kozea 2011-2014 on 2014-09-09--><!--http://pygal.org--><!--http://github.com/Kozea/pygal--><defs><style type="text/css">#chart-a93b44f4-7aa7-45a3-9d1e-dbd4ce8746c0 .title{font-family:"monospace";font-size:16px}#chart-a93b44f4-7aa7-45a3-9d1e-dbd4ce8746c0 .legends .legend text{font-family:"monospace";font-size:14px}#chart-a93b44f4-7aa7-45a3-9d1e-dbd4ce8746c0 .axis text{font-family:"monospace";font-size:10px}#chart-a93b44f4-7aa7-45a3-9d1e-dbd4ce8746c0 .axis text.major{font-family:"monospace";font-size:10px}#chart-a93b44f4-7aa7-45a3-9d1e-dbd4ce8746c0 .series text{font-family:"monospace";font-size:8px}#chart-a93b44f4-7aa7-45a3-9d1e-dbd4ce8746c0 .tooltip text{font-family:"monospace";font-size:16px}#chart-a93b44f4-7aa7-45a3-9d1e-dbd4ce8746c0 text.no_data{font-size:64px}
#chart-a93b44f4-7aa7-45a3-9d1e-dbd4ce8746c0{background-color:black}#chart-a93b44f4-7aa7-45a3-9d1e-dbd4ce8746c0 path,#chart-a93b44f4-7aa7-45a3-9d1e-dbd4ce8746c0 line,#chart-a93b44f4-7aa7-45a3-9d1e-dbd4ce8746c0 rect,#chart-a93b44f4-7aa7-45a3-9d1e-dbd4ce8746c0 circle{-webkit-transition:250ms;-moz-transition:250ms;transition:250ms}#chart-a93b44f4-7aa7-45a3-9d1e-dbd4ce8746c0 .graph &gt; .background{fill:black}#chart-a93b44f4-7aa7-45a3-9d1e-dbd4ce8746c0 .plot &gt; .background{fill:#111}#chart-a93b44f4-7aa7-45a3-9d1e-dbd4ce8746c0 .graph{fill:#999}#chart-a93b44f4-7aa7-45a3-9d1e-dbd4ce8746c0 text.no_data{fill:#eee}#chart-a93b44f4-7aa7-45a3-9d1e-dbd4ce8746c0 .title{fill:#eee}#chart-a93b44f4-7aa7-45a3-9d1e-dbd4ce8746c0 .legends .legend text{fill:#999}#chart-a93b44f4-7aa7-45a3-9d1e-dbd4ce8746c0 .legends .legend:hover text{fill:#eee}#chart-a93b44f4-7aa7-45a3-9d1e-dbd4ce8746c0 .axis .line{stroke:#eee}#chart-a93b44f4-7aa7-45a3-9d1e-dbd4ce8746c0 .axis .guide.line{stroke:#555}#chart-a93b44f4-7aa7-45a3-9d1e-dbd4ce8746c0 .axis .major.line{stroke:#999}#chart-a93b44f4-7aa7-45a3-9d1e-dbd4ce8746c0 .axis text.major{stroke:#eee;fill:#eee}#chart-a93b44f4-7aa7-45a3-9d1e-dbd4ce8746c0 .axis.y .guides:hover .guide.line,#chart-a93b44f4-7aa7-45a3-9d1e-dbd4ce8746c0 .line-graph .axis.x .guides:hover .guide.line,#chart-a93b44f4-7aa7-45a3-9d1e-dbd4ce8746c0 .stackedline-graph .axis.x .guides:hover .guide.line,#chart-a93b44f4-7aa7-45a3-9d1e-dbd4ce8746c0 .xy-graph .axis.x .guides:hover .guide.line{stroke:#eee}#chart-a93b44f4-7aa7-45a3-9d1e-dbd4ce8746c0 .axis .guides:hover text{fill:#eee}#chart-a93b44f4-7aa7-45a3-9d1e-dbd4ce8746c0 .reactive{fill-opacity:.8}#chart-a93b44f4-7aa7-45a3-9d1e-dbd4ce8746c0 .reactive.active,#chart-a93b44f4-7aa7-45a3-9d1e-dbd4ce8746c0 .active .reactive{fill-opacity:.4}#chart-a93b44f4-7aa7-45a3-9d1e-dbd4ce8746c0 .series text{fill:#eee}#chart-a93b44f4-7aa7-45a3-9d1e-dbd4ce8746c0 .tooltip rect{fill:#111;stroke:#eee}#chart-a93b44f4-7aa7-45a3-9d1e-dbd4ce8746c0 .tooltip text{fill:#eee}#chart-a93b44f4-7aa7-45a3-9d1e-dbd4ce8746c0 .map-element{fill:#999;stroke:#555 !important;opacity:.9;stroke-width:3;-webkit-transition:250ms;-moz-transition:250ms;-o-transition:250ms;transition:250ms}#chart-a93b44f4-7aa7-45a3-9d1e-dbd4ce8746c0 .map-element:hover{opacity:1;stroke-width:10}#chart-a93b44f4-7aa7-45a3-9d1e-dbd4ce8746c0 .color-0,#chart-a93b44f4-7aa7-45a3-9d1e-dbd4ce8746c0 .color-0 a:visited{stroke:#ff5995;fill:#ff5995}#chart-a93b44f4-7aa7-45a3-9d1e-dbd4ce8746c0 .color-1,#chart-a93b44f4-7aa7-45a3-9d1e-dbd4ce8746c0 .color-1 a:visited{stroke:#b6e354;fill:#b6e354}#chart-a93b44f4-7aa7-45a3-9d1e-dbd4ce8746c0 .color-2,#chart-a93b44f4-7aa7-45a3-9d1e-dbd4ce8746c0 .color-2 a:visited{stroke:#feed6c;fill:#feed6c}#chart-a93b44f4-7aa7-45a3-9d1e-dbd4ce8746c0 .color-3,#chart-a93b44f4-7aa7-45a3-9d1e-dbd4ce8746c0 .color-3 a:visited{stroke:#8cedff;fill:#8cedff}#chart-a93b44f4-7aa7-45a3-9d1e-dbd4ce8746c0 .color-4,#chart-a93b44f4-7aa7-45a3-9d1e-dbd4ce8746c0 .color-4 a:visited{stroke:#9e6ffe;fill:#9e6ffe}#chart-a93b44f4-7aa7-45a3-9d1e-dbd4ce8746c0 .color-5,#chart-a93b44f4-7aa7-45a3-9d1e-dbd4ce8746c0 .color-5 a:visited{stroke:#899ca1;fill:#899ca1}#chart-a93b44f4-7aa7-45a3-9d1e-dbd4ce8746c0 .color-6,#chart-a93b44f4-7aa7-45a3-9d1e-dbd4ce8746c0 .color-6 a:visited{stroke:#f8f8f2;fill:#f8f8f2}#chart-a93b44f4-7aa7-45a3-9d1e-dbd4ce8746c0 .color-7,#chart-a93b44f4-7aa7-45a3-9d1e-dbd4ce8746c0 .color-7 a:visited{stroke:#bf4646;fill:#bf4646}#chart-a93b44f4-7aa7-45a3-9d1e-dbd4ce8746c0 .color-8,#chart-a93b44f4-7aa7-45a3-9d1e-dbd4ce8746c0 .color-8 a:visited{stroke:#516083;fill:#516083}#chart-a93b44f4-7aa7-45a3-9d1e-dbd4ce8746c0 .color-9,#chart-a93b44f4-7aa7-45a3-9d1e-dbd4ce8746c0 .color-9 a:visited{stroke:#f92672;fill:#f92672}#chart-a93b44f4-7aa7-45a3-9d1e-dbd4ce8746c0 .color-10,#chart-a93b44f4-7aa7-45a3-9d1e-dbd4ce8746c0 .color-10 a:visited{stroke:#82b414;fill:#82b414}#chart-a93b44f4-7aa7-45a3-9d1e-dbd4ce8746c0 .color-11,#chart-a93b44f4-7aa7-45a3-9d1e-dbd4ce8746c0 .color-11 a:visited{stroke:#fd971f;fill:#fd971f}#chart-a93b44f4-7aa7-45a3-9d1e-dbd4ce8746c0 .color-12,#chart-a93b44f4-7aa7-45a3-9d1e-dbd4ce8746c0 .color-12 a:visited{stroke:#56c2d6;fill:#56c2d6}#chart-a93b44f4-7aa7-45a3-9d1e-dbd4ce8746c0 .color-13,#chart-a93b44f4-7aa7-45a3-9d1e-dbd4ce8746c0 .color-13 a:visited{stroke:#808384;fill:#808384}#chart-a93b44f4-7aa7-45a3-9d1e-dbd4ce8746c0 .color-14,#chart-a93b44f4-7aa7-45a3-9d1e-dbd4ce8746c0 .color-14 a:visited{stroke:#8c54fe;fill:#8c54fe}#chart-a93b44f4-7aa7-45a3-9d1e-dbd4ce8746c0 .color-15,#chart-a93b44f4-7aa7-45a3-9d1e-dbd4ce8746c0 .color-15 a:visited{stroke:#465457;fill:#465457}
#chart-a93b44f4-7aa7-45a3-9d1e-dbd4ce8746c0 text.no_data{text-anchor:middle}#chart-a93b44f4-7aa7-45a3-9d1e-dbd4ce8746c0 .guide.line{fill-opacity:0}#chart-a93b44f4-7aa7-45a3-9d1e-dbd4ce8746c0 .centered{text-anchor:middle}#chart-a93b44f4-7aa7-45a3-9d1e-dbd4ce8746c0 .title{text-anchor:middle}#chart-a93b44f4-7aa7-45a3-9d1e-dbd4ce8746c0 .legends .legend text{fill-opacity:1}#chart-a93b44f4-7aa7-45a3-9d1e-dbd4ce8746c0 .axis.x text{text-anchor:middle}#chart-a93b44f4-7aa7-45a3-9d1e-dbd4ce8746c0 .axis.x:not(.web) text[transform]{text-anchor:start}#chart-a93b44f4-7aa7-45a3-9d1e-dbd4ce8746c0 .axis.y text{text-anchor:end}#chart-a93b44f4-7aa7-45a3-9d1e-dbd4ce8746c0 .axis.y2 text{text-anchor:start}#chart-a93b44f4-7aa7-45a3-9d1e-dbd4ce8746c0 .axis.y .logarithmic text:not(.major),#chart-a93b44f4-7aa7-45a3-9d1e-dbd4ce8746c0 .axis.y2 .logarithmic text:not(.major){font-size:50%}#chart-a93b44f4-7aa7-45a3-9d1e-dbd4ce8746c0 .axis .guide.line{stroke-dasharray:4,4}#chart-a93b44f4-7aa7-45a3-9d1e-dbd4ce8746c0 .axis .major.guide.line{stroke-dasharray:6,6}#chart-a93b44f4-7aa7-45a3-9d1e-dbd4ce8746c0 .axis text.major{stroke-width:0.5px}#chart-a93b44f4-7aa7-45a3-9d1e-dbd4ce8746c0 .horizontal .axis.y .guide.line,#chart-a93b44f4-7aa7-45a3-9d1e-dbd4ce8746c0 .horizontal .axis.y2 .guide.line,#chart-a93b44f4-7aa7-45a3-9d1e-dbd4ce8746c0 .vertical .axis.x .guide.line{opacity:0}#chart-a93b44f4-7aa7-45a3-9d1e-dbd4ce8746c0 .horizontal .axis.always_show .guide.line,#chart-a93b44f4-7aa7-45a3-9d1e-dbd4ce8746c0 .vertical .axis.always_show .guide.line{opacity:1 !important}#chart-a93b44f4-7aa7-45a3-9d1e-dbd4ce8746c0 .axis.y .guides:hover .guide.line,#chart-a93b44f4-7aa7-45a3-9d1e-dbd4ce8746c0 .axis.y2 .guides:hover .guide.line,#chart-a93b44f4-7aa7-45a3-9d1e-dbd4ce8746c0 .axis.x .guides:hover .guide.line{opacity:1}#chart-a93b44f4-7aa7-45a3-9d1e-dbd4ce8746c0 .axis .guides:hover text{opacity:1}#chart-a93b44f4-7aa7-45a3-9d1e-dbd4ce8746c0 .nofill{fill:none}#chart-a93b44f4-7aa7-45a3-9d1e-dbd4ce8746c0 .subtle-fill{fill-opacity:.2}#chart-a93b44f4-7aa7-45a3-9d1e-dbd4ce8746c0 .dot{stroke-width:1px;fill-opacity:1}#chart-a93b44f4-7aa7-45a3-9d1e-dbd4ce8746c0 .dot.active{stroke-width:5px}#chart-a93b44f4-7aa7-45a3-9d1e-dbd4ce8746c0 .series text{stroke:none}#chart-a93b44f4-7aa7-45a3-9d1e-dbd4ce8746c0 .series text.active{opacity:1}#chart-a93b44f4-7aa7-45a3-9d1e-dbd4ce8746c0 .tooltip rect{fill-opacity:0.8}#chart-a93b44f4-7aa7-45a3-9d1e-dbd4ce8746c0 .tooltip text{fill-opacity:1}#chart-a93b44f4-7aa7-45a3-9d1e-dbd4ce8746c0 .tooltip text tspan.label{fill-opacity:.8}</style><script type="text/javascript">window.config = {"inner_radius": 0, "print_values": true, "tooltip_font_size": 16, "y_title": null, "y_labels_major": null, "height": 600, "legend_at_bottom": false, "show_legend": true, "show_dots": true, "explicit_size": false, "legend_font_size": 14, "x_labels_major_count": null, "major_label_font_size": 10, "fill": true, "half_pie": false, "style": {"opacity": ".8", "foreground": "#999", "plot_background": "#111", "foreground_light": "#eee", "transition": "250ms", "foreground_dark": "#555", "opacity_hover": ".4", "colors": ["#ff5995", "#b6e354", "#feed6c", "#8cedff", "#9e6ffe", "#899ca1", "#f8f8f2", "#bf4646", "#516083", "#f92672", "#82b414", "#fd971f", "#56c2d6", "#808384", "#8c54fe", "#465457"], "background": "black", "font_family": "monospace"}, "x_title": null, "zero": 0, "show_minor_x_labels": true, "interpolation_parameters": {}, "x_labels_major": null, "rounded_bars": null, "label_font_size": 10, "show_y_labels": true, "dots_size": 2.5, "show_y_guides": true, "show_minor_y_labels": true, "x_labels": ["0", "1", "2", "3", "4", "5", "6", "7", "8", "9"], "value_font_size": 8, "x_label_rotation": 0, "disable_xml_declaration": false, "strict": false, "css": ["style.css", "graph.css"], "title_font_size": 16, "show_only_major_dots": false, "human_readable": false, "show_x_guides": false, "spacing": 10, "y_label_rotation": 0, "pretty_print": false, "tooltip_border_radius": 0, "interpolate": null, "js": ["http://kozea.github.com/pygal.js/javascripts/svg.jquery.js", "http://kozea.github.com/pygal.js/javascripts/pygal-tooltips.js"], "y_labels": null, "y_labels_major_every": null, "interpolation_precision": 250, "value_formatter": null, "no_data_font_size": 64, "logarithmic": false, "print_zeroes": false, "no_data_text": "No data", "truncate_legend": null, "x_labels_major_every": null, "title": "Virtual Memory", "legend_box_size": 12, "no_prefix": false, "stroke": true, "include_x_axis": false, "range": null, "truncate_label": null, "order_min": null, "mode": null, "y_labels_major_count": null, "x_label_format": "%Y-%m-%d %H:%M:%S.%f", "margin": 20, "width": 1024}</script><script type="text/javascript" xlink:href="http://kozea.github.com/pygal.js/javascripts/svg.jquery.js" /><script type="text/javascript" xlink:href="http://kozea.github.com/pygal.js/javascripts/pygal-tooltips.js" /></defs><title>Virtual Memory</title><g class="graph pie-graph vertical"><rect class="background" height="600" width="1024" x="0" y="0" /><g class="plot" transform="translate(117, 46)"><rect class="background" height="534" width="886.4" x="0" y="0" /><g class="series serie-0 color-0"><g class="slices"><g class="slice"><path class="slice reactive tooltip-trigger" d="M443.200000 0.000000 A267.000000 267.000000 0 0 1 468.914881 1.241190 L466.343393 27.817071 A240.300000 240.300000 0 0 0 443.200000 26.700000 z" /><desc class="value">1.54%</desc><desc class="x centered">455.428788407</desc><desc class="y centered">13.6449541965</desc></g><g class="slice"><path class="slice reactive tooltip-trigger" d="M468.914881 1.241190 A267.000000 267.000000 0 0 1 494.390682 4.953222 L489.271614 31.157899 A240.300000 240.300000 0 0 0 466.343393 27.817071 z" /><desc class="value">1.54%</desc><desc class="x centered">479.772670436</desc><desc class="y centered">16.0004735519</desc></g><g class="slice"><path class="slice reactive tooltip-trigger" d="M494.390682 4.953222 A267.000000 267.000000 0 0 1 519.390548 11.101582 L511.771493 36.691424 A240.300000 240.300000 0 0 0 489.271614 31.157899 z" /><desc class="value">1.54%</desc><desc class="x centered">503.776525161</desc><desc class="y centered">20.6896122787</desc></g><g class="slice"><path class="slice reactive tooltip-trigger" d="M519.390548 11.101582 A267.000000 267.000000 0 0 1 543.682047 19.629108 L533.633843 44.366197 A240.300000 240.300000 0 0 0 511.771493 36.691424 z" /><desc class="value">1.54%</desc><desc class="x centered">527.217181403</desc><desc class="y centered">27.6687740199</desc></g><g class="slice"><path class="slice reactive tooltip-trigger" d="M543.682047 19.629108 A267.000000 267.000000 0 0 1 567.039334 30.456517 L554.655401 54.110865 A240.300000 240.300000 0 0 0 533.633843 44.366197 z" /><desc class="value">1.54%</desc><desc class="x centered">549.87670421</desc><desc class="y centered">36.873071374</desc></g><g class="slice"><path class="slice reactive tooltip-trigger" d="M567.039334 30.456517 A267.000000 267.000000 0 0 1 589.245249 43.483143 L574.640724 65.834829 A240.300000 240.300000 0 0 0 554.655401 54.110865 z" /><desc class="value">1.54%</desc><desc class="x centered">571.544421069</desc><desc class="y centered">48.2169291733</desc></g><g class="slice"><path class="slice reactive tooltip-trigger" d="M589.245249 43.483143 A267.000000 267.000000 0 0 1 610.093336 58.587874 L593.404003 79.429087 A240.300000 240.300000 0 0 0 574.640724 65.834829 z" /><desc class="value">1.54%</desc><desc class="x centered">592.018880589</desc><desc class="y centered">61.5948801019</desc></g><g class="slice"><path class="slice reactive tooltip-trigger" d="M610.093336 58.587874 A267.000000 267.000000 0 0 1 629.389765 75.630276 L610.770789 94.767248 A240.300000 240.300000 0 0 0 593.404003 79.429087 z" /><desc class="value">1.54%</desc><desc class="x centered">611.109725455</desc><desc class="y centered">76.8825452582</desc></g><g class="slice"><path class="slice reactive tooltip-trigger" d="M629.389765 75.630276 A267.000000 267.000000 0 0 1 646.955131 94.451901 L626.579618 111.706711 A240.300000 240.300000 0 0 0 610.770789 94.767248 z" /><desc class="value">1.54%</desc><desc class="x centered">628.639462245</desc><desc class="y centered">93.937790543</desc></g><g class="slice"><path class="slice reactive tooltip-trigger" d="M646.955131 94.451901 A267.000000 267.000000 0 0 1 662.626123 114.877758 L640.683511 130.089982 A240.300000 240.300000 0 0 0 626.579618 111.706711 z" /><desc class="value">1.54%</desc><desc class="x centered">644.445111634</desc><desc class="y centered">112.602048124</desc></g><g class="big_slice"><path class="slice reactive tooltip-trigger" d="M443.200000 26.700000 A240.300000 240.300000 0 0 1 640.683511 130.089982 L443.200000 267.000000 A0.000000 0.000000 0 0 0 443.200000 267.000000 z" /><desc class="value">15.35%</desc><desc class="x centered">498.927700455</desc><desc class="y centered">160.555432726</desc></g></g></g><g class="series serie-1 color-1"><g class="slices"><g class="slice"><path class="slice reactive tooltip-trigger" d="M662.626123 114.877758 A267.000000 267.000000 0 0 1 681.993177 147.556211 L658.113859 159.500590 A240.300000 240.300000 0 0 0 640.683511 130.089982 z" /><desc class="value">2.27%</desc><desc class="x centered">661.406959905</desc><desc class="y centered">137.678520156</desc></g><g class="slice"><path class="slice reactive tooltip-trigger" d="M681.993177 147.556211 A267.000000 267.000000 0 0 1 696.526806 182.652331 L671.194126 191.087098 A240.300000 240.300000 0 0 0 658.113859 159.500590 z" /><desc class="value">2.27%</desc><desc class="x centered">677.550681847</desc><desc class="y centered">169.953205009</desc></g><g class="slice"><path class="slice reactive tooltip-trigger" d="M696.526806 182.652331 A267.000000 267.000000 0 0 1 705.932836 219.455736 L679.659552 224.210163 A240.300000 240.300000 0 0 0 671.194126 191.087098 z" /><desc class="value">2.27%</desc><desc class="x centered">688.95090051</desc><desc class="y centered">204.192218648</desc></g><g class="slice"><path class="slice reactive tooltip-trigger" d="M705.932836 219.455736 A267.000000 267.000000 0 0 1 710.020878 257.221487 L683.338790 258.199339 A240.300000 240.300000 0 0 0 679.659552 224.210163 z" /><desc class="value">2.27%</desc><desc class="x centered">695.376863528</desc><desc class="y centered">239.702527571</desc></g><g class="slice"><path class="slice reactive tooltip-trigger" d="M710.020878 257.221487 A267.000000 267.000000 0 0 1 708.708185 295.185166 L682.157367 292.366649 A240.300000 240.300000 0 0 0 683.338790 258.199339 z" /><desc class="value">2.27%</desc><desc class="x centered">696.698502678</desc><desc class="y centered">275.765365929</desc></g><g class="slice"><path class="slice reactive tooltip-trigger" d="M708.708185 295.185166 A267.000000 267.000000 0 0 1 702.021329 332.578347 L676.139196 326.020512 A240.300000 240.300000 0 0 0 682.157367 292.366649 z" /><desc class="value">2.27%</desc><desc class="x centered">692.889066599</desc><desc class="y centered">311.650784099</desc></g><g class="slice"><path class="slice reactive tooltip-trigger" d="M702.021329 332.578347 A267.000000 267.000000 0 0 1 690.095658 368.644153 L665.406092 358.479738 A240.300000 240.300000 0 0 0 676.139196 326.020512 z" /><desc class="value">2.27%</desc><desc class="x centered">684.025662268</desc><desc class="y centered">346.632423629</desc></g><g class="slice"><path class="slice reactive tooltip-trigger" d="M690.095658 368.644153 A267.000000 267.000000 0 0 1 673.172561 402.652576 L650.175305 389.087318 A240.300000 240.300000 0 0 0 665.406092 358.479738 z" /><desc class="value">2.27%</desc><desc class="x centered">670.287694273</desc><desc class="y centered">380.002219491</desc></g><g class="slice"><path class="slice reactive tooltip-trigger" d="M673.172561 402.652576 A267.000000 267.000000 0 0 1 651.594577 433.915248 L630.755120 417.223723 A240.300000 240.300000 0 0 0 650.175305 389.087318 z" /><desc class="value">2.27%</desc><desc class="x centered">651.953233475</desc><desc class="y centered">411.084732063</desc></g><g class="slice"><path class="slice reactive tooltip-trigger" d="M651.594577 433.915248 A267.000000 267.000000 0 0 1 625.798470 461.799381 L607.538623 442.319443 A240.300000 240.300000 0 0 0 630.755120 417.223723 z" /><desc class="value">2.27%</desc><desc class="x centered">629.393388568</desc><desc class="y centered">439.250818732</desc></g><g class="big_slice"><path class="slice reactive tooltip-trigger" d="M640.683511 130.089982 A240.300000 240.300000 0 0 1 607.538623 442.319443 L443.200000 267.000000 A0.000000 0.000000 0 0 0 443.200000 267.000000 z" /><desc class="value">22.66%</desc><desc class="x centered">562.678683359</desc><desc class="y centered">279.683324599</desc></g></g></g><g class="series serie-2 color-2"><g class="slices"><g class="slice"><path class="slice reactive tooltip-trigger" d="M625.798470 461.799381 A267.000000 267.000000 0 0 1 610.141645 475.373432 L593.447481 454.536089 A240.300000 240.300000 0 0 0 607.538623 442.319443 z" /><desc class="value">1.24%</desc><desc class="x centered">609.356702025</desc><desc class="y centered">458.651435873</desc></g><g class="slice"><path class="slice reactive tooltip-trigger" d="M610.141645 475.373432 A267.000000 267.000000 0 0 1 593.479290 487.692399 L578.451361 465.623159 A240.300000 240.300000 0 0 0 593.447481 454.536089 z" /><desc class="value">1.24%</desc><desc class="x centered">593.993520452</desc><desc class="y centered">470.959889904</desc></g><g class="slice"><path class="slice reactive tooltip-trigger" d="M593.479290 487.692399 A267.000000 267.000000 0 0 1 575.911767 498.682082 L562.640590 475.513873 A240.300000 240.300000 0 0 0 578.451361 465.623159 z" /><desc class="value">1.24%</desc><desc class="x centered">577.722072773</desc><desc class="y centered">482.039843836</desc></g><g class="slice"><path class="slice reactive tooltip-trigger" d="M575.911767 498.682082 A267.000000 267.000000 0 0 1 557.544888 508.276287 L546.110399 484.148658 A240.300000 240.300000 0 0 0 562.640590 475.513873 z" /><desc class="value">1.24%</desc><desc class="x centered">560.640365882</desc><desc class="y centered">491.824560406</desc></g><g class="slice"><path class="slice reactive tooltip-trigger" d="M557.544888 508.276287 A267.000000 267.000000 0 0 1 538.489282 516.417226 L528.960354 491.475504 A240.300000 240.300000 0 0 0 546.110399 484.148658 z" /><desc class="value">1.24%</desc><desc class="x centered">542.851287059</desc><desc class="y centered">500.255103883</desc></g><g class="slice"><path class="slice reactive tooltip-trigger" d="M538.489282 516.417226 A267.000000 267.000000 0 0 1 518.859726 523.055865 L511.293753 497.450278 A240.300000 240.300000 0 0 0 528.960354 491.475504 z" /><desc class="value">1.24%</desc><desc class="x centered">524.46198426</desc><desc class="y centered">507.280695051</desc></g><g class="slice"><path class="slice reactive tooltip-trigger" d="M518.859726 523.055865 A267.000000 267.000000 0 0 1 498.774452 528.152217 L493.217007 502.036995 A240.300000 240.300000 0 0 0 511.293753 497.450278 z" /><desc class="value">1.24%</desc><desc class="x centered">505.583220735</desc><desc class="y centered">512.859017062</desc></g><g class="slice"><path class="slice reactive tooltip-trigger" d="M498.774452 528.152217 A267.000000 267.000000 0 0 1 478.354440 531.675585 L474.838996 505.208027 A240.300000 240.300000 0 0 0 493.217007 502.036995 z" /><desc class="value">1.24%</desc><desc class="x centered">486.328707875</desc><desc class="y centered">516.956470324</desc></g><g class="slice"><path class="slice reactive tooltip-trigger" d="M478.354440 531.675585 A267.000000 267.000000 0 0 1 457.722684 533.604748 L456.270416 506.944273 A240.300000 240.300000 0 0 0 474.838996 505.208027 z" /><desc class="value">1.24%</desc><desc class="x centered">466.814420303</desc><desc class="y centered">519.548374878</desc></g><g class="slice"><path class="slice reactive tooltip-trigger" d="M457.722684 533.604748 A267.000000 267.000000 0 0 1 437.003455 533.928086 L437.623110 507.235277 A240.300000 240.300000 0 0 0 456.270416 506.944273 z" /><desc class="value">1.24%</desc><desc class="x centered">447.157897324</desc><desc class="y centered">520.619119052</desc></g><g class="big_slice"><path class="slice reactive tooltip-trigger" d="M607.538623 442.319443 A240.300000 240.300000 0 0 1 437.623110 507.235277 L443.200000 267.000000 A0.000000 0.000000 0 0 0 443.200000 267.000000 z" /><desc class="value">12.36%</desc><desc class="x centered">486.080176931</desc><desc class="y centered">379.237751788</desc></g></g></g><g class="series serie-3 color-3"><g class="slices"><g class="slice"><path class="slice reactive tooltip-trigger" d="M437.003455 533.928086 A267.000000 267.000000 0 0 1 437.003455 533.928085 L437.623109 507.235277 A240.300000 240.300000 0 0 0 437.623110 507.235277 z" /><desc class="value">0.00%</desc><desc class="x centered">437.313282134</desc><desc class="y centered">520.581681225</desc></g><g class="slice"><path class="slice reactive tooltip-trigger" d="M437.003455 533.928085 A267.000000 267.000000 0 0 1 437.003454 533.928085 L437.623109 507.235277 A240.300000 240.300000 0 0 0 437.623109 507.235277 z" /><desc class="value">0.00%</desc><desc class="x centered">437.313281734</desc><desc class="y centered">520.581681215</desc></g><g class="slice"><path class="slice reactive tooltip-trigger" d="M437.003454 533.928085 A267.000000 267.000000 0 0 1 437.003454 533.928085 L437.623108 507.235277 A240.300000 240.300000 0 0 0 437.623109 507.235277 z" /><desc class="value">0.00%</desc><desc class="x centered">437.313281335</desc><desc class="y centered">520.581681206</desc></g><g class="slice"><path class="slice reactive tooltip-trigger" d="M437.003454 533.928085 A267.000000 267.000000 0 0 1 437.003453 533.928085 L437.623108 507.235277 A240.300000 240.300000 0 0 0 437.623108 507.235277 z" /><desc class="value">0.00%</desc><desc class="x centered">437.313280935</desc><desc class="y centered">520.581681197</desc></g><g class="slice"><path class="slice reactive tooltip-trigger" d="M437.003453 533.928085 A267.000000 267.000000 0 0 1 437.003453 533.928085 L437.623108 507.235277 A240.300000 240.300000 0 0 0 437.623108 507.235277 z" /><desc class="value">0.00%</desc><desc class="x centered">437.313280535</desc><desc class="y centered">520.581681188</desc></g><g class="slice"><path class="slice reactive tooltip-trigger" d="M437.003453 533.928085 A267.000000 267.000000 0 0 1 437.003453 533.928085 L437.623107 507.235277 A240.300000 240.300000 0 0 0 437.623108 507.235277 z" /><desc class="value">0.00%</desc><desc class="x centered">437.313280136</desc><desc class="y centered">520.581681178</desc></g><g class="slice"><path class="slice reactive tooltip-trigger" d="M437.003453 533.928085 A267.000000 267.000000 0 0 1 437.003452 533.928085 L437.623107 507.235277 A240.300000 240.300000 0 0 0 437.623107 507.235277 z" /><desc class="value">0.00%</desc><desc class="x centered">437.313279736</desc><desc class="y centered">520.581681169</desc></g><g class="slice"><path class="slice reactive tooltip-trigger" d="M437.003452 533.928085 A267.000000 267.000000 0 0 1 437.003452 533.928085 L437.623107 507.235277 A240.300000 240.300000 0 0 0 437.623107 507.235277 z" /><desc class="value">0.00%</desc><desc class="x centered">437.313279336</desc><desc class="y centered">520.58168116</desc></g><g class="slice"><path class="slice reactive tooltip-trigger" d="M437.003452 533.928085 A267.000000 267.000000 0 0 1 437.003451 533.928085 L437.623106 507.235277 A240.300000 240.300000 0 0 0 437.623107 507.235277 z" /><desc class="value">0.00%</desc><desc class="x centered">437.313278937</desc><desc class="y centered">520.581681151</desc></g><g class="slice"><path class="slice reactive tooltip-trigger" d="M437.003451 533.928085 A267.000000 267.000000 0 0 1 437.003451 533.928085 L437.623106 507.235277 A240.300000 240.300000 0 0 0 437.623106 507.235277 z" /><desc class="value">0.00%</desc><desc class="x centered">437.313278537</desc><desc class="y centered">520.581681141</desc></g><g class="big_slice"><path class="slice reactive tooltip-trigger" d="M437.623110 507.235277 A240.300000 240.300000 0 0 1 437.623106 507.235277 L443.200000 267.000000 A0.000000 0.000000 0 0 0 443.200000 267.000000 z" /><desc class="value">0.00%</desc><desc class="x centered">440.411553843</desc><desc class="y centered">387.117638455</desc></g></g></g><g class="series serie-4 color-4"><g class="slices"><g class="slice"><path class="slice reactive tooltip-trigger" d="M437.003451 533.928085 A267.000000 267.000000 0 0 1 432.379184 533.780640 L433.461266 507.102576 A240.300000 240.300000 0 0 0 437.623106 507.235277 z" /><desc class="value">0.28%</desc><desc class="x centered">435.116448384</desc><desc class="y centered">520.521160248</desc></g><g class="slice"><path class="slice reactive tooltip-trigger" d="M432.379184 533.780640 A267.000000 267.000000 0 0 1 427.758167 533.553090 L429.302350 506.897781 A240.300000 240.300000 0 0 0 433.461266 507.102576 z" /><desc class="value">0.28%</desc><desc class="x centered">430.724773781</desc><desc class="y centered">520.343030752</desc></g><g class="slice"><path class="slice reactive tooltip-trigger" d="M427.758167 533.553090 A267.000000 267.000000 0 0 1 423.141786 533.245503 L425.147608 506.620953 A240.300000 240.300000 0 0 0 429.302350 506.897781 z" /><desc class="value">0.28%</desc><desc class="x centered">426.33684505</desc><desc class="y centered">520.088831253</desc></g><g class="slice"><path class="slice reactive tooltip-trigger" d="M423.141786 533.245503 A267.000000 267.000000 0 0 1 418.531429 532.857973 L420.998286 506.272175 A240.300000 240.300000 0 0 0 425.147608 506.620953 z" /><desc class="value">0.28%</desc><desc class="x centered">421.953979732</desc><desc class="y centered">519.758638077</desc></g><g class="slice"><path class="slice reactive tooltip-trigger" d="M418.531429 532.857973 A267.000000 267.000000 0 0 1 413.928478 532.390614 L416.855630 505.851553 A240.300000 240.300000 0 0 0 420.998286 506.272175 z" /><desc class="value">0.28%</desc><desc class="x centered">417.577493846</desc><desc class="y centered">519.35255037</desc></g><g class="slice"><path class="slice reactive tooltip-trigger" d="M413.928478 532.390614 A267.000000 267.000000 0 0 1 409.334316 531.843568 L412.720885 505.359211 A240.300000 240.300000 0 0 0 416.855630 505.851553 z" /><desc class="value">0.28%</desc><desc class="x centered">413.208701498</desc><desc class="y centered">518.870690066</desc></g><g class="slice"><path class="slice reactive tooltip-trigger" d="M409.334316 531.843568 A267.000000 267.000000 0 0 1 404.750323 531.216999 L408.595291 504.795299 A240.300000 240.300000 0 0 0 412.720885 505.359211 z" /><desc class="value">0.28%</desc><desc class="x centered">408.848914482</desc><desc class="y centered">518.313201849</desc></g><g class="slice"><path class="slice reactive tooltip-trigger" d="M404.750323 531.216999 A267.000000 267.000000 0 0 1 400.177876 530.511094 L404.480088 504.159985 A240.300000 240.300000 0 0 0 408.595291 504.795299 z" /><desc class="value">0.28%</desc><desc class="x centered">404.49944189</desc><desc class="y centered">517.680253115</desc></g><g class="slice"><path class="slice reactive tooltip-trigger" d="M400.177876 530.511094 A267.000000 267.000000 0 0 1 395.618346 529.726067 L400.376511 503.453460 A240.300000 240.300000 0 0 0 404.480088 504.159985 z" /><desc class="value">0.28%</desc><desc class="x centered">400.161589714</desc><desc class="y centered">516.972033916</desc></g><g class="slice"><path class="slice reactive tooltip-trigger" d="M395.618346 529.726067 A267.000000 267.000000 0 0 1 391.073103 528.862152 L396.285793 502.675937 A240.300000 240.300000 0 0 0 400.376511 503.453460 z" /><desc class="value">0.28%</desc><desc class="x centered">395.83666046</desc><desc class="y centered">516.188756904</desc></g><g class="big_slice"><path class="slice reactive tooltip-trigger" d="M437.623106 507.235277 A240.300000 240.300000 0 0 1 396.285793 502.675937 L443.200000 267.000000 A0.000000 0.000000 0 0 0 443.200000 267.000000 z" /><desc class="value">2.76%</desc><desc class="x centered">430.027815021</desc><desc class="y centered">386.425776292</desc></g></g></g><g class="series serie-5 color-5"><g class="slices"><g class="slice"><path class="slice reactive tooltip-trigger" d="M391.073103 528.862152 A267.000000 267.000000 0 0 1 372.468624 524.460817 L379.541761 498.714736 A240.300000 240.300000 0 0 0 396.285793 502.675937 z" /><desc class="value">1.14%</desc><desc class="x centered">384.804884316</desc><desc class="y centered">513.836652392</desc></g><g class="slice"><path class="slice reactive tooltip-trigger" d="M372.468624 524.460817 A267.000000 267.000000 0 0 1 354.226784 518.739482 L363.124106 493.565534 A240.300000 240.300000 0 0 0 379.541761 498.714736 z" /><desc class="value">1.14%</desc><desc class="x centered">367.291655367</desc><desc class="y centered">509.025299742</desc></g><g class="slice"><path class="slice reactive tooltip-trigger" d="M354.226784 518.739482 A267.000000 267.000000 0 0 1 336.441109 511.727480 L347.116999 487.254732 A240.300000 240.300000 0 0 0 363.124106 493.565534 z" /><desc class="value">1.14%</desc><desc class="x centered">350.167608175</desc><desc class="y centered">502.973084421</desc></g><g class="slice"><path class="slice reactive tooltip-trigger" d="M336.441109 511.727480 A267.000000 267.000000 0 0 1 319.202787 503.460760 L331.602509 479.814684 A240.300000 240.300000 0 0 0 347.116999 487.254732 z" /><desc class="value">1.14%</desc><desc class="x centered">333.520537655</desc><desc class="y centered">495.711036113</desc></g><g class="slice"><path class="slice reactive tooltip-trigger" d="M319.202787 503.460760 A267.000000 267.000000 0 0 1 302.600198 493.981708 L316.660179 471.283537 A240.300000 240.300000 0 0 0 331.602509 479.814684 z" /><desc class="value">1.14%</desc><desc class="x centered">317.435793267</desc><desc class="y centered">487.276387306</desc></g><g class="slice"><path class="slice reactive tooltip-trigger" d="M302.600198 493.981708 A267.000000 267.000000 0 0 1 286.718464 483.338921 L302.366618 461.705029 A240.300000 240.300000 0 0 0 316.660179 471.283537 z" /><desc class="value">1.14%</desc><desc class="x centered">301.995841425</desc><desc class="y centered">477.71238241</desc></g><g class="slice"><path class="slice reactive tooltip-trigger" d="M286.718464 483.338921 A267.000000 267.000000 0 0 1 271.639010 471.586966 L288.795109 451.128269 A240.300000 240.300000 0 0 0 302.366618 461.705029 z" /><desc class="value">1.14%</desc><desc class="x centered">287.279842696</desc><desc class="y centered">467.068056037</desc></g><g class="slice"><path class="slice reactive tooltip-trigger" d="M271.639010 471.586966 A267.000000 267.000000 0 0 1 257.439148 458.786094 L276.015233 439.607485 A240.300000 240.300000 0 0 0 288.795109 451.128269 z" /><desc class="value">1.14%</desc><desc class="x centered">273.363245943</desc><desc class="y centered">455.397981601</desc></g><g class="slice"><path class="slice reactive tooltip-trigger" d="M257.439148 458.786094 A267.000000 267.000000 0 0 1 244.191681 445.001936 L264.092513 427.201742 A240.300000 240.300000 0 0 0 276.015233 439.607485 z" /><desc class="value">1.14%</desc><desc class="x centered">260.317401497</desc><desc class="y centered">442.761991524</desc></g><g class="slice"><path class="slice reactive tooltip-trigger" d="M244.191681 445.001936 A267.000000 267.000000 0 0 1 231.964529 430.305162 L253.088076 413.974646 A240.300000 240.300000 0 0 0 264.092513 427.201742 z" /><desc class="value">1.14%</desc><desc class="x centered">248.209195346</desc><desc class="y centered">429.224870474</desc></g><g class="big_slice"><path class="slice reactive tooltip-trigger" d="M396.285793 502.675937 A240.300000 240.300000 0 0 1 253.088076 413.974646 L443.200000 267.000000 A0.000000 0.000000 0 0 0 443.200000 267.000000 z" /><desc class="value">11.40%</desc><desc class="x centered">379.93008925</desc><desc class="y centered">369.141768605</desc></g></g></g><g class="series serie-6 color-6"><g class="slices"><g class="slice"><path class="slice reactive tooltip-trigger" d="M231.964529 430.305162 A267.000000 267.000000 0 0 1 222.301536 416.976226 L244.391382 401.978604 A240.300000 240.300000 0 0 0 253.088076 413.974646 z" /><desc class="value">0.98%</desc><desc class="x centered">237.83876222</desc><desc class="y centered">415.879429463</desc></g><g class="slice"><path class="slice reactive tooltip-trigger" d="M222.301536 416.976226 A267.000000 267.000000 0 0 1 213.478377 403.077095 L236.450539 389.469386 A240.300000 240.300000 0 0 0 244.391382 401.978604 z" /><desc class="value">0.98%</desc><desc class="x centered">229.053663791</desc><desc class="y centered">402.939946993</desc></g><g class="slice"><path class="slice reactive tooltip-trigger" d="M213.478377 403.077095 A267.000000 267.000000 0 0 1 205.528598 388.660612 L229.295738 376.494551 A240.300000 240.300000 0 0 0 236.450539 389.469386 z" /><desc class="value">0.98%</desc><desc class="x centered">221.082729292</desc><desc class="y centered">389.483633819</desc></g><g class="slice"><path class="slice reactive tooltip-trigger" d="M205.528598 388.660612 A267.000000 267.000000 0 0 1 198.482423 373.781587 L222.954180 363.103428 A240.300000 240.300000 0 0 0 229.295738 376.494551 z" /><desc class="value">0.98%</desc><desc class="x centered">213.956263456</desc><desc class="y centered">375.56164956</desc></g><g class="slice"><path class="slice reactive tooltip-trigger" d="M198.482423 373.781587 A267.000000 267.000000 0 0 1 192.366640 358.496589 L217.449976 349.346930 A240.300000 240.300000 0 0 0 222.954180 363.103428 z" /><desc class="value">0.98%</desc><desc class="x centered">207.701360424</desc><desc class="y centered">361.226924273</desc></g><g class="slice"><path class="slice reactive tooltip-trigger" d="M192.366640 358.496589 A267.000000 267.000000 0 0 1 187.204503 342.863729 L212.804052 335.277356 A240.300000 240.300000 0 0 0 217.449976 349.346930 z" /><desc class="value">0.98%</desc><desc class="x centered">202.341800741</desc><desc class="y centered">346.533957213</desc></g><g class="slice"><path class="slice reactive tooltip-trigger" d="M187.204503 342.863729 A267.000000 267.000000 0 0 1 183.015635 326.942442 L209.034072 320.948198 A240.300000 240.300000 0 0 0 212.804052 335.277356 z" /><desc class="value">0.98%</desc><desc class="x centered">197.897960942</desc><desc class="y centered">331.538609639</desc></g><g class="slice"><path class="slice reactive tooltip-trigger" d="M183.015635 326.942442 A267.000000 267.000000 0 0 1 179.815964 310.793260 L206.154368 306.413934 A240.300000 240.300000 0 0 0 209.034072 320.948198 z" /><desc class="value">0.98%</desc><desc class="x centered">194.386736082</desc><desc class="y centered">316.297892432</desc></g><g class="slice"><path class="slice reactive tooltip-trigger" d="M179.815964 310.793260 A267.000000 267.000000 0 0 1 177.617654 294.477580 L204.175888 291.729822 A240.300000 240.300000 0 0 0 206.154368 306.413934 z" /><desc class="value">0.98%</desc><desc class="x centered">191.821475501</desc><desc class="y centered">300.869749343</desc></g><g class="slice"><path class="slice reactive tooltip-trigger" d="M177.617654 294.477580 A267.000000 267.000000 0 0 1 176.429062 278.057434 L203.106156 276.951690 A240.300000 240.300000 0 0 0 204.175888 291.729822 z" /><desc class="value">0.98%</desc><desc class="x centered">190.211932076</desc><desc class="y centered">285.312836701</desc></g><g class="big_slice"><path class="slice reactive tooltip-trigger" d="M253.088076 413.974646 A240.300000 240.300000 0 0 1 203.106156 276.951690 L443.200000 267.000000 A0.000000 0.000000 0 0 0 443.200000 267.000000 z" /><desc class="value">9.81%</desc><desc class="x centered">330.324988179</desc><desc class="y centered">308.173464833</desc></g></g></g><g class="series serie-7 color-7"><g class="slices"><g class="slice"><path class="slice reactive tooltip-trigger" d="M176.429062 278.057434 A267.000000 267.000000 0 0 1 178.065957 235.489058 L204.579362 238.640152 A240.300000 240.300000 0 0 0 203.106156 276.951690 z" /><desc class="value">2.54%</desc><desc class="x centered">189.737322997</desc><desc class="y centered">257.253520311</desc></g><g class="slice"><path class="slice reactive tooltip-trigger" d="M178.065957 235.489058 A267.000000 267.000000 0 0 1 186.452154 193.722830 L212.126939 201.050547 A240.300000 240.300000 0 0 0 204.579362 238.640152 z" /><desc class="value">2.54%</desc><desc class="x centered">194.513513773</desc><desc class="y centered">217.066503547</desc></g><g class="slice"><path class="slice reactive tooltip-trigger" d="M186.452154 193.722830 A267.000000 267.000000 0 0 1 201.374172 153.821960 L225.556755 165.139764 A240.300000 240.300000 0 0 0 212.126939 201.050547 z" /><desc class="value">2.54%</desc><desc class="x centered">205.620314038</desc><desc class="y centered">178.150603164</desc></g><g class="slice"><path class="slice reactive tooltip-trigger" d="M201.374172 153.821960 A267.000000 267.000000 0 0 1 222.452153 116.802171 L244.526937 131.821954 A240.300000 240.300000 0 0 0 225.556755 165.139764 z" /><desc class="value">2.54%</desc><desc class="x centered">222.774987017</desc><desc class="y centered">141.496469567</desc></g><g class="slice"><path class="slice reactive tooltip-trigger" d="M222.452153 116.802171 A267.000000 267.000000 0 0 1 249.149532 83.605846 L268.554579 101.945261 A240.300000 240.300000 0 0 0 244.526937 131.821954 z" /><desc class="value">2.54%</desc><desc class="x centered">245.54084016</desc><desc class="y centered">108.037177204</desc></g><g class="slice"><path class="slice reactive tooltip-trigger" d="M249.149532 83.605846 A267.000000 267.000000 0 0 1 280.786696 55.078036 L297.028026 76.270233 A240.300000 240.300000 0 0 0 268.554579 101.945261 z" /><desc class="value">2.54%</desc><desc class="x centered">273.338341672</desc><desc class="y centered">78.6244720508</desc></g><g class="slice"><path class="slice reactive tooltip-trigger" d="M280.786696 55.078036 A267.000000 267.000000 0 0 1 316.558283 31.944952 L329.222455 55.450457 A240.300000 240.300000 0 0 0 297.028026 76.270233 z" /><desc class="value">2.54%</desc><desc class="x centered">305.45987318</desc><desc class="y centered">54.0070894051</desc></g><g class="slice"><path class="slice reactive tooltip-trigger" d="M316.558283 31.944952 A267.000000 267.000000 0 0 1 355.553686 14.795473 L364.318317 40.015925 A240.300000 240.300000 0 0 0 329.222455 55.450457 z" /><desc class="value">2.54%</desc><desc class="x centered">341.087742998</desc><desc class="y centered">34.8116939421</desc></g><g class="slice"><path class="slice reactive tooltip-trigger" d="M355.553686 14.795473 A267.000000 267.000000 0 0 1 396.780229 4.066159 L401.422206 30.359543 A240.300000 240.300000 0 0 0 364.318317 40.015925 z" /><desc class="value">2.54%</desc><desc class="x centered">379.31500144</desc><desc class="y centered">21.5269272222</desc></g><g class="slice"><path class="slice reactive tooltip-trigger" d="M396.780229 4.066159 A267.000000 267.000000 0 0 1 439.188443 0.030138 L439.589598 26.727124 A240.300000 240.300000 0 0 0 401.422206 30.359543 z" /><desc class="value">2.54%</desc><desc class="x centered">419.168528297</desc><desc class="y centered">14.4909687401</desc></g><g class="big_slice"><path class="slice reactive tooltip-trigger" d="M203.106156 276.951690 A240.300000 240.300000 0 0 1 439.589598 26.727124 L443.200000 267.000000 A0.000000 0.000000 0 0 0 443.200000 267.000000 z" /><desc class="value">25.42%</desc><desc class="x centered">355.877289304</desc><desc class="y centered">184.47263062</desc></g></g></g><g class="series serie-8 color-8"><g class="slices"><g class="slice"><path class="slice reactive tooltip-trigger" d="M439.188443 0.030138 A267.000000 267.000000 0 0 1 439.589573 0.024412 L439.950615 26.721970 A240.300000 240.300000 0 0 0 439.589598 26.727124 z" /><desc class="value">0.02%</desc><desc class="x centered">439.579556245</desc><desc class="y centered">13.3758393074</desc></g><g class="slice"><path class="slice reactive tooltip-trigger" d="M439.589573 0.024412 A267.000000 267.000000 0 0 1 439.990711 0.019288 L440.311640 26.717359 A240.300000 240.300000 0 0 0 439.950615 26.721970 z" /><desc class="value">0.02%</desc><desc class="x centered">439.960633648</desc><desc class="y centered">13.3706858314</desc></g><g class="slice"><path class="slice reactive tooltip-trigger" d="M439.990711 0.019288 A267.000000 267.000000 0 0 1 440.391856 0.014768 L440.672670 26.713291 A240.300000 240.300000 0 0 0 440.311640 26.717359 z" /><desc class="value">0.02%</desc><desc class="x centered">440.341718365</desc><desc class="y centered">13.3661049345</desc></g><g class="slice"><path class="slice reactive tooltip-trigger" d="M440.391856 0.014768 A267.000000 267.000000 0 0 1 440.793008 0.010850 L441.033707 26.709765 A240.300000 240.300000 0 0 0 440.672670 26.713291 z" /><desc class="value">0.02%</desc><desc class="x centered">440.722809534</desc><desc class="y centered">13.3620966271</desc></g><g class="slice"><path class="slice reactive tooltip-trigger" d="M440.793008 0.010850 A267.000000 267.000000 0 0 1 441.194165 0.007535 L441.394748 26.706781 A240.300000 240.300000 0 0 0 441.033707 26.709765 z" /><desc class="value">0.02%</desc><desc class="x centered">441.103906295</desc><desc class="y centered">13.3586609183</desc></g><g class="slice"><path class="slice reactive tooltip-trigger" d="M441.194165 0.007535 A267.000000 267.000000 0 0 1 441.595326 0.004822 L441.755794 26.704340 A240.300000 240.300000 0 0 0 441.394748 26.706781 z" /><desc class="value">0.02%</desc><desc class="x centered">441.485007789</desc><desc class="y centered">13.3557978157</desc></g><g class="slice"><path class="slice reactive tooltip-trigger" d="M441.595326 0.004822 A267.000000 267.000000 0 0 1 441.996492 0.002712 L442.116842 26.702441 A240.300000 240.300000 0 0 0 441.755794 26.704340 z" /><desc class="value">0.02%</desc><desc class="x centered">441.866113154</desc><desc class="y centered">13.3535073259</desc></g><g class="slice"><path class="slice reactive tooltip-trigger" d="M441.996492 0.002712 A267.000000 267.000000 0 0 1 442.397660 0.001206 L442.477894 26.701085 A240.300000 240.300000 0 0 0 442.116842 26.702441 z" /><desc class="value">0.02%</desc><desc class="x centered">442.247221531</desc><desc class="y centered">13.351789454</desc></g><g class="slice"><path class="slice reactive tooltip-trigger" d="M442.397660 0.001206 A267.000000 267.000000 0 0 1 442.798829 0.000301 L442.838946 26.700271 A240.300000 240.300000 0 0 0 442.477894 26.701085 z" /><desc class="value">0.02%</desc><desc class="x centered">442.628332058</desc><desc class="y centered">13.3506442039</desc></g><g class="slice"><path class="slice reactive tooltip-trigger" d="M442.798829 0.000301 A267.000000 267.000000 0 0 1 443.200000 0.000000 L443.200000 26.700000 A240.300000 240.300000 0 0 0 442.838946 26.700271 z" /><desc class="value">0.02%</desc><desc class="x centered">443.009443876</desc><desc class="y centered">13.3500715782</desc></g><g class="big_slice"><path class="slice reactive tooltip-trigger" d="M439.589598 26.727124 A240.300000 240.300000 0 0 1 443.200000 26.700000 L443.200000 267.000000 A0.000000 0.000000 0 0 0 443.200000 267.000000 z" /><desc class="value">0.24%</desc><desc class="x centered">442.297374134</desc><desc class="y centered">146.853390532</desc></g></g></g></g><g class="titles"><text class="title plot_title" x="512.0" y="26">Virtual Memory</text></g><g class="plot overlay" transform="translate(117, 46)"><g class="series serie-0 color-0" /><g class="series serie-1 color-1" /><g class="series serie-2 color-2" /><g class="series serie-3 color-3" /><g class="series serie-4 color-4" /><g class="series serie-5 color-5" /><g class="series serie-6 color-6" /><g class="series serie-7 color-7" /><g class="series serie-8 color-8" /></g><g class="plot text-overlay" transform="translate(117, 46)"><g class="series serie-0 color-0"><text class="centered" x="498.927700455" y="163.222099393">15.35%</text></g><g class="series serie-1 color-1"><text class="centered" x="562.678683359" y="282.349991266">22.66%</text></g><g class="series serie-2 color-2"><text class="centered" x="486.080176931" y="381.904418454">12.36%</text></g><g class="series serie-3 color-3" /><g class="series serie-4 color-4" /><g class="series serie-5 color-5"><text class="centered" x="379.93008925" y="371.808435271">11.40%</text></g><g class="series serie-6 color-6"><text class="centered" x="330.324988179" y="310.8401315">9.81%</text></g><g class="series serie-7 color-7"><text class="centered" x="355.877289304" y="187.139297287">25.42%</text></g><g class="series serie-8 color-8" /></g><g class="plot tooltip-overlay" transform="translate(117, 46)"><g class="tooltip" style="opacity: 0" transform="translate(0 0)"><a><rect class="tooltip-box" height="0" rx="0" ry="0" width="0" /><text class="text"><tspan class="label" /><tspan class="value" /></text></a></g></g><g class="legends" transform="translate(10, 56)"><g class="legend reactive activate-serie" id="activate-serie-0"><rect class="color-0 reactive" height="12" width="12" x="0.0" y="1.0" /><text x="17.0" y="11.2">available</text></g><g class="legend reactive activate-serie" id="activate-serie-1"><rect class="color-1 reactive" height="12" width="12" x="0.0" y="22.0" /><text x="17.0" y="32.2">used</text></g><g class="legend reactive activate-serie" id="activate-serie-2"><rect class="color-2 reactive" height="12" width="12" x="0.0" y="43.0" /><text x="17.0" y="53.2">cached</text></g><g class="legend reactive activate-serie" id="activate-serie-3"><rect class="color-3 reactive" height="12" width="12" x="0.0" y="64.0" /><text x="17.0" y="74.2">percent</text></g><g class="legend reactive activate-serie" id="activate-serie-4"><rect class="color-4 reactive" height="12" width="12" x="0.0" y="85.0" /><text x="17.0" y="95.2">free</text></g><g class="legend reactive activate-serie" id="activate-serie-5"><rect class="color-5 reactive" height="12" width="12" x="0.0" y="106.0" /><text x="17.0" y="116.2">inactive</text></g><g class="legend reactive activate-serie" id="activate-serie-6"><rect class="color-6 reactive" height="12" width="12" x="0.0" y="127.0" /><text x="17.0" y="137.2">active</text></g><g class="legend reactive activate-serie" id="activate-serie-7"><rect class="color-7 reactive" height="12" width="12" x="0.0" y="148.0" /><text x="17.0" y="158.2">total</text></g><g class="legend reactive activate-serie" id="activate-serie-8"><rect class="color-8 reactive" height="12" width="12" x="0.0" y="169.0" /><text x="17.0" y="179.2">buffers</text></g></g><g class="legends" transform="translate(1014, 56)" /></g></svg>